<svg xmlns="http://www.w3.org/2000/svg" width="16" height="16" viewBox="0 0 16 16"><defs><style>.a{fill:#76bf4e;}</style></defs><g transform="translate(-1311 -13)"><circle class="a" cx="8" cy="8" r="8" transform="translate(1311 13)"/><path d="M6.148,8.047a6.9,6.9,0,0,0,3,3l1-1a.453.453,0,0,1,.464-.109,5.194,5.194,0,0,0,1.626.26.457.457,0,0,1,.455.455v1.589a.457.457,0,0,1-.455.455A7.74,7.74,0,0,1,4.5,4.955.457.457,0,0,1,4.955,4.5H6.549A.457.457,0,0,1,7,4.955a5.173,5.173,0,0,0,.26,1.626.457.457,0,0,1-.114.464l-1,1Z" transform="translate(1310.338 12.338)"/></g></svg>