<svg xmlns="http://www.w3.org/2000/svg" width="40.903" height="30.229" viewBox="0 0 40.903 30.229"><defs><style>.a{opacity:0.9;}.b{fill:#4e5a62;}</style></defs><g class="a" transform="translate(0 0)"><path class="b" d="M1424.927,562.271h-18.293a5.305,5.305,0,0,1-5.266-3.846l-.012-.053-3.014-13.823c-.388-1.861-1.54-1.827-1.592-1.82l-.094,0h-5.093a1.785,1.785,0,1,1,0-3.57h5.055c1.5-.053,4.422.843,5.216,4.642l3,13.747a1.726,1.726,0,0,0,1.8,1.152h18.293a1.784,1.784,0,1,1,0,3.569Z" transform="translate(-1389.777 -539.158)"/><g transform="translate(14.267 3.1)"><path class="b" d="M1420.521,555.956h-16.1a1.787,1.787,0,0,1-1.747-1.415l-2.318-10.936a1.785,1.785,0,0,1,1.746-2.156h23.066a1.785,1.785,0,0,1,1.643,2.483l-4.649,10.937A1.783,1.783,0,0,1,1420.521,555.956Zm-14.653-3.569h13.471l3.132-7.368h-18.165Z" transform="translate(-1400.319 -541.449)"/></g><g transform="translate(14.209 24.503)"><path class="b" d="M1406,560.126a2.863,2.863,0,1,1-2.862-2.862A2.862,2.862,0,0,1,1406,560.126Z" transform="translate(-1400.276 -557.264)"/></g><g transform="translate(30.84 24.503)"><path class="b" d="M1418.291,560.126a2.863,2.863,0,1,1-2.864-2.862A2.863,2.863,0,0,1,1418.291,560.126Z" transform="translate(-1412.565 -557.264)"/></g></g></svg>