<svg xmlns="http://www.w3.org/2000/svg" width="32.846" height="38.431" viewBox="0 0 32.846 38.431"><defs><style>.a{fill:#4e5a62;}.b{fill:#76bf4e;}</style></defs><path class="a" d="M1437.289,543c0-1.066-.029-2,0-2.936a8.188,8.188,0,0,1,16.194-1.58A35.021,35.021,0,0,1,1453.8,543h3.041c1.168,0,2.339-.02,3.507.008,1.185.026,1.675.653,1.543,1.833-.761,6.805-1.532,13.608-2.257,20.416a5.526,5.526,0,0,1-5.4,5.137q-8.721.079-17.445,0a5.437,5.437,0,0,1-5.408-4.909c-.694-6.061-1.334-12.128-2-18.192-.088-.806-.182-1.612-.286-2.416-.159-1.229.349-1.862,1.593-1.874C1432.834,542.986,1434.975,543,1437.289,543Zm-5.3,2.742c0,.237-.017.427,0,.613q1.052,9.425,2.115,18.852a2.728,2.728,0,0,0,2.79,2.463q8.619.024,17.24,0a2.731,2.731,0,0,0,2.764-2.6q.854-7.589,1.709-15.179c.153-1.37.281-2.742.422-4.139h-5.323c0,.609.016,1.155,0,1.7a1.138,1.138,0,0,0,.685,1.289,1.643,1.643,0,0,1,.551,1.444,1.6,1.6,0,0,1-1.134.93,9.188,9.188,0,0,1-2.812.005,1.933,1.933,0,0,1-1.265-.938,1.2,1.2,0,0,1,.719-1.6c.221-.116.524-.339.539-.532.063-.759.026-1.527.026-2.279h-11.038c0,.637.02,1.187-.007,1.737a1.053,1.053,0,0,0,.663,1.2,1.6,1.6,0,0,1,.615,1.418,1.718,1.718,0,0,1-1.191.986,15.587,15.587,0,0,1-2.719.05,1.244,1.244,0,0,1-1.356-1.007,1.317,1.317,0,0,1,.795-1.589c.2-.1.466-.306.478-.477.052-.764.022-1.535.022-2.355Zm18.926-2.8a26.739,26.739,0,0,0-.026-3.556,5.391,5.391,0,0,0-4.921-4.626,5.335,5.335,0,0,0-5.657,3.814,27.126,27.126,0,0,0-.452,4.368Z" transform="translate(-1429.071 -532)"/><path class="b" d="M1442.424,554.8c1.673-1.693,3.3-3.355,4.952-4.995.287-.287.689-.7,1-.667.51.047,1.256.3,1.417.668a1.853,1.853,0,0,1-.289,1.63c-1.521,1.681-3.15,3.266-4.75,4.876-2.17,2.187-2.174,2.183-4.514.229-.746-.623-1.5-1.232-2.241-1.868a1.4,1.4,0,0,1-.322-2.045,1.386,1.386,0,0,1,2.069-.025C1440.628,553.31,1441.492,554.033,1442.424,554.8Z" transform="translate(-1426.437 -526.558)"/></svg>