<svg xmlns="http://www.w3.org/2000/svg" width="33" height="33" viewBox="0 0 33 33"><defs><style>.a{fill:#f8f8f8;}.b{fill:#76bf4e;}</style></defs><g transform="translate(-981 -5185)"><circle class="a" cx="16.5" cy="16.5" r="16.5" transform="translate(981 5185)"/><path class="b" d="M1592.625,625.333a5.7,5.7,0,0,0-4.48-1.86,7.94,7.94,0,0,0-7.986,7.179,5.774,5.774,0,0,0,1.31,4.471,5.674,5.674,0,0,0,4.135,1.844c.122,0,.244.006.367.006a9.368,9.368,0,0,0,4.721-1.128.563.563,0,1,0-.616-.942,8.449,8.449,0,0,1-4.434.939,4.56,4.56,0,0,1-3.329-1.463,4.683,4.683,0,0,1-1.033-3.625,6.819,6.819,0,0,1,6.866-6.156,4.591,4.591,0,0,1,3.61,1.448,3.881,3.881,0,0,1,.635,3.323c-.613,3.054-2.231,3.485-2.8,3.389a.373.373,0,0,1-.363-.418l1.245-5.39a.563.563,0,0,0-1.1-.253l-.194.84c-.008-.01-.014-.021-.022-.032a2.521,2.521,0,0,0-2-.939,4.349,4.349,0,0,0-3.9,3.536,3.352,3.352,0,0,0,.548,2.836,2.519,2.519,0,0,0,2,.939,3.674,3.674,0,0,0,2.385-.975,1.461,1.461,0,0,0,1.213.967c1.083.176,3.329-.493,4.088-4.278A4.962,4.962,0,0,0,1592.625,625.333Zm-6.818,7.417a1.4,1.4,0,0,1-1.128-.52,2.244,2.244,0,0,1-.324-1.891,3.288,3.288,0,0,1,2.8-2.649,1.4,1.4,0,0,1,1.128.52,2.118,2.118,0,0,1,.373,1.6l-.149.647A3.219,3.219,0,0,1,1585.807,632.75Z" transform="translate(-589.377 4571.406)"/></g></svg>