<svg xmlns="http://www.w3.org/2000/svg" width="117.787" height="9.549" viewBox="0 0 117.787 9.549"><defs><style>.a{fill:#76bf4e;fill-rule:evenodd;}</style></defs><g transform="translate(-97.426 -666.333)"><path class="a" d="M113.687,682.006l.2-.208c.048-.05.134-.18.2-.207.035-.016.165.2.207.2s.159-.221.2-.208c.064.023.158.151.208.2.028.027.206.161.207.2s-.169.179-.2.207l-.2.208c-.027.028-.161.206-.2.207s-.178-.169-.207-.2Z" transform="translate(-9.168 -8.596)"/><path class="a" d="M204,673.3c-.015-.068-.205-.13-.207-.2,0-.038.169-.175.2-.207.061-.072.133-.136.2-.207s.132-.138.2-.207c.048-.051.133-.18.2-.207.036-.015.165.2.207.2.067,0,.129-.192.2-.207.015.067.205.13.208.2s-.2.14-.2.207.206.129.208.2c0,.035-.17.179-.2.207s-.161.206-.2.208c-.057,0-.154-.209-.207-.2s-.14.212-.2.207c-.074-.006-.133-.178-.207-.2Z" transform="translate(-59.966 -3.346)"/><path class="a" d="M213.2,679.374c.012-.068.2-.14.2-.207s-.192-.13-.207-.2l.2-.208c.03-.031.156-.2.2-.206a1.5,1.5,0,0,1,.207.2c0,.056-.209.153-.2.207s.218.157.207.2c-.021.08-.168.129-.2.207-.067.015-.13.206-.2.207S213.271,679.386,213.2,679.374Z" transform="translate(-65.266 -6.891)"/><path class="a" d="M231.675,679.476c.138.13.276.262.414.393l-.393.414-.207-.2c-.028-.027-.206-.161-.207-.2s.169-.178.2-.208Z" transform="translate(-75.464 -7.41)"/><path class="a" d="M225.534,672.092c.062-.072.135-.135.2-.207.027-.033.2-.169.2-.208,0-.067-.192-.13-.208-.2.067-.015.13-.206.2-.208s.139.185.207.2c.065-.013.132-.208.2-.207a1.384,1.384,0,0,1,.207.2c0,.057-.209.154-.2.207.018.077.179.122.207.2-.066.015-.129.205-.2.207s-.154-.209-.207-.2c-.077.018-.122.179-.2.207s-.129.205-.2.207S225.6,672.1,225.534,672.092Z" transform="translate(-72.224 -2.78)"/><path class="a" d="M234.462,679.792l.2-.207c.014-.015.192-.211.2-.208a1.1,1.1,0,0,1,.207.2c0,.049-.171.162-.2.207a1.276,1.276,0,0,1-.2.207c-.027.029-.161.207-.2.208s-.179-.17-.207-.2-.209-.167-.207-.2a1.281,1.281,0,0,1,.2-.207C234.322,679.594,234.395,679.781,234.462,679.792Z" transform="translate(-77.03 -7.354)"/><path class="a" d="M241.149,679.834c-.027.029-.161.207-.2.208s-.179-.17-.207-.2-.2-.156-.207-.2.173-.182.2-.208.156-.2.2-.207.181.173.207.2.209.167.208.2S241.181,679.8,241.149,679.834Z" transform="translate(-80.683 -7.273)"/><path class="a" d="M237.741,670.646l.393-.414c.038-.041.144-.193.2-.208.028-.007.179.179.207.2s.161.2.208.2.142-.217.2-.207c.078.014.131.173.207.2-.012.068-.2.14-.2.207,0,.017.213.191.207.2-.031.029-.157.206-.2.207s-.175-.169-.207-.2c-.049-.042-.146-.181-.207-.2-.046-.012-.147.206-.2.207-.065,0-.142-.2-.207-.2s-.127.189-.2.207-.123.2-.2.207a1.592,1.592,0,0,1-.207-.2C237.543,670.786,237.729,670.713,237.741,670.646Z" transform="translate(-78.995 -2.081)"/><path class="a" d="M247.629,679.666c-.067.015-.129.206-.2.208-.035,0-.178-.17-.207-.2s-.206-.161-.207-.2c0-.068.185-.14.2-.208.067-.015.129-.206.2-.207a1.084,1.084,0,0,1,.207.2c.013.018-.2.178-.2.207C247.424,679.536,247.614,679.6,247.629,679.666Z" transform="translate(-84.336 -7.178)"/><path class="a" d="M257.9,672.385l-.208-.2c-.024-.023-.209-.168-.207-.2.005-.073.179-.134.2-.207l.2-.207c.023-.024.168-.21.2-.208.073.006.134.179.207.2-.012.068-.2.141-.2.207,0,.043.22.161.207.2-.024.065-.149.157-.2.207Z" transform="translate(-90.236 -2.84)"/><path class="a" d="M260.708,671.059c.012-.067.2-.14.2-.207s-.205-.13-.207-.2.2-.14.2-.208c0-.04-.221-.163-.208-.2.027-.066.147-.154.2-.207l.393-.415c.043-.045.139-.187.2-.207a2.032,2.032,0,0,1,.207.2c0,.067-.185.139-.2.207.015.066.205.13.207.2,0,.039-.17.176-.2.208-.051.058-.167.136-.2.207-.023.055-.2.151-.2.207s.221.16.207.2c-.024.065-.149.157-.2.207a1.429,1.429,0,0,1-.2.207C260.9,671.267,260.735,671.064,260.708,671.059Z" transform="translate(-92.042 -1.742)"/><path class="a" d="M262.563,671.664l.2-.207c.023-.024.168-.209.2-.207.06,0,.152.167.207.2a1.294,1.294,0,0,1,.208.2l.208.2c-.068.015-.13.205-.2.207s-.154-.209-.207-.2-.164.219-.2.207c-.063-.022-.158-.15-.207-.2Z" transform="translate(-93.1 -2.772)"/><path class="a" d="M277.229,677.97c-.067.016-.129.205-.2.207-.035,0-.178-.17-.207-.2s-.207-.161-.208-.2c0-.067.185-.139.2-.207.067-.015.129-.205.2-.207a1.061,1.061,0,0,1,.207.2c.014.018-.2.178-.2.207C277.024,677.841,277.214,677.9,277.229,677.97Z" transform="translate(-101.023 -6.222)"/><path class="a" d="M307.419,675.371c-.012.067-.2.14-.2.207,0,.042.221.16.208.2-.024.064-.149.157-.2.207s-.131.175-.2.208c-.032.015-.169-.2-.208-.2-.068,0-.13.192-.2.207l-.207-.2c-.028-.026-.207-.162-.208-.2s.169-.179.2-.208c.067-.068.131-.137.2-.207.047-.05.133-.18.2-.207.036-.016.164.2.207.2s.142-.216.2-.207C307.29,675.187,307.343,675.347,307.419,675.371Z" transform="translate(-117.711 -4.984)"/><path class="a" d="M306.307,673.972c-.027.029-.161.206-.2.207s-.179-.169-.208-.2-.2-.155-.207-.2.173-.181.2-.207.156-.2.2-.207.181.172.207.2.209.167.207.2S306.338,673.939,306.307,673.972Z" transform="translate(-117.417 -3.968)"/><path class="a" d="M317.731,675.789l.414.393c.03.028.205.159.207.2,0,.065-.186.141-.2.207l-.208-.2c-.05-.048-.143-.173-.207-.2-.037-.014-.155.206-.2.207-.067,0-.139-.185-.207-.2.012-.068.2-.14.2-.207,0-.043-.221-.16-.207-.2.024-.064.149-.157.2-.207.023-.024.168-.21.2-.207a1.285,1.285,0,0,1,.207.2C317.929,675.649,317.742,675.721,317.731,675.789Z" transform="translate(-123.974 -5.104)"/><path class="a" d="M321.017,677.5l-.207-.2c-.025-.024-.21-.168-.208-.2.006-.074.179-.135.2-.207.067-.015.13-.205.2-.207a1.53,1.53,0,0,1,.207.2c-.006.068-.2.14-.2.207s.205.129.207.2S321.029,677.43,321.017,677.5Z" transform="translate(-125.821 -5.839)"/><path class="a" d="M349.172,673.641l.207.2c.051.048.181.133.208.2.015.036-.2.164-.2.207a1.162,1.162,0,0,0,.207.2c.051.024.154.2.208.2.038,0,.166-.178.2-.208.055-.052.127-.175.2-.206s.14-.206.2-.208.144.2.207.2.128-.205.2-.207.139.185.206.2.14.2.208.2.129-.205.2-.207a1.41,1.41,0,0,1,.208.2c0,.067-.185.14-.2.207l-.2.208-.2.207c-.041.044-.141.189-.2.207-.019.007-.188-.178-.208-.2s-.171-.2-.207-.2-.17.179-.2.207-.166.208-.2.208-.175-.167-.207-.2-.178-.2-.207-.2-.181.218-.2.206a1.837,1.837,0,0,1-.208-.2c-.069-.065-.138-.131-.207-.2-.024-.024-.21-.168-.207-.2,0-.068.2-.14.2-.207s-.205-.129-.207-.2.185-.14.2-.207Z" transform="translate(-141.706 -4.12)"/><path class="a" d="M149.222,675.278c-.068-.011-.14-.2-.207-.2-.027,0-.181.219-.2.207s-.206-.167-.207-.2.17-.176.2-.208.188-.153.2-.207-.2-.142-.207-.2l-.2.207c-.048.051-.133.18-.2.208-.036.015-.165-.2-.207-.2-.061,0-.138.184-.2.207-.038.015-.163-.2-.207-.2s-.152.179-.2.207a1.407,1.407,0,0,0-.2.207c-.032.034-.153.2-.2.207-.028,0-.183-.173-.207-.2a1.254,1.254,0,0,0-.207-.2c-.048-.026-.157-.2-.208-.2s-.152.179-.2.207a1.366,1.366,0,0,0-.2.208c-.025.026-.164.208-.2.207s-.176-.168-.207-.2a1.086,1.086,0,0,0-.207-.2c-.052-.024-.152-.2-.207-.2s-.13.192-.2.207-.129.205-.2.207-.147-.205-.207-.2-.145-.2-.208-.2c-.038,0-.166.178-.2.207s-.174.212-.2.207c-.054-.012-.167-.158-.207-.2a1.575,1.575,0,0,0-.208-.2c-.041-.026-.161-.2-.206-.2s-.161.22-.2.207c-.064-.024-.157-.149-.208-.2-.026-.025-.174-.2-.207-.2s-.168.176-.2.207l-.2.207c-.05.053-.132.177-.2.208-.033.015-.167-.2-.207-.2-.068,0-.129.2-.2.207s-.141-.2-.207-.2c-.038,0-.166.178-.2.207s-.159.207-.2.208-.178-.169-.207-.2c-.05-.048-.18-.134-.207-.2-.016-.036.2-.165.2-.207a1.446,1.446,0,0,0-.207-.2c-.068,0-.14-.2-.207-.2-.05,0-.153.179-.2.207a1.382,1.382,0,0,0-.2.207c-.033.035-.151.2-.2.207-.027,0-.184-.175-.207-.2-.051-.048-.144-.172-.208-.2-.037-.013-.154.206-.2.207-.065,0-.143-.2-.207-.2-.04,0-.166.176-.2.207-.048.051-.133.18-.2.208-.035.015-.165-.2-.207-.2-.066,0-.131.207-.2.207s-.139-.2-.207-.2c-.042,0-.161.221-.2.207-.065-.024-.157-.149-.208-.2-.027-.025-.174-.2-.207-.2s-.168.177-.2.208-.168.209-.2.207c-.054,0-.158-.209-.208-.2-.066.016-.13.205-.2.207s-.154-.209-.207-.2c-.075.017-.121.2-.2.208-.059.009-.146-.2-.207-.2s-.142.217-.2.207c-.039-.007-.175-.21-.207-.2-.062.026-.15.158-.2.207-.03.032-.156.2-.2.207s-.182-.172-.207-.2-.172-.2-.207-.2-.169.179-.2.208-.164.207-.2.207-.178-.168-.207-.2-.171-.2-.207-.2c-.068,0-.14-.2-.207-.2-.05,0-.153.179-.2.208a1.324,1.324,0,0,0-.2.207c-.019.021-.176.211-.2.207-.054-.012-.166-.158-.207-.2a1.357,1.357,0,0,0-.208-.2c-.045-.025-.158-.2-.207-.2-.02,0-.189.215-.2.208-.029-.028-.206-.162-.208-.2,0-.056.209-.154.2-.207a1.21,1.21,0,0,0-.207-.2,1.524,1.524,0,0,0-.2.207c0,.042.221.16.207.2-.024.065-.149.157-.2.207s-.133.181-.2.208a2.167,2.167,0,0,1-.207-.2c0-.056.209-.153.2-.207a1.743,1.743,0,0,0-.207-.2,1.206,1.206,0,0,0-.2.207,1.343,1.343,0,0,0,.208.2c-.066,0-.131.206-.2.207-.038,0-.175-.169-.207-.2s-.162-.194-.207-.2c-.069,0-.138-.2-.207-.2s-.13.192-.2.207-.13.205-.2.207-.15-.208-.207-.2-.128.205-.2.207-.153-.209-.207-.2-.138.211-.2.208c-.042,0-.174-.166-.207-.2-.051-.048-.143-.173-.207-.2-.037-.014-.155.206-.2.207-.064,0-.144-.18-.207-.2s-.136-.192-.207-.2-.133.205-.2.207-.14-.2-.208-.2-.129.206-.2.208c-.044,0-.169-.212-.207-.2-.062.025-.151.159-.2.207l-.2.208c-.024.025-.165.208-.2.206s-.176-.167-.207-.2a1.223,1.223,0,0,0-.208-.2c-.05-.024-.154-.2-.207-.2s-.166.178-.2.207c-.047.045-.136.188-.2.208-.045.014-.157-.2-.207-.2-.066,0-.131.208-.2.206-.038,0-.177-.168-.207-.2s-.166-.195-.207-.2c-.069,0-.138-.2-.207-.2s-.13.191-.2.207-.13.206-.2.207-.157-.21-.207-.2-.13.205-.2.207c-.042,0-.172-.212-.207-.2-.063.027-.149.157-.2.208-.031.032-.155.2-.2.207s-.182-.172-.207-.2-.178-.2-.207-.2c-.069.008-.128.205-.2.207s-.14-.2-.207-.2c-.038,0-.166.179-.2.207s-.169.211-.2.208c-.046-.006-.171-.163-.207-.2s-.178-.2-.207-.2-.187.216-.2.207c-.028-.023-.206-.164-.207-.2,0-.056.209-.154.2-.207a1.159,1.159,0,0,0-.207-.2,1.49,1.49,0,0,0-.2.207c0,.042.221.16.207.2-.024.064-.149.157-.2.207-.03.032-.156.2-.2.208s-.181-.172-.208-.2a1.18,1.18,0,0,0-.207-.2c-.05-.024-.154-.2-.207-.2s-.167.178-.2.207c-.047.044-.136.188-.2.207-.045.014-.157-.2-.207-.2s-.15.219-.2.208-.164-.156-.208-.2l-.207-.2a1.3,1.3,0,0,0-.207-.2c-.024-.013-.164.206-.2.207s-.175-.17-.207-.2-.175-.2-.207-.2-.166.175-.2.207l-.2.208a1.873,1.873,0,0,1-.2.207c-.016.013-.181-.2-.207-.2a1.574,1.574,0,0,0-.2.208,1.483,1.483,0,0,0,.207.2c-.069.01-.128.206-.2.207-.039,0-.175-.169-.208-.2-.053-.046-.141-.175-.207-.2-.04-.013-.151.206-.2.208s-.175-.17-.207-.2-.172-.2-.208-.2-.168.177-.2.207l-.2.207c-.046.047-.137.184-.2.207-.04.016-.162-.2-.207-.2s-.143.217-.2.208c-.038-.007-.175-.21-.207-.2-.062.025-.15.158-.2.207l-.2.207c-.048.05-.134.18-.2.207-.036.016-.165-.2-.208-.2-.068,0-.128.2-.2.207a1.46,1.46,0,0,1-.207-.2c0-.056.209-.154.2-.207a.965.965,0,0,0-.207-.2c-.057-.022-.148-.2-.207-.2-.038,0-.167.178-.2.207-.047.045-.136.188-.2.208-.045.015-.157-.2-.207-.2-.068,0-.128.2-.2.207s-.143-.2-.207-.2-.143.216-.2.207c-.074-.013-.134-.192-.207-.2s-.133.205-.2.207-.16-.21-.207-.2-.156.165-.2.207c-.024.024-.168.209-.2.207s-.185-.21-.207-.2a1.267,1.267,0,0,0-.2.207l-.2.207-.2.207-.414-.393.2-.207c.023-.025.2-.179.2-.208-.01-.073-.186-.125-.207-.2l-.2.207a1.354,1.354,0,0,0-.2.207c-.026.046-.2.158-.2.207a2.423,2.423,0,0,0,.207.2c-.054.026-.141.206-.2.207-.038,0-.175-.169-.207-.2-.047-.04-.148-.183-.207-.2s-.142-.2-.207-.2c-.038,0-.166.178-.2.207-.047.044-.137.187-.2.206-.045.015-.157-.2-.207-.2s-.161.22-.2.207c-.065-.025-.156-.148-.207-.2-.024-.023-.209-.168-.207-.2s.206-.2.2-.208-.176-.2-.208-.2-.16.221-.2.207c-.064-.024-.157-.149-.207-.2-.034-.032-.163-.193-.207-.2-.069-.006-.139-.2-.207-.2-.05,0-.152.179-.2.207a1.35,1.35,0,0,0-.2.208,1.166,1.166,0,0,1-.2.207c-.028.015-.171-.2-.208-.2s-.166.178-.2.207c-.069.065-.129.141-.2.207l-.414-.394.2-.207c.019-.02.2-.188.2-.208a1.193,1.193,0,0,0-.208-.2c-.067,0-.129.205-.2.207s-.14-.2-.207-.2c-.034,0-.171.179-.2.207-.009.009.207.176.207.2,0,.038-.169.175-.2.207s-.161.2-.2.207a1.467,1.467,0,0,1-.207-.2c0-.056.209-.154.2-.207a1.15,1.15,0,0,0-.208-.2c-.069-.006-.139-.2-.207-.2-.038,0-.166.178-.2.207-.051.048-.132.182-.2.207-.039.015-.162-.2-.207-.2s-.166.178-.2.207-.146.2-.2.207-.148-.2-.207-.2-.13.205-.2.208-.14-.2-.207-.2-.137.213-.2.207-.138-.2-.207-.2c-.042,0-.16.221-.2.207-.065-.024-.157-.149-.207-.2-.023-.022-.181-.2-.207-.2-.046.008-.163.172-.2.207l-.2.207-.2.208c-.044.046-.137.186-.2.207-.042.015-.16-.2-.207-.2s-.143.216-.2.207c-.079-.013-.129-.182-.207-.2-.053-.01-.141.205-.2.207-.038,0-.175-.169-.207-.2s-.185-.2-.207-.2c-.053.014-.157.166-.2.207l-.2.208c-.033.034-.152.2-.2.207-.029,0-.181-.175-.207-.2s-.169-.2-.207-.2-.174.22-.2.207a1.354,1.354,0,0,1-.207-.2l-.207-.2-.207-.2c-.047-.044-.186-.138-.208-.2-.015-.042.2-.161.2-.207s-.216-.143-.207-.2c.006-.032.209-.184.2-.207a1.128,1.128,0,0,0-.207-.2l-.207-.2-.208-.2c-.034-.033-.2-.151-.207-.2a1.621,1.621,0,0,1,.2-.207,1.2,1.2,0,0,1,.207.2c-.014-.047.2-.156.2-.208a1.6,1.6,0,0,0-.207-.2c-.025,0-.182.218-.2.207a1.918,1.918,0,0,1-.207-.2l-.208-.2c-.034-.033-.2-.151-.207-.2,0-.027.174-.184.2-.207a1.355,1.355,0,0,0,.2-.207c.026-.046.2-.158.2-.208s-.22-.157-.207-.2c.021-.062.15-.159.2-.207.024-.024.2-.178.2-.207s-.21-.194-.207-.2c.037-.029.153-.206.2-.207s.154.209.207.2c.038-.009.164-.219.2-.207.063.022.158.149.207.2.033.031.164.193.207.2.028,0,.173-.183.2-.207s.162-.206.2-.207.179.17.208.2.177.2.206.2.167-.174.2-.207c.048-.051.134-.18.2-.207.036-.016.165.2.207.2.065,0,.134-.187.2-.207.046-.014.157.2.207.2s.167-.178.2-.208.157-.205.2-.206c.067,0,.14.2.207.2s.143-.217.2-.208c.072.013.134.194.207.2s.138.2.207.2c.038,0,.166-.179.2-.207s.168-.211.2-.207c.046.005.171.163.207.2a1.733,1.733,0,0,0,.207.2c.055.036.144.185.207.2s.14-.206.2-.208.168.212.207.2c.06-.023.151-.159.2-.207l.2-.208c.029-.03.158-.205.2-.207s.181.172.208.2.178.2.207.2c.053-.007.146-.216.2-.207.067.013.14.2.207.2s.143-.217.2-.208.157.207.208.2.161-.17.2-.207.168-.21.2-.208.18.21.207.2a1.112,1.112,0,0,0,.2-.207c.031-.032.156-.2.2-.207s.182.173.207.2.171.2.207.2.17-.178.2-.206.165-.209.2-.207c.069,0,.138.2.207.2.043,0,.16-.221.2-.207.064.024.157.148.207.2.023.021.182.2.208.2.046-.008.162-.171.2-.207l.2-.207.2-.208c.04-.042.141-.191.2-.207.02-.006.188.177.207.2s.178.2.207.2c.074-.009.123-.2.2-.207s.129-.205.2-.207.141.2.207.2.129-.205.2-.207.14.2.207.2.13-.206.2-.208c.043,0,.171.212.207.2.062-.026.15-.157.2-.207l.2-.208c.027-.029.16-.206.2-.207a1.428,1.428,0,0,1,.207.2c0,.056-.209.154-.2.207a.929.929,0,0,0,.207.2c.044.026.158.2.207.2s.143-.217.2-.207c.025,0,.194.206.207.2a1.111,1.111,0,0,0,.2-.207,1.5,1.5,0,0,0-.208-.2c.068,0,.129-.205.2-.207.049,0,.161.171.207.2a1.332,1.332,0,0,1,.207.2,2.466,2.466,0,0,0,.207.2,1.108,1.108,0,0,0,.2-.207c0-.05-.179-.153-.207-.2a1.367,1.367,0,0,0-.207-.2c-.023-.022-.181-.2-.207-.2.068-.012.128-.205.2-.208.049,0,.162.171.208.2a1.312,1.312,0,0,1,.206.2c.034.032.163.192.208.2.069.007.138.2.207.2a1.631,1.631,0,0,0,.2-.207,1.98,1.98,0,0,0-.208-.2c.058-.023.137-.205.2-.207s.154.208.208.2.129-.206.2-.208.14.2.208.2.142-.217.2-.207.162.208.207.2.159-.167.2-.207c.024-.024.168-.209.2-.207s.18.21.208.2a1.119,1.119,0,0,0,.2-.207c.026-.027.164-.208.2-.208s.177.168.207.2.178.2.207.2c.068-.009.129-.207.2-.207s.139.2.207.2c.046,0,.156-.22.2-.208.061.02.161.152.207.2l.207.2c.051.048.143.173.207.2.037.013.154-.206.2-.208.068,0,.139.185.207.2l.393-.414.2-.208.2-.207a2.1,2.1,0,0,1,.2-.207,2.222,2.222,0,0,0,.2-.207c.047-.05.133-.18.2-.207.036-.015.165.2.207.2.068,0,.13-.192.2-.206.026-.006.181-.217.2-.208a1.585,1.585,0,0,1,.208.2c.024.023.209.168.207.2s-.2.2-.2.207c.032.028.169.2.207.2.068,0,.128-.2.2-.208s.128-.205.2-.207c.038,0,.176.17.207.2a2.715,2.715,0,0,0,.207.2,1.122,1.122,0,0,0,.2-.207c0-.043-.221-.16-.208-.2.024-.065.149-.157.2-.207.027-.028.161-.207.2-.207s.179.169.207.2.179.2.207.2c.054-.007.146-.217.2-.208.067.013.14.2.207.2s.142-.216.2-.207c.076.013.13.188.207.2s.138.2.207.2c.038,0,.166-.178.2-.207s.161-.208.2-.208.177.168.207.2c.05.047.143.173.207.2.037.013.154-.206.2-.207.068,0,.138.2.207.2s.131-.205.2-.207.154.209.208.2.133-.208.2-.207.139.2.207.2.129-.206.2-.208.14.2.207.2.131-.209.2-.208.139.2.207.2.143-.216.2-.207.157.207.207.2.161-.17.2-.208.167-.208.2-.207.18.211.207.2a1.1,1.1,0,0,0,.2-.208c.028-.029.16-.206.2-.207s.179.17.207.2.161.192.207.2c.069.007.139.2.208.2s.142-.217.2-.208c.073.013.133.193.207.2s.133-.205.2-.208.151.209.207.2.162-.169.2-.207.133-.18.2-.207c.036-.015.165.2.208.2.067,0,.13-.206.2-.207.04,0,.173.169.207.2s.167.2.206.2.167-.178.2-.207.166-.21.2-.207.174.164.207.2.178.2.208.2c.053-.007.146-.217.2-.207.067.012.14.2.207.2s.143-.216.2-.207c.073.013.134.192.208.2s.138.2.207.2.143-.216.2-.207c.074.013.133.192.207.2s.133-.205.2-.207.147.205.207.2.128-.205.2-.207c.042,0,.171.212.207.2.063-.027.149-.157.2-.207.025-.027.165-.208.2-.208s.176.168.207.2.178.2.207.2.169-.219.2-.207c.069.031.152.144.207.2.025.024.177.2.207.2s.166-.175.2-.207.168-.209.2-.207.17.211.207.2c.06-.024.151-.159.2-.207.023-.024.167-.209.2-.207.05,0,.162.21.207.2.065-.019.131-.205.2-.207s.154.208.207.2c.078-.017.12-.183.2-.207s.133-.205.2-.207.154.209.207.2c.072-.017.125-.2.2-.208a1.55,1.55,0,0,1,.207.2c0,.057-.209.154-.2.207a.937.937,0,0,0,.207.2,2.745,2.745,0,0,0,.2-.208c.027-.028.161-.206.2-.207s.179.17.208.2a1.672,1.672,0,0,0,.207.2c.058-.02.153-.161.2-.207l.2-.207c.028-.03.16-.206.2-.208.066,0,.14.2.207.2s.129-.205.2-.207.14.2.208.2c.041,0,.162-.221.2-.208.065.027.155.147.207.2l.208.2c.031.029.167.195.207.2s.172-.181.2-.208l.2-.207c.034-.036.151-.2.2-.207.026,0,.184.174.207.2.051.049.143.174.208.2.036.014.154-.206.2-.207.065,0,.143.2.207.2.04,0,.167-.176.2-.207l.2-.207c.044-.047.137-.186.2-.208a1.743,1.743,0,0,1,.207.2c.032.03.167.195.208.2s.172-.181.2-.207l.2-.208c.037-.038.148-.2.2-.207.024-.005.185.176.207.2s.172.2.207.2.17-.178.2-.207.154-.2.2-.208a1.634,1.634,0,0,1,.207.2,1.475,1.475,0,0,1-.2.208c.066,0,.14.2.207.2s.129-.192.2-.208.13-.205.2-.207.141.2.207.2.141.2.207.2c.038,0,.167-.178.2-.207s.143-.2.2-.208.15.2.207.2.143.2.207.2.13-.192.2-.207.13-.205.2-.207.15.207.208.2.128-.205.2-.207.154.208.207.2.149-.216.2-.207a1.283,1.283,0,0,1,.207.2c0,.057-.209.154-.2.208a.93.93,0,0,0,.207.2c.024.013.164-.206.2-.207.067,0,.14.2.207.2s.14.2.207.2a1.487,1.487,0,0,0,.2-.207,2.594,2.594,0,0,0-.206-.2c.049-.027.143-.206.2-.207s.154.208.207.2c.072-.017.123-.2.2-.207s.143.2.207.2.134-.186.2-.207.133-.205.2-.208c.042,0,.171.212.207.2.063-.027.149-.157.2-.207.032-.034.154-.2.2-.208.028,0,.183.174.207.2s.157.189.207.2c.068.012.14.2.207.2s.129-.205.2-.207.14.2.207.2.13-.206.2-.207.13-.206.2-.207c.038,0,.176.169.208.2s.181.2.207.2c.049-.01.161-.169.2-.207s.168-.209.2-.208.18.211.207.2c.067-.034.144-.152.2-.207.034-.036.15-.2.2-.208.025,0,.185.175.207.2s.172.2.207.2.17-.178.2-.207.159-.205.2-.208.18.171.207.2.168.2.207.2c.068,0,.139.2.207.2s.143-.216.2-.207c.039.007.175.21.207.2.062-.025.15-.158.2-.206.027-.029.161-.206.2-.208.067,0,.14.2.207.2.043,0,.16-.221.2-.207.064.023.157.149.207.2.021.019.186.2.207.2.052-.013.158-.167.2-.207l.2-.208a1.219,1.219,0,0,1,.2-.207c.048-.027.144-.205.2-.206.068,0,.14.185.208.2,0-.046.211-.167.2-.207.021.06.161.153.207.2.029.027.205.161.207.2s-.17.179-.2.208-.191.211-.2.207c.042.026.161.2.207.2s.143-.216.2-.207.174.21.207.2c.06-.024.151-.16.2-.208l.2-.207c.023-.024.168-.209.2-.207s.174.165.207.2l.207.2c.024.022.18.2.208.2.045-.007.164-.173.2-.208l.2-.207.2-.207c.035-.037.149-.2.2-.208s.149.2.207.2c.042,0,.16-.221.2-.207.064.023.157.148.207.2s.143.173.207.2c.037.013.154-.206.2-.207s.175.17.208.2.165.2.207.2.171-.181.2-.208.168-.209.2-.207c.063,0,.146.2.207.2s.144.2.207.2a1.573,1.573,0,0,0,.2-.207,1.3,1.3,0,0,0-.207-.2c.068,0,.13-.205.2-.208s.14.2.207.2.129-.206.2-.208.146.178.207.2.161.153.207.2.143.173.207.2c.037.014.154-.206.2-.206.068,0,.138.192.207.2.031,0,.173-.182.2-.207l.2-.207c.035-.037.149-.2.2-.207.025,0,.185.176.207.2s.178.2.207.2c.068-.009.13-.207.2-.208s.14.2.207.2c.038,0,.165-.221.2-.207a1.142,1.142,0,0,1,.207.2c0,.057-.209.154-.2.207a.928.928,0,0,0,.207.2c.024.013.164-.206.2-.207.067,0,.14.2.207.2a1.429,1.429,0,0,0,.2-.207c0-.042-.221-.16-.207-.2.024-.064.148-.156.2-.207.031-.032.154-.2.2-.207s.182.173.207.2.178.2.208.2c.068-.009.129-.207.2-.207s.14.2.208.2.141-.216.2-.207.14.2.207.2c.043,0,.16-.221.2-.207.065.024.157.149.207.2.027.026.175.2.208.2s.168-.177.2-.207.168-.21.2-.207.181.211.207.2a1.113,1.113,0,0,0,.2-.207c.038-.04.145-.195.2-.208s.151.2.207.2.129-.205.2-.207.14.2.208.2.133-.21.2-.207c.041,0,.176.166.207.2s.21.167.207.2a1.332,1.332,0,0,1-.2.207c.067,0,.14.2.207.2a1.544,1.544,0,0,0,.2-.207,2.465,2.465,0,0,0-.207-.2c.05-.027.144-.206.2-.208s.14.2.208.2.129-.205.2-.207.148.206.208.2.127-.206.2-.207c.042,0,.171.212.207.2.063-.027.149-.157.2-.207.032-.034.154-.2.2-.207.062-.007.145.2.208.2.042,0,.16-.22.2-.207.064.024.156.149.207.2.029.027.172.2.207.2s.17-.179.2-.207c.048-.051.133-.18.2-.207.036-.015.164.2.208.2.066,0,.13-.207.2-.207s.14.2.207.2.143-.217.2-.208c.072.012.134.194.208.2s.139.2.207.2c.038,0,.167-.178.2-.207s.166-.21.2-.207.174.164.208.2.169.2.207.2c.068,0,.14.2.208.2.049,0,.152-.179.2-.207a1.363,1.363,0,0,0,.2-.207c.024-.025.168-.209.2-.207s.174.165.206.2l.208.2c.046.044.148.18.207.2s.144.2.208.2c.038,0,.166-.178.2-.207.047-.044.136-.188.2-.207.045-.015.158.2.208.2s.135-.213.2-.207c.043,0,.173.165.207.2.05.048.143.172.207.2.037.013.154-.206.2-.207.066,0,.14.2.207.2s.129-.206.2-.207c.043,0,.171.213.208.2.062-.027.149-.157.2-.207.027-.029.16-.207.2-.208.067,0,.14.2.207.2.043,0,.161-.221.2-.207.065.024.157.149.207.2s.159.19.207.2.138-.206.2-.207.154.209.208.2c.078-.018.119-.189.2-.208.052-.012.152.2.208.2.038,0,.166-.179.2-.207s.171-.211.2-.207c.051.008.169.16.208.2l.207.2c.052.049.141.17.207.2s.15.2.207.2c.038,0,.167-.178.2-.207a2.018,2.018,0,0,1,.2-.207c.065.025.155.148.207.2.025.024.21.168.208.2s-.2.2-.2.207c.073.06.134.136.207.2l.393-.414a1.557,1.557,0,0,1,.2-.207c.042-.028.15-.206.2-.207s.154.208.208.2c.036-.009.166-.219.2-.208.065.025.156.149.207.2s.179.134.207.2c.015.036-.2.164-.2.207a1.4,1.4,0,0,0,.207.2c.037,0,.169-.178.2-.207l.2-.208.2-.207c.033-.034.153-.2.2-.207.028,0,.183.174.208.2.05.048.143.174.207.2.037.014.154-.206.2-.207.069,0,.139.193.207.2s.139.2.208.2c.038,0,.166-.178.2-.208s.173-.212.2-.207c.054.012.166.158.207.2a1.143,1.143,0,0,0,.208.2c.05.025.154.2.207.2s.143-.217.2-.207c.079.013.129.182.207.2.053.01.141-.206.2-.207.038,0,.174.169.207.2s.159.191.207.2a1.64,1.64,0,0,0,.2-.207c0-.021-.215-.188-.208-.2.026-.028.162-.206.2-.207.069,0,.139.191.208.2s.139.2.207.2c.038,0,.166-.179.2-.207s.167-.21.2-.208a1.3,1.3,0,0,1,.207.2c0,.016-.2.2-.2.207.038.027.164.2.207.2s.143-.216.2-.207.139.2.207.2.129-.206.2-.207.154.209.208.2.156-.218.2-.207c.057.014.163.155.207.2s.165.194.207.2c.069,0,.138.2.207.2.038,0,.166-.179.2-.207.047-.045.136-.188.2-.208.045-.015.157.2.208.2.067,0,.13-.191.2-.207s.152.2.207.2c.038,0,.166-.179.2-.208.047-.044.137-.187.2-.207s.157.2.207.2.136-.212.2-.207c.044,0,.173.164.207.2s.21.167.208.2a1.983,1.983,0,0,1-.2.207c.061.019.145.2.207.2s.13-.206.2-.207.14.2.208.2.129-.192.2-.207.151.2.207.2c.038,0,.166-.178.2-.207s.16-.207.2-.207.178.169.208.2c.05.047.143.172.207.2.037.014.154-.206.2-.207.068,0,.137.19.207.2s.136-.2.2-.207.14.2.208.2.129-.205.2-.207.138.2.207.2.139.2.207.2.143-.217.2-.208c.039.007.175.211.207.2.062-.025.15-.157.2-.207.024-.024.168-.21.2-.207a1.345,1.345,0,0,1,.208.2,1.528,1.528,0,0,1-.2.207c.068,0,.139.2.207.2s.142-.216.2-.207c.073.013.133.192.208.2s.133-.206.2-.207.154.208.207.2.16-.168.2-.207.168-.21.2-.207.181.21.208.2a1.1,1.1,0,0,0,.2-.207,1.639,1.639,0,0,1,.2-.207,1.15,1.15,0,0,1,.207.2c0,.068-.2.14-.2.208s.205.129.207.2c0,.027-.21.19-.2.207a1.064,1.064,0,0,0,.206.2c.058,0,.143-.216.2-.208.078.014.131.173.207.2l.2-.207c.048-.05.133-.18.2-.207.036-.016.165.2.207.2.059,0,.14-.182.2-.207s.137-.206.2-.207c.043,0,.172.212.208.2.063-.027.149-.156.2-.207.03-.031.157-.2.2-.207s.181.172.208.2.178.2.207.2c.067-.008.129-.207.2-.207s.14.2.207.2c.036,0,.169-.22.2-.207a1.146,1.146,0,0,1,.207.2,1.356,1.356,0,0,1,.207.2c.028.044.206.147.208.2,0,.024-.208.194-.2.207.062.072.144.126.207.2l.393-.414.2-.207c.032-.034.152-.2.2-.208.028,0,.184.175.208.2a1.156,1.156,0,0,0,.207.2c.05.024.154.2.208.2.038,0,.166-.178.2-.207.046-.044.136-.188.2-.207s.157.2.208.2.139-.215.2-.208.171.162.208.2a1.838,1.838,0,0,0,.207.2c.041.026.162.2.208.2s.142-.217.2-.208c.038.007.175.21.207.2.062-.025.15-.158.2-.206a2.038,2.038,0,0,1,.2-.208c.066.028.154.147.207.2s.18.133.207.2c.015.036-.2.165-.2.207s.179.167.208.2.173.2.207.2c.057,0,.143-.217.2-.208s.151.161.207.2a1.733,1.733,0,0,1,.208.2l.207.2-.393.415c-.048.05-.134.18-.2.206-.035.016-.165-.2-.208-.2-.058,0-.141.182-.2.208-.034.015-.166-.2-.208-.2s-.152.179-.2.207a1.362,1.362,0,0,0-.2.207c-.032.033-.154.2-.2.207-.062.008-.144-.2-.207-.2-.029,0-.178.219-.2.207a1.052,1.052,0,0,1-.207-.2,2.43,2.43,0,0,1,.2-.207c-.051-.025-.154-.2-.207-.2s-.143.216-.2.207c-.073-.013-.133-.192-.207-.2s-.133.205-.2.208-.139-.188-.208-.2-.139-.2-.207-.2-.142.216-.2.207c-.073-.013-.133-.192-.207-.2s-.133.206-.2.207-.151-.208-.208-.2-.161.17-.2.207-.134.18-.2.207c-.036.016-.165-.2-.207-.2-.068,0-.13.206-.2.207s-.14-.2-.208-.2-.142.217-.2.207a.946.946,0,0,1-.207-.2c-.014-.023.2-.175.2-.207,0-.017-.212-.193-.208-.2-.026.022-.2.177-.2.208,0,.056.217.142.208.2-.013.073-.192.133-.2.208s.205.133.207.2-.179.143-.2.207-.2.144-.2.207c0,.042.221.16.207.2-.023.065-.149.157-.2.208l-.2.207.415.393.2-.207c.049-.051.134-.18.2-.206.036-.016.164.2.208.2.067,0,.129-.205.2-.207s.14.2.208.2c.042,0,.16-.22.2-.207.064.023.156.148.207.2.02.018.188.2.207.2.056-.017.156-.164.2-.206l.2-.208.2-.208c.027-.029.159-.2.2-.207a1.527,1.527,0,0,1,.208.2c0,.057-.209.154-.2.208a1.111,1.111,0,0,0,.208.2c.068.011.14.2.207.2.038,0,.166-.178.2-.208s.148-.2.2-.207.147.2.208.2.142-.216.2-.207.147.2.207.2.128-.206.2-.208.154.209.207.2c.072-.016.123-.2.2-.207s.144.2.208.2.137-.214.2-.207.138.2.207.2c.043,0,.16-.221.2-.207.065.024.157.148.207.2.024.023.179.2.207.2s.165-.174.2-.207l.2-.207c.025-.026.165-.208.2-.208s.176.167.208.2a1.677,1.677,0,0,0,.206.2c.06-.021.153-.161.2-.207l.2-.207c.031-.033.154-.2.2-.207.062-.008.144.2.207.2s.143-.216.2-.207a.951.951,0,0,1,.206.2c.015.024-.2.176-.2.208a1.789,1.789,0,0,0,.208.2c.055-.016.156-.164.2-.207l.2-.207c.046-.048.137-.184.2-.208.039-.015.162.2.207.2s.142-.216.2-.207c.025,0,.195.207.208.2a1.836,1.836,0,0,0,.2-.206c.023-.025.2-.179.2-.208s-.22-.169-.207-.2a1.088,1.088,0,0,1,.2-.207c.03-.032.155-.2.2-.207.064-.007.144.2.207.2.043,0,.161-.221.2-.208.065.024.157.149.208.2.036.034.161.192.207.2s.137-.205.2-.207.154.208.207.2.155-.217.2-.207.164.156.207.2l.208.2c.048.045.145.176.207.2.041.013.151-.206.2-.208s.154.209.208.2c.023-.006.184-.216.2-.207.027.019.207.167.208.2,0,.068-.2.14-.2.208s.205.129.207.2a2.739,2.739,0,0,1-.2.208c.052.023.151.2.207.2s.13-.205.2-.207.139.2.207.2.129-.205.2-.207.14.2.207.2.13-.205.2-.208.14.2.207.2.138-.215.2-.208a1.343,1.343,0,0,1,.208.2c0,.067-.185.14-.2.208-.067.014-.13.205-.2.206-.043,0-.172-.212-.208-.2-.063.027-.149.157-.2.208-.03.031-.156.2-.2.207s-.181-.172-.207-.2-.171-.2-.207-.2-.17.178-.2.207-.168.209-.2.207c-.044,0-.174-.164-.208-.2-.05-.048-.143-.173-.207-.2-.037-.013-.154.206-.2.207-.068,0-.138-.2-.207-.2s-.131.206-.2.207-.153-.209-.207-.2c-.021,0-.188.215-.2.207-.028-.023-.207-.164-.208-.2,0-.067.2-.139.2-.207s-.205-.129-.207-.2.2-.142.2-.207-.205-.129-.208-.2.209-.154.2-.207a1.026,1.026,0,0,0-.207-.2c-.065-.016-.142-.2-.208-.2s-.13.192-.2.207-.129.205-.2.208c-.025,0-.192-.209-.207-.2s-.2.177-.2.206.22.16.207.2c-.024.065-.149.157-.2.208s-.144.193-.2.207c-.021.005-.186-.178-.207-.2s-.178-.2-.208-.2c-.067.009-.129.208-.2.208s-.139-.2-.207-.2c-.034,0-.172.179-.2.207s-.2.17-.2.208.179.152.208.2a1.409,1.409,0,0,0,.207.2l.208.2c-.067.016-.129.205-.2.208s-.14-.2-.207-.2-.13.205-.2.207-.142-.2-.207-.2-.129.206-.2.207-.154-.209-.208-.2c-.076.017-.123.178-.2.207s-.119.168-.2.207c.067.012.14.2.207.2s.142-.217.2-.208c.073.013.133.193.207.2s.133-.206.2-.207.139.185.208.2l-.2.207c-.023.024-.168.209-.2.207-.073-.006-.135-.179-.208-.2s-.14-.2-.207-.2c-.038,0-.167.178-.2.207-.047.044-.137.188-.2.207s-.158-.2-.208-.2c-.069,0-.128.2-.2.208s-.144-.2-.207-.2-.13.205-.2.207-.14-.2-.207-.2-.132.209-.2.207-.139-.2-.207-.2-.143.216-.2.207c-.071-.012-.136-.195-.207-.2s-.138-.2-.208-.2c-.038,0-.166.178-.2.207s-.151.2-.2.208c-.063.007-.145-.2-.208-.2-.043,0-.16.22-.2.207-.065-.024-.157-.149-.208-.2-.024-.023-.179-.2-.207-.2-.044.006-.164.173-.2.207l-.2.208c-.031.031-.156.2-.2.207-.064.006-.143-.2-.208-.2s-.129.205-.2.207-.139-.2-.207-.2-.143.216-.2.207-.168-.16-.207-.2-.143-.173-.207-.2c-.037-.013-.155.206-.2.207s-.161-.211-.208-.2-.156.164-.2.206l-.2.208c-.024.025-.165.208-.2.207s-.175-.167-.208-.2-.178-.2-.207-.2c-.068.008-.129.207-.2.208s-.14-.2-.208-.2c-.027,0-.179.219-.2.208a1.1,1.1,0,0,1-.207-.2c0-.057.209-.154.2-.208a1.27,1.27,0,0,0-.207-.2c-.036,0-.17.178-.2.207l-.2.207-.2.207c-.047.049-.134.182-.2.207a1.936,1.936,0,0,1-.208-.2c-.024-.024-.178-.2-.207-.2-.072.009-.124.2-.2.207s-.128.2-.2.207-.153-.209-.207-.2-.147.215-.2.208-.171-.161-.208-.2-.178-.2-.208-.2-.169.219-.2.207a1.116,1.116,0,0,1-.208-.2c-.029-.028-.17-.2-.207-.2-.068,0-.14-.2-.207-.2-.05,0-.153.179-.2.207a1.365,1.365,0,0,0-.2.207c-.044.047-.137.185-.2.207-.041.015-.161-.2-.207-.2s-.143.216-.2.207-.175-.21-.207-.2c-.062.025-.15.158-.2.207-.026.027-.165.208-.2.207s-.177-.167-.208-.2a1.382,1.382,0,0,0-.207-.2c-.045-.025-.158-.2-.208-.2s-.146.218-.2.207c-.066-.013-.141-.2-.207-.2s-.143.217-.2.208-.156-.161-.207-.2a2.15,2.15,0,0,1-.208-.2c-.05-.048-.179-.134-.207-.2-.015-.036.2-.165.2-.208s-.179-.157-.207-.2c-.055-.076-.15-.123-.208-.2l-.2.207c-.027.029-.161.206-.2.207s-.178-.17-.207-.2-.182-.2-.207-.2c-.047.008-.163.171-.2.207s-.168.21-.2.207-.17-.211-.207-.2c-.061.023-.151.159-.2.207-.023.024-.167.209-.2.207-.073-.005-.134-.179-.207-.2-.017.072-.192.134-.2.207,0-.062-.205-.133-.208-.2,0-.038.17-.175.2-.208s.2-.18.2-.206c-.009-.048-.17-.162-.207-.2-.068-.065-.143-.127-.207-.2s-.142-.128-.207-.2c-.068.067-.128.142-.2.207-.03.029-.158.206-.2.208s-.185-.211-.208-.2a1.323,1.323,0,0,0-.2.207l-.2.207-.2.208-.393.414c-.031.032-.156.2-.2.208a1.546,1.546,0,0,1-.207-.2c0-.038.169-.175.2-.207a1.893,1.893,0,0,0,.2-.207,1.01,1.01,0,0,0-.208-.2c-.054-.009-.14.206-.2.208s-.14-.185-.207-.2l-.2.207c-.047.051-.172.143-.2.207-.014.037.206.155.207.2,0,.065-.18.143-.2.207-.011.047.206.147.208.2s-.17.175-.2.207a2.2,2.2,0,0,1-.2.207c-.006,0-.189-.188-.208-.2-.076-.023-.13-.184-.207-.2s-.139-.2-.207-.2-.13.205-.2.207-.14-.2-.208-.2-.137.213-.2.207-.139-.2-.207-.2c-.043,0-.161.221-.2.207-.064-.024-.157-.149-.207-.2-.033-.031-.165-.194-.207-.2-.062,0-.133.205-.2.207-.042,0-.171-.212-.207-.2-.063.027-.149.157-.2.207-.028.03-.159.205-.2.207s-.18-.171-.207-.2-.179-.2-.208-.2c-.068.009-.129.207-.2.207s-.139-.2-.208-.2-.13.208-.2.207-.139-.2-.207-.2-.129.205-.2.207-.14-.2-.208-.2-.146.218-.2.208a1.234,1.234,0,0,1-.207-.2c0-.029.21-.189.2-.207a1.1,1.1,0,0,0-.207-.2c-.05,0-.152.219-.2.207-.063-.017-.143-.2-.207-.2s-.143.216-.2.207c-.069-.012-.137-.2-.207-.2a1.475,1.475,0,0,0-.2.207,1.752,1.752,0,0,0,.208.2c-.065.018-.131.205-.2.208-.038,0-.175-.17-.208-.2s-.181-.2-.208-.2c-.047.01-.161.17-.2.207s-.164.209-.2.207c-.068,0-.138-.2-.207-.2-.042,0-.16.221-.2.207-.065-.023-.157-.149-.207-.2s-.161-.191-.207-.2-.137.206-.2.207c-.042,0-.171-.212-.208-.2-.062.027-.149.157-.2.207-.031.031-.157.2-.2.207s-.181-.172-.207-.2-.178-.2-.207-.2c-.069.009-.128.206-.2.207s-.14-.2-.207-.2c-.038,0-.166.178-.2.207s-.161.208-.2.207-.177-.168-.208-.2-.168-.2-.207-.2c-.069,0-.139-.2-.207-.2s-.13.205-.2.207-.14-.2-.207-.2-.131.19-.2.207-.131.206-.2.208-.154-.209-.208-.2-.132.207-.2.207-.139-.2-.207-.2-.143.216-.2.207c-.079-.013-.13-.177-.208-.2s-.143-.2-.207-.2-.143.217-.2.208-.144-.2-.207-.2c-.039,0-.168.176-.2.207l-.2.207c-.049.052-.133.178-.2.208-.034.015-.166-.2-.208-.2-.067,0-.129.205-.2.207s-.141-.2-.208-.2-.131.189-.2.207-.13.206-.2.207-.154-.208-.207-.2c-.069.015-.127.2-.2.207-.033,0-.18-.171-.207-.2s-.168-.2-.207-.2c-.068,0-.139-.2-.207-.2s-.13.192-.2.208-.13.205-.2.207-.15-.207-.208-.2-.128.205-.2.207-.154-.209-.207-.2-.142.213-.2.207-.173-.164-.208-.2-.147-.178-.207-.2-.145-.2-.208-.2c-.038,0-.166.179-.2.207s-.172.212-.2.207c-.051-.01-.168-.16-.207-.2l-.208-.2c-.029-.027-.171-.2-.208-.2s-.17.18-.2.208l-.2.207-.2.207c-.039.042-.143.192-.2.208s-.154-.2-.207-.2-.13.205-.2.207-.14-.2-.207-.2-.132.209-.2.207c-.041,0-.176-.167-.207-.2s-.172-.2-.208-.2-.169.179-.2.208-.172.21-.2.207a1.283,1.283,0,0,1-.207-.2,1.5,1.5,0,0,1,.2-.208c-.07,0-.138-.2-.208-.2s-.142.216-.2.207c-.074-.013-.133-.192-.207-.2s-.134.206-.2.207c-.041,0-.174-.212-.208-.2-.065.03-.147.156-.2.208l-.2.207c-.026.027-.163.207-.2.207-.068,0-.14-.2-.208-.2s-.142.216-.2.207a.935.935,0,0,1-.207-.2c-.014-.023.2-.175.2-.207a1.327,1.327,0,0,0-.207-.2c-.023,0-.177.186-.2.208l-.2.207c-.038.041-.144.193-.2.207-.021.006-.187-.177-.208-.2s-.178-.2-.207-.2-.169.219-.2.207c-.069-.031-.152-.144-.208-.2-.024-.023-.178-.2-.206-.2-.044.007-.165.174-.2.207-.048.051-.133.18-.2.207-.036.016-.164-.2-.207-.2-.059,0-.14.183-.2.208s-.138.205-.2.207c-.043,0-.171-.212-.208-.2-.063.028-.149.157-.2.208-.027.029-.161.205-.2.207s-.179-.17-.207-.2a1.173,1.173,0,0,0-.207-.2c-.05-.025-.154-.2-.207-.2s-.167.178-.2.206c-.047.045-.136.188-.2.208-.045.015-.157-.2-.207-.2-.066,0-.13.208-.2.207-.038,0-.177-.168-.207-.2s-.166-.195-.207-.2c-.069,0-.139-.2-.207-.2s-.13.192-.2.207-.13.205-.2.207-.15-.206-.207-.2-.129.206-.2.208-.154-.209-.208-.2-.144.214-.2.208-.171-.163-.207-.2l-.207-.2c-.027-.025-.175-.2-.208-.2s-.168.177-.2.207l-.2.208c-.05.053-.131.175-.2.207-.032.015-.168-.2-.207-.2-.056,0-.142.216-.2.207s-.154-.205-.207-.2-.164.171-.2.207-.167.21-.2.208c-.074-.006-.134-.18-.207-.2l-.393.414-.414-.393.393-.414c.028-.03.2-.17.2-.208,0-.065-.193-.131-.207-.2l-.393.414c-.049.052-.132.177-.2.207-.034.015-.167-.2-.207-.2-.056,0-.143.216-.2.207-.073-.013-.133-.193-.207-.2s-.133.206-.2.207-.159-.21-.207-.2-.157.165-.2.207a1.326,1.326,0,0,1-.2.207c-.044.028-.147.206-.2.208-.067,0-.14-.185-.207-.2-.051.006-.148.218-.2.207a1.269,1.269,0,0,1-.207-.2c0-.067.2-.14.2-.207s-.205-.13-.207-.2c0-.026.209-.191.2-.208s-.178-.2-.207-.2c-.057,0-.143.216-.2.208-.078-.013-.13-.173-.207-.2l-.2.207c-.023.024-.2.178-.2.207s.216.186.207.2c-.022.028-.165.206-.2.208s-.171-.213-.207-.2c-.063.027-.148.157-.2.208-.034.035-.151.2-.2.207s-.147-.2-.207-.2-.142.217-.2.207-.152-.205-.207-.2a1.278,1.278,0,0,0-.2.207,1.722,1.722,0,0,0,.207.2c-.068.014-.129.205-.2.207a1.579,1.579,0,0,1-.207-.2c0-.016.2-.206.2-.207-.057-.035-.143-.186-.207-.2s-.14.206-.2.207-.138-.189-.208-.2-.139-.2-.207-.2c-.038,0-.166.178-.2.207s-.17.212-.2.207c-.048-.007-.171-.161-.207-.2a1.656,1.656,0,0,0-.208-.2c-.058.02-.153.161-.2.207l-.2.208ZM151.157,672c.041.077.174.116.207.2.016.037-.2.164-.2.207s.179.174.207.2c.011.01.174-.207.2-.207.049,0,.161.171.207.2a1.357,1.357,0,0,1,.207.2c.03.029.169.2.207.2s.171-.18.2-.207c.052-.055.13-.174.2-.208.03-.015.169.2.207.2s.153-.179.2-.207a1.33,1.33,0,0,0,.2-.208l.2-.206-.414-.393c-.068.066-.128.141-.2.207-.031.028-.159.206-.2.207s-.168-.212-.208-.2c-.064.025-.146.158-.2.207-.031.029-.158.207-.2.207-.068,0-.139-.2-.207-.2-.039,0-.174-.169-.207-.2s-.168-.2-.207-.2c-.067,0-.13.205-.2.207s-.138-.191-.207-.2a1.616,1.616,0,0,0-.2.207c0,.067.193.13.208.2Zm2.641.537c0,.04-.212.175-.2.207a.991.991,0,0,0,.208.2c.031.027.168.2.207.2s.175-.18.2-.208c.006-.007-.2-.177-.207-.2l.2-.207.393-.414c.068.012.14.2.208.2s.142-.216.2-.207a.926.926,0,0,1,.207.2c.013.017-.2.179-.2.207,0,.067.205.13.207.2s-.2.139-.2.207.191.13.207.2c-.012-.051.192-.152.2-.207l.2-.207c.023-.024.2-.178.2-.207-.01-.073-.186-.125-.208-.2.012-.068.2-.141.2-.207a1.105,1.105,0,0,0-.208-.2c-.028-.013-.16.206-.2.207s-.175-.169-.207-.2-.167-.2-.207-.2-.168.18-.2.208-.158.205-.2.207-.161-.211-.207-.2c-.063.02-.133.205-.2.207-.042,0-.172-.212-.207-.2-.063.027-.149.157-.2.207l-.2.208C153.606,672.4,153.8,672.466,153.8,672.533Zm5.457.06a1.184,1.184,0,0,0,.2-.207,1.761,1.761,0,0,0-.207-.2c-.055-.01-.14.206-.2.208s-.138-.195-.207-.2-.138-.2-.207-.2a1.355,1.355,0,0,0-.2.207c0,.036.178.169.207.2.046.044.147.178.207.2.042.013.153-.217.2-.206C159.113,672.412,159.19,672.6,159.255,672.593Zm2.142-3.086c.067,0,.13-.192.2-.208.076.024.129.183.207.2.054.009.14-.205.2-.207s.167.212.207.2c.061-.024.151-.16.2-.207l.2-.207c.033-.035.151-.2.2-.207.027,0,.184.174.207.2s.161.191.208.2c.027,0,.174-.184.2-.207s.161-.206.2-.207.179.17.208.2l.207.2.393-.414-.414-.393c-.073-.017-.133-.191-.207-.2-.029,0-.174.182-.2.207-.046.048-.136.182-.2.207s-.136.205-.2.207-.14-.2-.207-.2-.13.206-.2.208c-.051,0-.159-.172-.207-.2a1.241,1.241,0,0,1-.207-.2l-.207-.2c-.041-.039-.154-.185-.207-.2a1.426,1.426,0,0,0-.2.207c-.027.032-.2.169-.2.207,0,.068.192.13.207.2l-.2.208-.393.414C161.258,669.321,161.33,669.508,161.4,669.507Zm5.033-.737.2-.208c.047-.048.176-.144.2-.207a1.9,1.9,0,0,0-.207-.2c-.029-.031-.206-.159-.208-.2s.17-.174.2-.207c.06-.073.135-.134.2-.207l-.207-.2c-.032-.031-.164-.194-.207-.2a1.4,1.4,0,0,0-.2.208c-.01.054.206.14.208.2s-.178.146-.2.207c-.013.041.206.15.207.2,0,.068-.2.139-.2.208s.2.129.207.2c0,.029-.173.182-.2.207l-.2.208c-.027-.075-.189-.12-.207-.2-.013-.054.2-.151.2-.207a1.251,1.251,0,0,0-.207-.2c-.023,0-.176.186-.2.207l-.2.208a1.263,1.263,0,0,1-.2.207c-.022.013-.176-.195-.208-.2s-.173.183-.2.208l-.2.206c.078.029.127.178.207.2.048.011.144-.206.2-.207s.14.2.207.2.13-.206.2-.207.148.176.207.2.154.151.208.2c.032.027.169.2.207.2.058,0,.142-.216.2-.207-.079-.013-.131-.173-.207-.2Zm4.659.485.393-.415q.1.1.207.2l.2-.207.2-.207c.032-.033.193-.164.2-.207a1.639,1.639,0,0,0-.207-.2c-.05,0-.153.179-.2.208a1.386,1.386,0,0,0-.2.207l-.2.207-.207-.2c-.028-.027-.172-.2-.207-.2s-.17.179-.2.207l-.2.207Zm16.4,1.392c-.012-.054.2-.151.2-.208a1.107,1.107,0,0,0-.208-.2c-.007,0-.181.193-.2.208-.031.028-.158.206-.2.206-.056,0-.153-.173-.207-.2a2.427,2.427,0,0,0,.2-.207c0-.036-.178-.169-.207-.2s-.171-.2-.207-.2c-.067,0-.129.192-.2.207l.208.2c.05.047.18.133.207.2.015.036-.2.165-.2.207s.18.176.207.2.166.2.207.2c.067,0,.13-.206.2-.207s.139.2.207.2.13-.192.2-.207C187.672,670.768,187.51,670.724,187.493,670.647Zm5.26.267c.065-.069.131-.138.2-.208l-.207-.2a1.723,1.723,0,0,0-.207-.2c-.056-.036-.144-.185-.207-.2s-.14.206-.2.207-.139-.184-.207-.2l-.2.207a1.694,1.694,0,0,0-.2.207c-.036.056-.185.144-.2.208s.205.14.207.2-.185.14-.2.207l.414.394c.063-.072.135-.135.2-.207.027-.032.2-.169.2-.208s-.219-.18-.208-.2a1.521,1.521,0,0,1,.2-.207c.031-.029.158-.206.2-.207.062,0,.146.178.207.2a1.173,1.173,0,0,1,.208.2c0,.028-.21.189-.2.207a1.061,1.061,0,0,0,.208.2c.067,0,.13-.192.2-.207Z" transform="translate(0 0)"/><path class="a" d="M245.4,670.91c.067,0,.14.2.207.2s.138-.183.2-.207.151-.159.2-.207c.024-.025.168-.209.2-.207.073.005.134.179.207.2l.414.394-.393.414-.207-.2c-.029-.027-.172-.2-.208-.2s-.169.179-.2.207-.17.21-.2.207c-.046-.005-.172-.163-.208-.2s-.18-.2-.207-.2c-.045.007-.164.172-.2.207l-.2.207c-.046.048-.137.184-.2.207-.04.015-.162-.2-.207-.2s-.142.216-.2.207c-.078-.014-.131-.172-.207-.2-.067.015-.13.206-.2.208s-.14-.185-.207-.2l.393-.414.2-.208c-.015-.067-.205-.129-.207-.2,0-.038.169-.175.2-.207a1.434,1.434,0,0,1,.2-.207c.054.012.166.158.207.2l.207.2a1.242,1.242,0,0,0,.207.2" transform="translate(-82.408 -2.254)"/><path class="a" d="M252.874,670.244c.076.024.129.184.207.2-.055-.009-.139.206-.2.207-.038,0-.175-.169-.207-.2-.054-.047-.141-.175-.208-.2s-.146-.2-.207-.2-.129.206-.2.207-.14-.2-.207-.2-.148.219-.2.207c-.08-.019-.13-.168-.207-.2l.2-.206c.023-.025.168-.21.2-.208s.186.21.208.2a1.265,1.265,0,0,0,.2-.207l.2-.208c.021-.021.174-.211.2-.207a1.251,1.251,0,0,1,.207.2c0,.057-.209.154-.2.207.018.077.18.122.207.2l.2-.208c.023-.024.2-.178.2-.207-.008-.068-.206-.13-.207-.2s.2-.14.2-.208c0-.046-.22-.155-.207-.2.019-.061.2-.146.2-.207s-.217-.143-.208-.2a1.4,1.4,0,0,1,.2-.208c.043,0,.175.166.207.2l.207.2c-.061.073-.136.134-.2.207-.027.034-.2.168-.2.207s.178.166.208.2a1.88,1.88,0,0,1,.207.2c-.02.062-.15.159-.2.207l-.2.208Z" transform="translate(-86.837 -1.06)"/><path class="a" d="M314.324,676c-.067.015-.13.205-.2.207a1.058,1.058,0,0,1-.208-.2c-.013-.018.2-.178.2-.207a1.175,1.175,0,0,0-.208-.2c-.061-.019-.144-.2-.207-.2-.038,0-.166.178-.2.207a1.523,1.523,0,0,0-.2.207c-.011.017.206.17.208.2s-.17.175-.2.208c-.062.072-.134.135-.2.207l-.414-.394c.012-.067.2-.139.2-.207s-.216-.142-.207-.2.16-.152.2-.208a1.684,1.684,0,0,1,.2-.207l.2-.207c.068.011.14.2.207.2s.143-.216.2-.207.151.161.207.2a1.735,1.735,0,0,1,.207.2l.207.2c-.065.07-.131.138-.2.208Z" transform="translate(-121.364 -4.889)"/></g></svg>