<svg xmlns="http://www.w3.org/2000/svg" width="46.617" height="46.617" viewBox="0 0 46.617 46.617"><defs><style>.a{fill:#76bf4e;}</style></defs><g transform="translate(0 0)"><path class="a" d="M1738.086,535.265h-10.913a5.643,5.643,0,0,0-5.637,5.637v10.913a5.643,5.643,0,0,0,5.637,5.637h10.913a5.643,5.643,0,0,0,5.638-5.637V540.9A5.643,5.643,0,0,0,1738.086,535.265Zm-5.344,17.824a6.73,6.73,0,1,1,6.73-6.73A6.738,6.738,0,0,1,1732.742,553.089Zm7.123-12.311a1.6,1.6,0,1,1,1.6-1.6A1.6,1.6,0,0,1,1739.865,540.778Z" transform="translate(-1709.321 -523.083)"/><path class="a" d="M1728.781,538.152a4.311,4.311,0,1,0,4.31,4.31A4.314,4.314,0,0,0,1728.781,538.152Z" transform="translate(-1705.36 -519.186)"/><path class="a" d="M1739.646,530.081a23.308,23.308,0,1,0,23.309,23.308A23.308,23.308,0,0,0,1739.646,530.081Zm13.665,28.732a8.218,8.218,0,0,1-8.208,8.208H1734.19a8.218,8.218,0,0,1-8.208-8.208V547.9a8.217,8.217,0,0,1,8.208-8.208H1745.1a8.218,8.218,0,0,1,8.208,8.208Z" transform="translate(-1716.338 -530.081)"/></g></svg>