<svg xmlns="http://www.w3.org/2000/svg" width="15.625" height="15.625" viewBox="0 0 15.625 15.625"><defs><style>.a{fill:#4e5a62;}</style></defs><g transform="translate(0 0)"><path class="a" d="M1727.082,535.265h-3.658a1.891,1.891,0,0,0-1.89,1.89v3.658a1.891,1.891,0,0,0,1.89,1.89h3.658a1.891,1.891,0,0,0,1.89-1.89v-3.658A1.891,1.891,0,0,0,1727.082,535.265Zm-1.791,5.974a2.256,2.256,0,1,1,2.256-2.256A2.259,2.259,0,0,1,1725.291,541.239Zm2.387-4.126a.537.537,0,1,1,.537-.537A.537.537,0,0,1,1727.679,537.113Z" transform="translate(-1717.441 -531.182)"/><path class="a" d="M1725.914,538.152a1.445,1.445,0,1,0,1.444,1.445A1.446,1.446,0,0,0,1725.914,538.152Z" transform="translate(-1718.064 -531.795)"/><path class="a" d="M1724.15,530.081a7.813,7.813,0,1,0,7.813,7.813A7.813,7.813,0,0,0,1724.15,530.081Zm4.58,9.63a2.754,2.754,0,0,1-2.751,2.751h-3.658a2.754,2.754,0,0,1-2.751-2.751v-3.658a2.754,2.754,0,0,1,2.751-2.751h3.658a2.754,2.754,0,0,1,2.751,2.751Z" transform="translate(-1716.337 -530.081)"/></g></svg>