<svg xmlns="http://www.w3.org/2000/svg" width="33" height="33" viewBox="0 0 33 33"><defs><style>.a{fill:#f8f8f8;}.b{fill:#76bf4e;}</style></defs><g transform="translate(-278 -5185)"><circle class="a" cx="16.5" cy="16.5" r="16.5" transform="translate(278 5185)"/><path class="b" d="M1691.984,581.515a4.955,4.955,0,0,0-4.255,7.511c.167.3,3.8,5.494,3.8,5.494a.551.551,0,0,0,.906,0s3.636-5.2,3.8-5.494a4.956,4.956,0,0,0-4.256-7.511Zm0,6.621a1.655,1.655,0,1,1,1.655-1.655A1.655,1.655,0,0,1,1691.984,588.136Z" transform="translate(-1397.484 4613.364)"/></g></svg>