<svg xmlns="http://www.w3.org/2000/svg" width="33" height="33" viewBox="0 0 33 33"><defs><style>.a{fill:#f8f8f8;}.b{fill:#76bf4e;}</style></defs><g transform="translate(-1304 -5185)"><circle class="a" cx="16.5" cy="16.5" r="16.5" transform="translate(1304 5185)"/><g transform="translate(-318.927 4612.053)"><path class="b" d="M1639.427,583.014c-5.272,0-7.353,1.627-7.353,3.983a4,4,0,0,0,.1.868.613.613,0,0,0,.808.443l2.361-.859a.613.613,0,0,0,.4-.576v-1.1a.613.613,0,0,1,.613-.613h6.127a.613.613,0,0,1,.613.613v1.1a.614.614,0,0,0,.4.576l2.362.859a.613.613,0,0,0,.808-.443,4,4,0,0,0,.1-.868C1646.78,584.641,1644.7,583.014,1639.427,583.014Z"/><path class="b" d="M1645.387,592.961l-2.448-3.06a1.317,1.317,0,0,1-.288-.823v-.457a.613.613,0,0,0-.613-.613h-3.677a.613.613,0,0,0-.613.613v.457a1.314,1.314,0,0,1-.289.823l-2.448,3.06a4.292,4.292,0,0,0-.94,2.679v.946a1.226,1.226,0,0,0,1.225,1.225h9.8a1.225,1.225,0,0,0,1.225-1.225v-.946A4.29,4.29,0,0,0,1645.387,592.961Zm-5.187,3.013a2.451,2.451,0,1,1,2.451-2.45A2.451,2.451,0,0,1,1640.2,595.974Z" transform="translate(-0.773 -1.931)"/></g></g></svg>