<svg xmlns="http://www.w3.org/2000/svg" width="95.562" height="7.748" viewBox="0 0 95.562 7.748"><defs><style>.a{fill:#76bf4e;fill-rule:evenodd;}</style></defs><path class="a" d="M113.687,681.925l.159-.169c.039-.04.109-.146.16-.168.029-.013.134.16.168.16s.129-.18.16-.169c.052.018.128.122.168.16.023.022.167.13.168.159s-.137.145-.16.168l-.159.169c-.022.023-.131.167-.16.168s-.145-.137-.168-.159Z" transform="translate(-107.932 -676.184)"/><path class="a" d="M203.959,673.109c-.012-.055-.167-.105-.168-.16,0-.031.137-.142.16-.168.05-.059.108-.11.159-.168s.107-.112.16-.168.108-.146.16-.168c.029-.012.134.16.168.16.055,0,.1-.156.16-.168.012.054.166.105.168.16s-.161.113-.16.168.167.1.168.16c0,.029-.138.145-.16.168s-.131.167-.16.168c-.046,0-.125-.17-.168-.16s-.114.172-.16.168-.108-.145-.168-.159Z" transform="translate(-166.146 -670.167)"/><path class="a" d="M213.2,679.22c.01-.055.161-.114.16-.168s-.156-.105-.168-.16l.16-.168c.024-.025.127-.165.16-.167a1.213,1.213,0,0,1,.168.16c0,.046-.17.124-.159.168s.177.127.168.16c-.017.065-.136.1-.16.168-.054.012-.105.167-.16.168S213.256,679.229,213.2,679.22Z" transform="translate(-172.22 -674.23)"/><path class="a" d="M231.6,679.476l.336.318-.319.336-.168-.16c-.023-.022-.167-.131-.168-.159s.137-.145.159-.169Z" transform="translate(-183.908 -674.824)"/><path class="a" d="M225.534,671.936c.051-.058.109-.109.16-.168.022-.026.16-.137.16-.168,0-.054-.156-.105-.168-.159.054-.012.105-.167.16-.168s.113.15.168.16c.052-.011.107-.169.16-.168a1.126,1.126,0,0,1,.168.159c0,.046-.17.125-.16.168.015.063.145.1.168.16-.054.012-.1.167-.159.168s-.125-.169-.168-.159c-.063.015-.1.146-.16.168s-.1.166-.159.168S225.589,671.946,225.534,671.936Z" transform="translate(-180.194 -669.519)"/><path class="a" d="M234.386,679.714l.159-.168c.011-.012.156-.171.16-.168a.893.893,0,0,1,.168.16c0,.04-.139.131-.16.168a1.03,1.03,0,0,1-.16.168c-.022.024-.13.168-.159.168s-.145-.138-.168-.16-.17-.136-.168-.159a1.038,1.038,0,0,1,.159-.168C234.273,679.553,234.331,679.7,234.386,679.714Z" transform="translate(-185.702 -674.761)"/><path class="a" d="M241.034,679.721c-.022.024-.131.168-.16.169s-.145-.138-.168-.16-.165-.127-.168-.159.14-.148.16-.168.127-.165.16-.168.147.14.168.16.17.136.168.16S241.059,679.695,241.034,679.721Z" transform="translate(-189.888 -674.668)"/><path class="a" d="M237.7,670.529l.319-.336c.031-.033.116-.156.159-.168.023-.005.145.146.168.16s.131.16.168.16.115-.176.16-.168c.063.011.106.14.168.159-.01.055-.161.114-.16.168,0,.014.173.155.168.16-.025.023-.127.167-.16.168s-.142-.137-.168-.159-.118-.146-.168-.16-.119.167-.16.168-.115-.163-.168-.16-.1.153-.16.168-.1.16-.16.168a1.3,1.3,0,0,1-.168-.159C237.543,670.642,237.694,670.583,237.7,670.529Z" transform="translate(-187.954 -668.717)"/><path class="a" d="M247.514,679.552c-.054.012-.1.167-.16.169-.029,0-.145-.138-.168-.16s-.167-.131-.168-.16c0-.055.15-.113.16-.168.054-.012.1-.167.159-.168a.873.873,0,0,1,.168.16c.011.015-.16.145-.16.168C247.347,679.448,247.5,679.5,247.514,679.552Z" transform="translate(-194.075 -674.559)"/><path class="a" d="M257.82,672.193l-.168-.159c-.019-.019-.17-.136-.168-.16,0-.06.145-.109.16-.168l.16-.168c.019-.02.136-.17.16-.169.059,0,.109.145.168.16-.01.055-.161.114-.159.168,0,.035.178.13.168.16-.019.053-.121.127-.16.168Z" transform="translate(-200.837 -669.587)"/><path class="a" d="M260.7,670.751c.01-.055.161-.113.16-.168s-.167-.105-.168-.159.161-.114.16-.169c0-.032-.179-.132-.168-.16.022-.054.119-.125.16-.168l.319-.337c.035-.036.113-.152.159-.168a1.638,1.638,0,0,1,.168.16c0,.054-.15.113-.159.168.012.054.167.105.168.159,0,.031-.138.143-.159.168-.041.047-.136.11-.16.168s-.161.123-.16.168.179.13.168.16c-.019.052-.121.127-.16.168a1.146,1.146,0,0,1-.16.168C260.86,670.919,260.726,670.754,260.7,670.751Z" transform="translate(-202.906 -668.329)"/><path class="a" d="M262.563,671.586l.16-.168c.019-.02.136-.17.16-.168.048,0,.123.136.168.16a1.055,1.055,0,0,1,.168.159l.168.16c-.055.012-.105.166-.16.168s-.125-.17-.168-.16-.133.177-.16.168c-.051-.018-.128-.122-.168-.16Z" transform="translate(-204.118 -669.51)"/><path class="a" d="M277.114,677.857c-.054.013-.1.167-.16.168-.029,0-.145-.138-.168-.159s-.168-.131-.168-.16c0-.054.15-.113.16-.168.054-.012.1-.167.16-.168a.861.861,0,0,1,.168.159c.011.015-.16.145-.159.168C276.947,677.752,277.1,677.8,277.114,677.857Z" transform="translate(-213.199 -673.464)"/><path class="a" d="M307.192,675.334c-.01.055-.161.113-.16.168,0,.034.179.13.168.16-.019.052-.121.127-.16.168s-.106.142-.159.168c-.026.012-.137-.161-.168-.16-.055,0-.105.156-.16.168l-.168-.16c-.023-.021-.168-.131-.169-.159s.137-.146.16-.168c.054-.055.107-.112.16-.168.038-.041.108-.146.159-.168.029-.013.133.16.168.159s.115-.175.16-.168C307.088,675.185,307.131,675.315,307.192,675.334Z" transform="translate(-232.323 -672.045)"/><path class="a" d="M306.192,673.859c-.022.023-.131.167-.16.168s-.145-.137-.169-.16-.165-.126-.168-.159.14-.147.16-.168.126-.165.16-.168.147.14.168.159.17.136.168.16S306.217,673.832,306.192,673.859Z" transform="translate(-231.985 -670.881)"/><path class="a" d="M317.654,675.713l.336.319c.024.023.166.129.168.16,0,.053-.151.114-.159.168l-.168-.159c-.041-.039-.116-.141-.168-.16-.03-.011-.126.167-.16.168-.055,0-.113-.15-.168-.16.01-.055.161-.113.16-.168,0-.035-.179-.13-.168-.16.019-.052.121-.127.16-.168.018-.019.137-.17.159-.168a1.048,1.048,0,0,1,.168.159C317.815,675.6,317.664,675.658,317.654,675.713Z" transform="translate(-239.5 -672.182)"/><path class="a" d="M320.939,677.345l-.168-.16c-.02-.019-.17-.136-.168-.16,0-.06.145-.109.16-.168.054-.012.105-.167.16-.168a1.236,1.236,0,0,1,.168.159c0,.055-.162.114-.159.168s.166.1.168.159S320.949,677.29,320.939,677.345Z" transform="translate(-241.617 -673.024)"/><path class="a" d="M349.1,673.641l.168.159c.041.039.146.108.168.16.012.029-.161.133-.16.168a.941.941,0,0,0,.168.16c.042.019.125.161.168.159s.135-.145.16-.168c.045-.042.1-.142.159-.167s.113-.167.16-.168.116.165.168.16.1-.166.16-.168.113.15.167.159.114.161.168.16.1-.167.159-.168a1.146,1.146,0,0,1,.168.16c0,.055-.15.113-.159.168l-.16.168-.159.168c-.034.035-.114.154-.16.168-.015.005-.153-.144-.168-.159s-.139-.16-.168-.16-.138.145-.159.168-.135.169-.16.169-.142-.135-.168-.16-.144-.162-.168-.159-.146.177-.16.167a1.5,1.5,0,0,1-.169-.159l-.168-.159c-.02-.02-.17-.136-.168-.16,0-.055.162-.114.159-.168s-.166-.1-.168-.159.15-.113.159-.168Z" transform="translate(-259.821 -671.055)"/><path class="a" d="M139.449,673.59c-.055-.009-.113-.161-.168-.159-.022,0-.147.177-.16.168s-.167-.136-.168-.159.138-.143.16-.168.152-.124.16-.168-.163-.115-.168-.16l-.159.168c-.039.042-.108.146-.16.168-.029.012-.134-.16-.168-.16s-.112.149-.16.168c-.031.012-.132-.161-.168-.16s-.124.146-.16.168a1.153,1.153,0,0,0-.16.168c-.026.028-.124.163-.16.168s-.148-.14-.168-.159a1.011,1.011,0,0,0-.168-.159c-.039-.021-.127-.161-.168-.16s-.124.145-.159.168a1.1,1.1,0,0,0-.16.169c-.02.021-.133.169-.16.168s-.143-.136-.168-.159a.877.877,0,0,0-.168-.16c-.042-.019-.124-.16-.168-.16s-.105.156-.16.168-.1.167-.159.168-.119-.167-.168-.16-.118-.161-.168-.159c-.03,0-.134.145-.159.168s-.141.172-.159.168c-.044-.01-.135-.128-.168-.16a1.269,1.269,0,0,0-.168-.16c-.034-.021-.13-.161-.167-.159s-.13.179-.16.168c-.052-.02-.127-.121-.168-.16-.021-.02-.142-.161-.168-.159s-.136.143-.16.168l-.159.168c-.041.043-.107.143-.16.168-.027.012-.136-.161-.168-.16-.055,0-.1.166-.16.168s-.114-.161-.168-.16c-.031,0-.135.145-.16.168s-.129.168-.16.168-.144-.137-.168-.159c-.041-.039-.146-.109-.168-.16-.013-.029.16-.134.159-.168a1.176,1.176,0,0,0-.168-.16c-.056,0-.113-.161-.168-.16s-.124.145-.16.168a1.125,1.125,0,0,0-.159.168c-.027.029-.123.162-.16.168-.022,0-.149-.142-.168-.16-.041-.039-.116-.14-.168-.16-.03-.011-.125.167-.16.168-.052,0-.116-.164-.168-.16-.033,0-.135.143-.16.168-.039.041-.108.146-.159.169-.029.012-.134-.161-.168-.16-.054,0-.106.168-.16.168s-.113-.161-.168-.159c-.034,0-.13.179-.159.168-.052-.019-.128-.121-.168-.16-.022-.02-.142-.161-.168-.159s-.137.143-.16.168-.136.17-.16.168c-.044,0-.128-.17-.168-.16s-.105.167-.159.168-.125-.169-.168-.16c-.061.014-.1.159-.16.169s-.119-.161-.168-.16-.115.176-.159.168-.142-.17-.168-.159c-.05.021-.122.128-.16.168s-.126.165-.159.168-.148-.14-.168-.159-.139-.16-.168-.16-.137.145-.16.168-.133.168-.159.168-.144-.136-.168-.16-.139-.16-.168-.16c-.055,0-.113-.161-.168-.16s-.124.145-.16.168a1.075,1.075,0,0,0-.16.168c-.016.017-.143.171-.16.168-.044-.01-.134-.128-.168-.16a1.1,1.1,0,0,0-.168-.16c-.037-.021-.128-.16-.168-.16-.016,0-.154.174-.16.169-.023-.022-.167-.131-.168-.16,0-.046.17-.125.16-.168a.98.98,0,0,0-.168-.16,1.225,1.225,0,0,0-.16.168c0,.034.179.13.168.159-.019.052-.121.127-.16.168s-.108.147-.159.169a1.749,1.749,0,0,1-.168-.16c0-.046.169-.124.159-.168a1.432,1.432,0,0,0-.168-.16.977.977,0,0,0-.16.168,1.094,1.094,0,0,0,.168.16c-.054,0-.106.167-.16.168-.031,0-.142-.137-.168-.159s-.132-.157-.168-.16c-.056,0-.112-.161-.168-.159s-.105.155-.159.168-.105.167-.16.168-.122-.168-.168-.16-.1.167-.16.168-.124-.17-.168-.16-.112.171-.16.168-.142-.135-.168-.16-.116-.14-.168-.16c-.03-.011-.126.167-.16.168-.052,0-.116-.146-.168-.16s-.11-.156-.168-.159-.108.167-.159.168-.114-.161-.169-.16-.1.167-.159.168c-.036,0-.137-.172-.168-.16-.051.021-.122.129-.16.168l-.16.169c-.02.02-.134.168-.159.167s-.143-.135-.168-.16a1,1,0,0,0-.168-.159c-.041-.02-.125-.161-.168-.16s-.135.145-.16.168-.11.153-.16.168-.127-.161-.168-.159-.106.168-.159.167c-.031,0-.144-.136-.168-.159s-.134-.158-.168-.16c-.056,0-.112-.161-.168-.159s-.105.155-.16.168-.105.167-.16.168-.127-.171-.168-.159-.105.166-.159.168c-.034,0-.139-.172-.168-.16-.051.022-.121.127-.16.168s-.126.164-.16.168-.148-.14-.168-.16-.145-.162-.168-.159c-.056.007-.1.167-.16.168s-.113-.161-.168-.16c-.031,0-.135.145-.159.168s-.137.171-.16.168-.139-.132-.168-.16-.144-.162-.168-.16-.151.175-.16.168-.167-.133-.168-.159c0-.046.17-.125.16-.168a.938.938,0,0,0-.168-.159,1.205,1.205,0,0,0-.159.168c0,.034.179.13.168.16-.019.052-.121.127-.16.168-.024.026-.127.165-.159.168s-.147-.14-.168-.159a.955.955,0,0,0-.168-.16c-.041-.019-.125-.16-.168-.159s-.135.144-.16.168-.11.152-.16.168-.127-.161-.168-.16-.121.178-.159.168-.133-.126-.168-.16l-.168-.159a1.047,1.047,0,0,0-.168-.16c-.02-.011-.133.167-.16.168s-.142-.138-.168-.159-.142-.163-.168-.16-.134.142-.16.168l-.16.168a1.531,1.531,0,0,1-.16.168c-.013.01-.147-.16-.168-.16a1.283,1.283,0,0,0-.16.168,1.2,1.2,0,0,0,.168.159c-.056.008-.1.167-.159.168-.031,0-.142-.137-.168-.159-.043-.037-.115-.142-.168-.16-.033-.01-.123.167-.16.168s-.142-.138-.168-.16-.14-.161-.168-.16-.137.144-.16.168l-.159.168c-.037.038-.111.149-.16.168-.032.013-.131-.16-.168-.159s-.116.176-.16.169-.142-.17-.168-.16c-.05.02-.122.128-.16.168l-.159.168c-.039.041-.109.146-.16.168-.029.013-.134-.161-.168-.159-.055,0-.1.164-.16.168a1.178,1.178,0,0,1-.168-.159c0-.046.169-.125.159-.168a.783.783,0,0,0-.168-.16c-.046-.018-.12-.161-.168-.16-.031,0-.135.145-.16.168s-.11.153-.16.168-.127-.161-.168-.16-.1.162-.16.168-.116-.161-.168-.159-.116.175-.159.168c-.06-.011-.109-.156-.168-.16s-.108.167-.16.168-.13-.171-.168-.16-.127.134-.16.168-.136.17-.16.168-.15-.17-.168-.16a1.021,1.021,0,0,0-.16.168l-.16.168-.16.168-.336-.319.159-.168c.019-.02.162-.145.16-.168-.008-.059-.151-.1-.168-.159l-.16.168a1.1,1.1,0,0,0-.16.168c-.021.038-.161.128-.159.168a1.954,1.954,0,0,0,.168.16c-.044.021-.114.167-.16.168s-.142-.137-.168-.16-.12-.148-.168-.159-.115-.161-.168-.159c-.031,0-.135.145-.159.168s-.111.152-.16.167-.127-.16-.168-.159-.131.179-.16.168c-.053-.02-.127-.12-.168-.16-.02-.019-.17-.136-.168-.16s.167-.159.16-.169-.143-.16-.168-.159-.13.179-.16.168c-.052-.019-.127-.121-.168-.159s-.132-.157-.168-.159c-.056-.005-.113-.161-.168-.159-.04,0-.124.145-.16.168a1.1,1.1,0,0,0-.16.168.949.949,0,0,1-.159.168c-.023.012-.139-.16-.168-.16s-.135.145-.159.168c-.056.053-.1.115-.16.168l-.336-.319.16-.168c.015-.016.164-.152.16-.168a.962.962,0,0,0-.168-.159c-.055,0-.1.167-.16.168s-.113-.161-.168-.159c-.028,0-.139.145-.16.168-.007.008.168.143.168.16s-.137.142-.159.168-.131.166-.16.168a1.189,1.189,0,0,1-.168-.16c0-.046.169-.125.16-.168a.933.933,0,0,0-.168-.159c-.056-.005-.113-.161-.168-.16-.031,0-.135.145-.16.168-.041.039-.107.148-.16.168-.032.012-.131-.161-.168-.16s-.135.145-.16.168-.118.16-.16.168-.12-.161-.168-.16-.105.167-.159.168-.114-.161-.168-.16-.111.173-.16.168-.112-.161-.168-.16c-.034,0-.13.179-.16.168-.052-.019-.127-.121-.168-.16-.019-.018-.147-.164-.168-.16-.038.007-.132.139-.16.168l-.16.168-.16.168c-.035.038-.111.151-.159.168s-.13-.161-.168-.16-.116.176-.16.168c-.064-.011-.1-.147-.168-.159-.043-.009-.114.167-.16.168s-.142-.137-.168-.16-.15-.165-.168-.159c-.043.011-.128.134-.159.168l-.16.169c-.027.028-.124.162-.16.168s-.147-.142-.168-.16-.137-.16-.168-.16-.142.179-.16.168a1.094,1.094,0,0,1-.168-.16l-.168-.159-.168-.16c-.038-.036-.151-.112-.168-.16s.161-.13.16-.168-.176-.116-.168-.159c0-.026.17-.15.16-.168a.919.919,0,0,0-.168-.16l-.168-.16-.168-.16c-.028-.027-.162-.123-.168-.16a1.333,1.333,0,0,1,.16-.168.977.977,0,0,1,.168.16c-.011-.038.161-.126.16-.168a1.306,1.306,0,0,0-.168-.159c-.021,0-.148.177-.159.168a1.545,1.545,0,0,1-.168-.159l-.168-.16c-.028-.027-.162-.123-.168-.16s.141-.149.16-.168a1.1,1.1,0,0,0,.159-.168c.021-.037.161-.128.16-.168s-.179-.127-.168-.159c.017-.051.122-.129.159-.168.019-.02.162-.145.16-.168s-.171-.158-.168-.16c.03-.023.124-.167.16-.168s.125.17.168.16.133-.178.16-.168c.051.018.128.121.168.159s.133.156.168.16.141-.148.159-.168.131-.167.16-.168.145.138.168.16.143.162.167.159.135-.141.16-.168.109-.146.16-.168c.029-.013.134.161.168.159.052,0,.109-.151.16-.168s.127.16.168.16.135-.145.16-.168.127-.167.159-.167c.054,0,.114.161.168.16s.116-.176.16-.169.109.157.168.16.112.161.168.16c.031,0,.135-.145.16-.168s.136-.171.16-.168.139.132.168.159a1.4,1.4,0,0,0,.168.16c.045.029.117.15.168.16s.114-.167.16-.168.136.172.168.16c.049-.018.122-.129.159-.168l.16-.168c.023-.025.128-.166.16-.168s.147.139.168.16.144.162.168.159c.043-.005.118-.176.159-.168s.114.161.168.16.116-.176.159-.169.128.168.168.16.131-.138.159-.168.136-.17.16-.168.146.171.168.16c.055-.028.117-.123.16-.168.025-.026.126-.164.16-.168s.148.14.168.16.139.16.168.159.138-.145.16-.167.134-.169.16-.168c.056,0,.112.161.168.159.035,0,.13-.179.16-.168.052.019.127.12.168.16.018.017.148.164.168.159.038-.007.131-.138.159-.168l.159-.168.16-.168c.032-.034.115-.155.159-.168.016,0,.152.144.168.159s.145.162.168.159c.06-.007.1-.159.16-.168s.1-.167.16-.168.115.163.168.16.1-.167.16-.168.113.161.168.16.105-.167.16-.169c.035,0,.139.172.168.16.051-.021.121-.128.16-.168l.16-.169c.022-.023.13-.167.16-.168a1.161,1.161,0,0,1,.168.16c0,.046-.17.125-.16.168a.752.752,0,0,0,.168.159c.036.021.128.161.168.159s.116-.176.16-.168c.02,0,.157.167.168.159a.9.9,0,0,0,.16-.168,1.217,1.217,0,0,0-.168-.16c.056,0,.1-.166.16-.168.04,0,.131.138.168.16a1.076,1.076,0,0,1,.168.159,2,2,0,0,0,.168.16.9.9,0,0,0,.16-.168c0-.04-.145-.124-.168-.16a1.114,1.114,0,0,0-.168-.16c-.019-.018-.147-.163-.168-.159.056-.01.1-.167.16-.168.04,0,.131.139.168.16a1.057,1.057,0,0,1,.167.16c.028.026.132.156.168.159.056.006.112.161.168.16a1.312,1.312,0,0,0,.16-.168,1.6,1.6,0,0,0-.169-.16c.047-.019.111-.167.16-.168s.125.169.168.16.1-.167.16-.168.114.161.168.16.115-.176.159-.168.131.169.168.16.129-.136.16-.168.136-.17.16-.168.146.17.168.159a.9.9,0,0,0,.159-.168c.021-.022.133-.169.16-.169s.144.137.168.16.144.162.168.16c.055-.007.1-.168.16-.168s.113.161.168.16c.037,0,.126-.179.159-.168.049.016.13.123.168.159l.168.16c.041.039.116.14.168.16.03.011.125-.167.16-.169.055,0,.113.151.168.16l.319-.336.16-.168.159-.168a1.694,1.694,0,0,1,.16-.168,1.793,1.793,0,0,0,.16-.168c.038-.041.108-.146.159-.168.029-.012.134.161.168.159.055,0,.105-.155.16-.167.021-.005.147-.176.16-.168a1.3,1.3,0,0,1,.168.159c.02.019.169.136.168.16s-.164.164-.16.168c.026.022.137.16.168.16.056,0,.1-.161.16-.168s.1-.167.16-.168c.031,0,.143.138.168.16a2.2,2.2,0,0,0,.168.16.9.9,0,0,0,.16-.168c0-.035-.179-.13-.168-.16.019-.052.121-.127.16-.168.022-.023.13-.168.159-.168s.145.137.168.16.145.163.168.16c.044-.006.119-.176.16-.169s.114.161.168.16.115-.176.16-.168c.062.011.106.152.168.16s.112.161.168.159c.031,0,.135-.145.159-.168s.131-.168.16-.168.144.137.168.16c.041.038.116.14.168.159.03.011.125-.167.16-.168.055,0,.112.159.168.16s.107-.167.16-.168.125.17.168.16.108-.169.159-.168.113.161.168.159.1-.167.16-.168.114.161.168.16.107-.17.16-.169.113.161.168.16.116-.176.16-.168.127.168.168.16.131-.138.16-.168.136-.169.159-.168.146.171.168.16a.891.891,0,0,0,.16-.168c.023-.024.13-.167.16-.168s.145.138.168.16.131.155.168.16c.056.006.113.161.168.16s.115-.176.16-.168c.059.01.108.156.168.16s.108-.167.16-.169.123.169.168.16.131-.137.16-.168.108-.146.159-.168c.029-.012.134.16.168.159.054,0,.105-.167.16-.168.032,0,.141.137.168.16s.136.16.167.159.135-.145.16-.168.135-.17.16-.168.141.133.168.16.145.162.168.159c.043-.006.119-.176.16-.168s.114.161.168.159.116-.176.16-.168c.059.01.109.156.168.16s.112.161.168.159.116-.176.16-.168c.06.01.108.156.168.159s.108-.167.16-.168.119.167.168.16.1-.167.16-.168c.034,0,.139.172.168.16.051-.022.121-.127.159-.168.02-.021.134-.169.16-.168s.143.136.168.16.145.163.168.16.137-.178.16-.168a.884.884,0,0,1,.168.16c.02.02.143.162.168.159s.134-.142.159-.168.136-.17.16-.168.138.171.168.16c.049-.019.123-.129.16-.168.019-.019.136-.17.16-.168.041,0,.132.17.168.159.052-.015.107-.167.16-.168s.125.169.168.16c.063-.014.1-.148.159-.168s.108-.167.16-.168.125.17.168.16.1-.163.16-.168a1.256,1.256,0,0,1,.168.16c0,.046-.17.125-.16.168a.763.763,0,0,0,.168.16,2.25,2.25,0,0,0,.16-.168c.022-.023.131-.167.159-.168s.145.138.168.16a1.357,1.357,0,0,0,.168.159c.047-.016.124-.131.159-.168l.16-.168c.023-.024.13-.167.16-.168.054,0,.114.161.168.159s.1-.166.159-.168.114.161.168.16c.033,0,.131-.179.16-.168.053.021.126.12.168.159l.168.16c.025.024.135.158.168.16s.14-.147.16-.169l.16-.168c.027-.029.122-.162.16-.168.021,0,.149.142.168.159.041.04.116.141.168.16.029.011.125-.167.16-.168.053,0,.116.164.168.159.032,0,.136-.143.159-.168l.16-.168c.036-.038.111-.151.16-.168a1.4,1.4,0,0,1,.168.16c.026.024.136.158.168.159s.139-.146.16-.168l.159-.168c.03-.031.12-.16.16-.168.019,0,.15.143.168.159s.139.16.168.16.138-.145.16-.168.125-.164.16-.168a1.315,1.315,0,0,1,.168.16,1.2,1.2,0,0,1-.16.168c.053,0,.114.161.168.159s.1-.156.159-.169.105-.166.16-.168.115.162.168.16.114.161.168.16c.031,0,.135-.145.16-.168s.116-.159.16-.168.122.164.168.159.116.161.168.16.105-.156.159-.168.105-.167.16-.168.122.168.168.16.1-.167.159-.168.125.169.168.159.121-.175.16-.168a1.036,1.036,0,0,1,.168.159c0,.046-.169.125-.159.168a.757.757,0,0,0,.168.16c.019.01.133-.167.16-.168.054,0,.114.161.168.16s.114.161.168.159a1.214,1.214,0,0,0,.159-.168,2.1,2.1,0,0,0-.167-.16c.04-.022.116-.167.159-.168s.125.169.168.159c.059-.014.1-.161.16-.168s.116.161.168.16.109-.151.16-.168.108-.167.16-.168c.034,0,.139.172.168.16.051-.022.121-.127.16-.168s.125-.164.16-.168.148.141.168.159.127.153.168.16.114.161.168.16.1-.167.16-.168.113.161.168.159.105-.167.159-.168.106-.167.16-.168c.031,0,.143.137.168.159s.147.164.168.16c.04-.008.131-.137.16-.168s.136-.17.16-.168.146.171.168.16c.054-.028.117-.123.16-.168.028-.029.122-.161.16-.169.021,0,.15.142.168.16s.139.16.168.159.138-.145.16-.168.129-.167.16-.169.146.139.168.16.136.159.168.159c.056,0,.113.161.168.16s.116-.176.16-.168.142.171.168.159c.05-.02.122-.128.16-.167.022-.024.131-.167.16-.169.055,0,.114.161.168.16.035,0,.13-.179.16-.168.052.019.127.121.168.159.017.016.151.164.168.16.042-.011.128-.135.16-.168l.16-.169a.991.991,0,0,1,.16-.168c.039-.022.117-.166.159-.167s.114.15.168.159c0-.037.171-.136.16-.168.017.048.13.124.168.16s.167.131.168.159-.138.146-.16.169-.155.171-.159.168c.034.021.131.16.168.159s.116-.175.16-.168.141.17.168.16c.049-.019.122-.13.159-.169l.16-.168c.019-.02.136-.169.16-.168s.141.134.168.16l.168.16c.019.018.146.163.168.16s.133-.14.159-.168l.16-.168.16-.168c.028-.03.121-.161.16-.168s.121.161.168.16.13-.179.16-.168c.052.019.127.12.168.16s.116.14.168.159c.03.011.125-.167.159-.168s.142.138.168.16.134.159.168.16.139-.146.159-.168.136-.169.16-.168c.051,0,.119.166.168.16s.117.161.168.159a1.272,1.272,0,0,0,.159-.168,1.054,1.054,0,0,0-.168-.16c.055,0,.105-.167.16-.169s.113.161.168.16.1-.167.159-.169.119.145.168.16.131.124.168.16.116.14.168.159c.03.011.125-.167.16-.167.056,0,.112.156.168.159.025,0,.141-.147.16-.168l.16-.168c.028-.03.121-.16.159-.168.02,0,.15.143.168.159s.145.163.168.16c.055-.007.105-.168.16-.169s.113.161.168.159c.031,0,.134-.179.16-.168a.927.927,0,0,1,.168.159c0,.046-.17.125-.16.168a.756.756,0,0,0,.168.16c.019.01.133-.167.16-.168.054,0,.114.161.168.159a1.153,1.153,0,0,0,.16-.168c0-.034-.179-.13-.168-.16.019-.052.12-.127.159-.168.025-.026.125-.163.16-.168s.148.14.168.159.145.162.168.16c.055-.007.1-.168.16-.168s.113.161.168.16.115-.175.159-.168.113.161.168.159c.035,0,.13-.179.159-.168.052.019.127.121.168.159.022.021.142.161.168.16s.136-.143.16-.168.136-.17.16-.168.147.171.168.16a.9.9,0,0,0,.159-.168c.031-.032.117-.158.16-.168s.123.161.168.16.1-.166.16-.168.114.161.168.16.108-.17.159-.168c.033,0,.143.135.168.16s.17.135.168.16a1.08,1.08,0,0,1-.159.168c.054,0,.114.161.168.16a1.25,1.25,0,0,0,.16-.168,2.009,2.009,0,0,0-.168-.159c.04-.022.116-.167.16-.168s.114.161.168.16.1-.166.159-.168.12.167.168.159.1-.167.159-.168c.034,0,.139.172.168.159.051-.022.121-.127.16-.168s.125-.163.16-.168c.05-.006.118.161.168.16.034,0,.13-.179.16-.168.052.019.127.121.168.159.023.022.139.16.168.16s.138-.145.16-.168c.039-.041.108-.146.16-.168.029-.012.133.161.168.16.053,0,.105-.168.159-.168s.113.161.168.16.116-.176.16-.168c.059.01.109.157.168.16s.113.161.168.159c.031,0,.135-.144.16-.168s.134-.171.159-.168.141.133.168.16.137.159.168.16c.056,0,.113.16.168.159.04,0,.124-.146.16-.168a1.106,1.106,0,0,0,.159-.168c.019-.02.136-.17.16-.168s.141.134.167.16l.168.159c.037.035.12.146.168.16s.117.161.168.159c.031,0,.135-.144.16-.168s.11-.152.159-.168.128.16.168.16.11-.173.16-.168c.035,0,.141.134.168.16s.116.14.168.159c.03.011.125-.167.16-.168.053,0,.114.162.168.16s.1-.167.159-.168c.035,0,.139.172.168.16.051-.022.121-.127.16-.168.022-.023.13-.168.16-.169.054,0,.114.161.168.16.035,0,.13-.179.16-.168.052.02.127.121.168.16s.129.154.168.16.112-.167.16-.168.125.169.168.16c.063-.015.1-.153.159-.169.042-.01.123.161.168.16s.135-.145.16-.168.139-.171.159-.168c.041.007.137.13.168.159l.168.16c.042.04.115.138.168.159s.121.161.168.16c.031,0,.135-.145.16-.168a1.638,1.638,0,0,1,.16-.168c.053.021.126.12.168.159.02.019.17.136.168.16s-.164.165-.16.168c.059.049.109.11.168.159l.319-.336a1.262,1.262,0,0,1,.16-.168c.034-.023.121-.167.16-.168s.125.169.168.159.135-.177.16-.168c.052.02.126.12.168.159s.145.109.168.16c.012.029-.161.133-.159.168a1.14,1.14,0,0,0,.168.16c.03,0,.137-.144.159-.168l.16-.169.16-.168c.027-.027.124-.162.16-.168s.149.141.168.159c.04.039.116.141.168.16.03.011.125-.167.159-.168.056,0,.113.157.168.159s.113.161.169.16c.03,0,.135-.145.16-.169s.141-.172.159-.168c.044.01.135.128.168.16a.924.924,0,0,0,.168.159c.041.02.125.161.168.16s.116-.176.16-.168c.064.011.1.147.168.159.043.008.114-.167.16-.168s.142.137.168.16.129.155.168.16a1.332,1.332,0,0,0,.16-.168c0-.017-.175-.153-.168-.16.021-.023.132-.167.16-.168.056,0,.113.155.168.16s.113.161.168.16c.031,0,.135-.145.159-.168s.136-.17.16-.168a1.062,1.062,0,0,1,.168.16c0,.013-.163.166-.159.168.03.022.133.161.168.16s.116-.176.16-.168.113.161.168.159.1-.167.16-.168.125.17.168.16.126-.177.159-.168.132.126.168.16.134.157.168.159c.056,0,.112.161.168.16.031,0,.135-.145.16-.168s.11-.153.16-.168.128.16.168.16.105-.155.159-.168.123.161.168.16.135-.145.16-.168.111-.152.16-.168.128.161.168.16.11-.172.16-.168.14.133.168.16.17.135.168.16a1.6,1.6,0,0,1-.16.168c.05.016.118.161.168.16s.105-.167.16-.168.114.161.168.159.1-.155.16-.168.122.161.168.159.135-.145.16-.168.13-.168.159-.168.144.137.168.16c.041.039.116.14.168.159.03.011.125-.167.16-.168.055,0,.111.154.168.159s.11-.166.159-.168.114.161.168.16.1-.167.16-.168.112.159.168.16.113.161.168.159.116-.176.16-.168.142.171.168.16c.05-.02.122-.128.159-.168.019-.02.136-.17.16-.168a1.092,1.092,0,0,1,.168.16,1.245,1.245,0,0,1-.16.168c.055,0,.113.161.168.159s.115-.176.16-.168c.059.01.108.156.168.16s.108-.167.159-.168.125.169.168.159.13-.137.159-.168.136-.17.16-.168.147.171.168.159a.894.894,0,0,0,.16-.168,1.342,1.342,0,0,1,.159-.168.935.935,0,0,1,.168.159c0,.055-.161.114-.159.168s.167.1.168.159c0,.022-.17.154-.159.168a.867.867,0,0,0,.167.16c.047,0,.116-.176.16-.168.063.011.106.14.168.16l.16-.168c.039-.041.108-.146.159-.168.029-.013.134.16.168.159s.114-.148.16-.168.111-.167.159-.168.139.172.168.159c.051-.021.121-.127.16-.168.024-.025.127-.165.159-.168s.147.14.168.159.144.162.168.16c.055-.007.1-.168.159-.168s.113.161.168.159c.029,0,.137-.179.16-.168a.931.931,0,0,1,.168.16,1.1,1.1,0,0,1,.168.159c.023.036.167.12.168.16,0,.019-.169.157-.16.168.051.058.116.1.168.159l.319-.336.16-.168c.026-.027.124-.163.159-.169s.149.142.168.16a.932.932,0,0,0,.168.16c.041.02.125.161.168.16s.135-.145.16-.168.11-.152.159-.168.128.16.168.159.113-.174.159-.168.139.132.168.16a1.485,1.485,0,0,0,.168.16c.033.021.131.16.168.16s.115-.176.16-.168.142.171.168.16c.05-.021.122-.128.16-.167a1.666,1.666,0,0,1,.16-.169c.053.023.125.119.168.16s.146.108.168.16c.012.029-.16.134-.16.168s.145.136.168.16.14.16.168.16c.046,0,.116-.176.16-.168s.123.13.168.159a1.417,1.417,0,0,1,.168.16l.168.16-.319.337c-.039.041-.109.146-.16.167-.029.013-.134-.16-.168-.159s-.115.148-.159.169c-.028.012-.134-.161-.168-.16s-.124.145-.16.168a1.112,1.112,0,0,0-.159.168c-.026.027-.125.164-.16.168-.05.006-.117-.161-.168-.159-.024,0-.144.178-.16.168a.853.853,0,0,1-.168-.159,2.006,2.006,0,0,1,.159-.168c-.041-.02-.125-.161-.168-.16s-.116.176-.16.168c-.059-.01-.108-.156-.168-.16s-.108.167-.159.168-.113-.152-.168-.16-.113-.161-.168-.16-.115.176-.16.168c-.059-.01-.108-.156-.168-.16s-.108.167-.16.168-.123-.168-.168-.159-.131.138-.159.168-.109.146-.16.168c-.029.013-.134-.16-.168-.159-.055,0-.105.167-.16.168s-.114-.161-.168-.16-.115.176-.16.168a.77.77,0,0,1-.168-.159c-.012-.019.16-.142.16-.168s-.172-.157-.168-.16c-.021.018-.16.144-.16.169,0,.046.176.115.168.159-.011.059-.156.108-.16.168s.167.108.168.159-.145.116-.16.168-.161.117-.16.168c0,.034.179.13.168.159-.019.052-.121.127-.159.168l-.16.168.337.319.159-.168c.04-.041.109-.146.16-.167.029-.013.133.16.168.159.055,0,.1-.167.159-.168s.114.161.168.16c.034,0,.13-.179.16-.168.052.019.126.12.168.16.016.015.153.164.168.159.045-.013.127-.133.16-.167l.16-.168.16-.168c.022-.024.129-.166.16-.168a1.227,1.227,0,0,1,.168.16c0,.046-.17.125-.16.168a.9.9,0,0,0,.168.16c.055.009.114.16.168.159.031,0,.135-.145.16-.168s.12-.161.159-.168.12.161.168.16.115-.176.16-.168.119.164.168.16.1-.167.16-.168.125.17.168.16c.059-.013.1-.161.159-.168s.117.161.168.16.111-.173.16-.168.112.161.168.159c.035,0,.13-.179.16-.168.052.019.127.12.168.159.019.019.145.163.168.16s.134-.141.159-.168l.16-.168c.02-.021.134-.169.16-.168s.143.135.168.159a1.358,1.358,0,0,0,.167.16c.048-.017.124-.131.16-.168l.16-.168c.025-.027.125-.164.16-.168.05-.006.117.161.168.159s.116-.175.16-.168a.772.772,0,0,1,.167.159c.012.019-.16.143-.159.168a1.443,1.443,0,0,0,.168.159c.045-.013.126-.133.159-.168l.16-.168c.037-.039.111-.149.16-.168.032-.012.131.161.168.16s.115-.176.159-.168c.02,0,.158.168.168.159a1.493,1.493,0,0,0,.16-.167c.019-.021.162-.145.16-.168s-.178-.137-.168-.16a.887.887,0,0,1,.16-.168c.024-.026.126-.164.159-.168.052-.005.116.161.168.16.035,0,.13-.179.16-.168.052.019.127.12.168.159s.131.156.168.16.111-.167.16-.168.125.169.168.159.126-.176.16-.168.133.126.168.16l.168.159c.039.037.118.143.168.16.033.01.123-.167.16-.168s.125.169.168.16c.019,0,.149-.176.159-.168s.168.135.168.159c0,.055-.161.114-.159.168s.167.1.168.159a2.214,2.214,0,0,1-.159.168c.042.019.123.16.168.159s.105-.167.16-.168.113.161.168.159.1-.166.16-.168.114.161.168.16.105-.167.16-.168.114.161.168.16.112-.174.16-.168a1.084,1.084,0,0,1,.168.159c0,.054-.15.113-.16.169-.055.012-.105.167-.159.167-.035,0-.14-.172-.168-.16-.051.022-.121.127-.16.168-.024.026-.127.165-.16.168s-.147-.14-.168-.16-.139-.16-.168-.159-.138.145-.159.168-.137.17-.16.168-.141-.133-.168-.159-.116-.14-.168-.16c-.03-.011-.125.167-.16.168-.055,0-.112-.159-.168-.159s-.106.167-.16.168-.124-.17-.168-.159c-.017,0-.153.174-.16.168-.023-.019-.168-.133-.168-.16,0-.054.161-.113.16-.168s-.167-.1-.168-.16.164-.115.16-.168-.167-.1-.168-.16.17-.125.16-.168a.826.826,0,0,0-.168-.159c-.053-.013-.115-.161-.168-.16s-.105.156-.16.168-.1.167-.16.168c-.021,0-.156-.17-.168-.16s-.16.144-.159.167.178.13.168.16c-.019.052-.121.128-.16.168s-.117.156-.16.168c-.017,0-.151-.144-.168-.16s-.145-.163-.168-.16c-.055.007-.1.168-.16.168s-.113-.161-.168-.16c-.028,0-.14.145-.16.168s-.16.138-.16.168.145.124.168.159a1.124,1.124,0,0,0,.168.16l.168.159c-.054.013-.1.167-.16.168s-.114-.161-.168-.16-.105.166-.16.168-.115-.163-.168-.159-.1.167-.16.168-.125-.17-.168-.159c-.062.014-.1.145-.16.168s-.1.136-.159.168c.055.01.113.161.168.16s.115-.176.16-.169c.059.011.108.156.168.16s.108-.167.16-.168.113.15.168.16l-.16.168c-.019.02-.136.17-.159.168-.059,0-.109-.145-.168-.16s-.114-.161-.168-.159c-.031,0-.136.145-.16.168s-.111.152-.159.168-.128-.16-.168-.159c-.056,0-.1.161-.16.168s-.117-.161-.168-.16-.105.167-.16.168-.114-.161-.168-.16-.107.17-.16.168-.113-.161-.168-.159-.116.176-.16.168-.11-.158-.168-.16-.112-.161-.168-.159c-.031,0-.135.145-.159.168s-.122.164-.159.168-.118-.161-.168-.16c-.035,0-.13.179-.16.168-.052-.02-.127-.121-.168-.16-.019-.018-.145-.163-.168-.16s-.133.14-.16.168l-.159.169c-.025.026-.127.165-.16.168-.052,0-.116-.161-.168-.16s-.1.167-.16.168-.113-.161-.168-.159-.116.176-.16.168-.137-.13-.168-.16-.116-.141-.168-.16c-.03-.011-.126.167-.16.168s-.131-.171-.168-.159-.126.133-.16.167l-.16.168c-.02.021-.134.169-.159.168s-.142-.135-.168-.16-.144-.162-.168-.16c-.055.007-.1.168-.159.169s-.113-.162-.169-.161c-.022,0-.145.178-.159.169a.9.9,0,0,1-.168-.159c0-.046.17-.125.159-.169a1.034,1.034,0,0,0-.168-.159c-.029,0-.138.145-.16.168l-.16.168-.159.168c-.038.04-.109.147-.16.168a1.581,1.581,0,0,1-.168-.159c-.019-.019-.144-.163-.168-.16-.058.008-.1.162-.16.168s-.1.166-.16.168-.124-.169-.168-.16-.119.174-.159.169-.138-.131-.168-.16-.144-.162-.168-.159-.137.178-.159.168a.9.9,0,0,1-.168-.16c-.023-.023-.138-.16-.168-.16-.055,0-.113-.161-.168-.16s-.124.145-.16.168a1.11,1.11,0,0,0-.16.168c-.036.038-.111.15-.16.168-.033.012-.131-.161-.168-.16s-.116.175-.16.168-.142-.17-.168-.16c-.051.021-.122.128-.16.168-.021.022-.134.169-.16.168s-.144-.136-.168-.16a1.113,1.113,0,0,0-.168-.16c-.037-.02-.128-.16-.168-.159s-.118.177-.159.168-.114-.161-.168-.16-.116.176-.16.168-.126-.13-.168-.16a1.74,1.74,0,0,1-.168-.159c-.04-.039-.145-.109-.168-.159-.012-.029.161-.134.16-.168s-.145-.127-.168-.16c-.045-.062-.122-.1-.168-.16l-.16.168c-.022.023-.131.168-.159.168s-.145-.138-.168-.159-.148-.163-.168-.16c-.038.007-.132.138-.16.168s-.136.17-.16.168-.138-.171-.168-.159c-.049.018-.122.129-.16.168-.019.02-.136.17-.16.168-.059,0-.109-.145-.168-.159-.013.058-.156.109-.16.168,0-.051-.166-.108-.168-.16,0-.031.138-.142.16-.169s.164-.146.159-.167c-.007-.039-.138-.131-.168-.16-.055-.053-.116-.1-.168-.159s-.115-.1-.168-.16c-.055.054-.1.115-.16.168-.024.024-.128.167-.159.168s-.15-.171-.168-.16a1.065,1.065,0,0,0-.16.168l-.159.168-.16.168-.319.336c-.025.026-.126.165-.16.168a1.258,1.258,0,0,1-.168-.159c0-.031.137-.142.16-.168a1.536,1.536,0,0,0,.16-.168.816.816,0,0,0-.168-.16c-.044-.007-.114.167-.16.168s-.114-.15-.168-.16l-.16.168c-.038.041-.139.116-.159.168-.011.03.167.126.168.16,0,.053-.146.116-.16.168s.167.119.169.16-.138.142-.16.168a1.8,1.8,0,0,1-.159.168s-.154-.152-.168-.16c-.062-.019-.105-.149-.168-.16s-.113-.161-.168-.159-.105.166-.16.168-.114-.161-.168-.16-.111.173-.16.168-.113-.161-.168-.16c-.035,0-.13.179-.16.168-.052-.019-.127-.121-.168-.159s-.134-.158-.168-.16c-.051,0-.108.167-.16.168-.034,0-.139-.172-.168-.159-.051.022-.121.127-.16.168-.023.024-.129.166-.159.168s-.146-.139-.168-.16-.145-.162-.168-.16c-.055.007-.1.168-.16.168s-.113-.161-.168-.16-.106.169-.159.168-.113-.161-.168-.159-.1.166-.159.168-.114-.161-.168-.16-.118.177-.16.169a1,1,0,0,1-.168-.16c0-.023.17-.153.16-.168a.9.9,0,0,0-.168-.16c-.041,0-.123.178-.16.168s-.116-.161-.168-.16-.116.175-.16.168-.111-.16-.168-.159a1.2,1.2,0,0,0-.16.168,1.419,1.419,0,0,0,.168.159c-.053.015-.107.167-.16.168-.031,0-.142-.138-.168-.16s-.147-.164-.168-.16c-.038.008-.131.138-.159.168s-.133.169-.159.168c-.056,0-.112-.161-.168-.159-.034,0-.13.179-.16.168-.052-.019-.127-.121-.168-.16s-.131-.155-.168-.16-.111.167-.16.168-.139-.172-.168-.16c-.051.022-.121.127-.159.168-.025.026-.127.165-.16.168s-.147-.14-.168-.159-.145-.163-.168-.16c-.056.007-.1.167-.16.168s-.114-.161-.168-.159c-.031,0-.135.145-.16.168s-.131.168-.16.168-.144-.136-.168-.159-.136-.159-.168-.16c-.056,0-.113-.161-.168-.159s-.105.167-.16.168-.114-.161-.168-.159-.107.154-.16.168-.106.167-.16.169-.125-.17-.168-.16-.107.168-.159.168-.113-.161-.168-.159-.116.175-.16.168c-.064-.011-.105-.143-.168-.159s-.116-.161-.168-.16-.116.176-.16.169-.117-.164-.168-.159c-.032,0-.136.143-.16.168l-.16.168c-.04.042-.108.145-.16.168-.028.012-.135-.16-.168-.16-.055,0-.1.167-.159.168s-.114-.161-.168-.16-.107.154-.16.168-.106.167-.16.168-.125-.169-.168-.159-.1.165-.16.168c-.027,0-.146-.139-.168-.16s-.136-.159-.168-.16c-.055,0-.113-.161-.168-.16s-.105.156-.159.168-.105.166-.16.168-.122-.168-.168-.159-.1.166-.159.168-.125-.17-.168-.16-.115.173-.16.168-.14-.133-.168-.159-.12-.145-.168-.16-.118-.161-.168-.16c-.031,0-.134.145-.159.168s-.14.172-.16.168c-.042-.008-.136-.129-.168-.159l-.168-.16c-.024-.022-.138-.16-.168-.16s-.138.146-.159.169l-.16.168-.16.168c-.032.034-.116.156-.16.169s-.125-.161-.168-.16-.105.167-.16.168-.114-.161-.168-.159-.107.17-.16.168c-.033,0-.143-.135-.168-.16s-.14-.16-.168-.159-.137.145-.16.168-.139.171-.16.168a1.04,1.04,0,0,1-.168-.159,1.217,1.217,0,0,1,.16-.168c-.057,0-.112-.161-.168-.159s-.115.175-.159.168c-.06-.01-.108-.156-.168-.159s-.109.167-.16.168c-.033,0-.142-.172-.168-.16-.052.024-.12.126-.16.169l-.16.168c-.021.022-.132.168-.159.168-.055,0-.113-.161-.168-.159s-.115.176-.159.168a.76.76,0,0,1-.168-.159c-.012-.019.16-.142.16-.168a1.083,1.083,0,0,0-.168-.16c-.019,0-.144.151-.16.168l-.159.168c-.031.033-.117.156-.159.168-.017,0-.151-.144-.168-.159s-.144-.163-.168-.16-.137.178-.16.168c-.056-.025-.124-.117-.169-.159-.019-.018-.144-.163-.167-.16s-.134.141-.16.168-.108.146-.16.168c-.029.013-.133-.16-.168-.16s-.114.148-.159.168-.112.166-.16.168-.139-.172-.168-.16c-.051.023-.121.127-.159.168-.022.023-.131.167-.16.168s-.145-.138-.168-.16a.946.946,0,0,0-.168-.159c-.04-.021-.125-.161-.168-.16s-.135.145-.16.167-.11.153-.16.168-.127-.16-.168-.16-.106.169-.16.168c-.031,0-.143-.136-.168-.159s-.135-.158-.168-.16c-.056,0-.113-.161-.168-.159s-.105.156-.16.168-.105.166-.16.168-.121-.167-.168-.159-.1.167-.16.168-.125-.17-.168-.16-.116.174-.16.168-.139-.132-.168-.16l-.168-.16c-.022-.02-.142-.161-.168-.16s-.136.143-.159.168l-.16.169c-.041.043-.107.142-.16.168-.026.012-.136-.16-.168-.16s-.115.176-.159.168-.125-.167-.168-.159-.133.139-.16.168-.136.17-.16.168c-.06,0-.109-.146-.168-.16l-.319.336-.336-.319.319-.336c.023-.024.16-.138.16-.168,0-.053-.157-.106-.168-.159l-.319.336c-.04.042-.107.144-.16.168-.028.012-.135-.161-.168-.16s-.116.176-.16.168c-.059-.01-.108-.156-.168-.16s-.108.167-.16.168-.129-.171-.168-.16-.127.134-.16.168a1.068,1.068,0,0,1-.159.168c-.036.023-.119.167-.16.169s-.113-.15-.168-.16-.12.177-.16.168a1.032,1.032,0,0,1-.168-.16c0-.054.161-.113.159-.168s-.167-.1-.168-.16c0-.021.17-.155.16-.169s-.144-.16-.168-.159c-.046,0-.116.176-.16.168-.063-.011-.106-.141-.168-.16l-.159.168c-.019.02-.163.144-.16.168s.175.151.168.159-.134.167-.16.169-.139-.173-.168-.16c-.051.022-.12.127-.16.168s-.122.161-.16.168-.119-.161-.168-.16-.115.176-.16.168-.124-.167-.168-.16a1.032,1.032,0,0,0-.16.168,1.4,1.4,0,0,0,.168.16c-.055.012-.1.166-.16.168a1.285,1.285,0,0,1-.168-.159c0-.013.161-.167.16-.168-.046-.029-.116-.151-.168-.16s-.114.167-.159.168-.112-.153-.168-.159-.113-.161-.168-.16c-.031,0-.135.145-.16.168s-.138.172-.159.168c-.039-.006-.138-.131-.168-.159a1.345,1.345,0,0,0-.168-.16c-.047.016-.124.131-.159.168l-.16.168Zm1.57-2.664c.033.063.141.094.168.159.013.03-.16.133-.159.168s.145.141.168.16.141-.168.159-.168c.04,0,.131.139.168.159a1.092,1.092,0,0,1,.168.16c.024.023.137.159.168.16s.138-.146.16-.168c.042-.045.105-.141.16-.168.024-.012.137.16.168.16s.124-.145.16-.168a1.069,1.069,0,0,0,.16-.168l.16-.167-.336-.319c-.055.054-.1.115-.16.168-.025.023-.129.167-.16.168s-.136-.172-.168-.159c-.052.02-.118.128-.159.168-.025.023-.128.168-.16.168-.055,0-.113-.16-.168-.159-.031,0-.142-.137-.168-.16s-.137-.16-.168-.159c-.055,0-.105.167-.159.168s-.112-.155-.168-.16a1.3,1.3,0,0,0-.16.168c0,.054.156.105.168.159Zm2.142.436c0,.032-.172.142-.16.168a.808.808,0,0,0,.168.159c.025.022.137.161.168.16s.142-.146.16-.169c0-.006-.161-.144-.168-.159l.159-.168.319-.336c.055.01.114.161.168.159s.115-.175.159-.168a.752.752,0,0,1,.168.16c.011.014-.16.145-.16.168,0,.054.167.105.168.16s-.161.113-.159.168.155.105.168.16c-.01-.042.156-.124.159-.168l.16-.168c.019-.02.163-.145.16-.168-.008-.06-.151-.1-.168-.16.01-.055.161-.114.16-.168a.893.893,0,0,0-.168-.16c-.023-.011-.13.167-.159.168s-.142-.137-.168-.159-.135-.16-.168-.16-.136.146-.159.169-.128.167-.16.168-.131-.171-.168-.16-.108.167-.16.168c-.034,0-.139-.172-.168-.159-.051.022-.121.127-.16.168l-.16.168C143.005,671.257,143.16,671.309,143.161,671.363Zm4.428.049a.962.962,0,0,0,.16-.168,1.415,1.415,0,0,0-.168-.16c-.044-.008-.114.167-.16.168s-.112-.158-.168-.16-.112-.161-.168-.159a1.1,1.1,0,0,0-.159.168c0,.029.145.137.168.16s.119.145.168.159.124-.176.159-.167C147.473,671.265,147.536,671.414,147.589,671.412Zm1.738-2.5c.055,0,.105-.156.16-.168.062.02.1.149.168.16.044.007.114-.167.159-.168s.136.172.168.16c.049-.019.123-.13.16-.168l.159-.168c.027-.028.123-.163.16-.168s.149.141.168.159.131.155.168.159c.022,0,.142-.149.159-.168s.131-.167.159-.168.145.138.169.16l.168.16.319-.336-.336-.319c-.059-.014-.108-.155-.168-.159-.024,0-.141.148-.16.168-.037.039-.11.148-.16.168s-.11.166-.159.168-.114-.161-.168-.16-.105.167-.16.169-.129-.139-.168-.159a1,1,0,0,1-.168-.16l-.168-.16c-.033-.032-.125-.15-.168-.16a1.162,1.162,0,0,0-.16.168c-.022.026-.16.137-.159.168,0,.055.156.105.168.16l-.16.168-.319.336C149.214,668.757,149.272,668.909,149.327,668.908Zm4.083-.6.159-.168c.038-.039.143-.117.16-.168a1.54,1.54,0,0,0-.168-.159c-.024-.025-.167-.129-.168-.16s.138-.141.16-.168c.048-.059.11-.109.159-.168l-.168-.159c-.026-.025-.133-.157-.168-.16a1.145,1.145,0,0,0-.16.168c-.008.044.167.114.168.16s-.144.119-.16.168c-.011.034.167.122.168.159,0,.055-.16.113-.16.169s.161.1.168.159c0,.024-.141.148-.159.168l-.16.168c-.022-.06-.154-.1-.168-.16-.01-.044.161-.122.159-.168a1.009,1.009,0,0,0-.168-.16c-.019,0-.143.151-.16.168l-.16.168a1.02,1.02,0,0,1-.159.168c-.018.011-.143-.158-.169-.16s-.141.148-.159.168l-.159.167c.063.023.1.144.168.16.039.009.117-.167.16-.168s.113.161.168.16.105-.167.16-.168.12.143.168.16.125.122.168.16c.026.021.137.16.168.159.047,0,.115-.175.16-.168-.064-.01-.107-.14-.168-.159Zm3.78.394.319-.336.168.16.16-.168.159-.168c.026-.027.157-.133.16-.168a1.336,1.336,0,0,0-.168-.16c-.041,0-.124.145-.16.168a1.127,1.127,0,0,0-.159.168l-.16.168-.168-.159c-.023-.022-.139-.16-.168-.159s-.138.145-.16.168l-.159.168Zm13.308,1.13c-.01-.043.161-.122.16-.168a.9.9,0,0,0-.168-.16c-.005,0-.147.156-.16.168s-.128.167-.16.167-.124-.141-.168-.159a1.963,1.963,0,0,0,.159-.168c0-.029-.145-.137-.168-.16s-.139-.16-.168-.16c-.054,0-.1.156-.16.168l.168.16c.04.038.146.108.168.159.012.029-.161.134-.16.168s.146.143.168.16.134.16.168.16c.054,0,.105-.167.16-.168s.113.161.168.159.105-.155.16-.168C170.644,669.931,170.512,669.9,170.5,669.833Zm4.268.217.159-.169-.168-.16a1.387,1.387,0,0,0-.168-.159c-.045-.029-.116-.151-.168-.16s-.114.167-.16.168-.113-.15-.168-.159l-.159.168a1.373,1.373,0,0,0-.16.168c-.029.046-.15.117-.159.169s.166.113.168.159-.15.114-.16.168l.336.32c.051-.058.109-.109.16-.168.022-.026.161-.137.16-.168s-.178-.146-.168-.159a1.222,1.222,0,0,1,.16-.168c.025-.023.128-.167.16-.168.051,0,.118.144.168.159a.954.954,0,0,1,.168.16c0,.023-.17.153-.16.168a.86.86,0,0,0,.168.16c.054,0,.105-.156.159-.168Z" transform="translate(-97.426 -666.333)"/><path class="a" d="M245.06,670.8c.055,0,.113.161.168.16s.112-.149.159-.168.122-.129.16-.168c.019-.02.136-.17.16-.168.059,0,.109.145.168.159l.336.319-.319.336-.168-.159c-.023-.022-.139-.16-.169-.16s-.137.145-.159.168-.138.171-.159.168c-.038,0-.14-.132-.168-.159s-.146-.163-.168-.16-.133.14-.16.168l-.159.168c-.037.039-.111.149-.16.168-.032.012-.131-.161-.168-.16s-.115.175-.159.168c-.063-.011-.107-.14-.168-.16-.055.012-.105.167-.16.168s-.113-.15-.168-.16l.319-.336.16-.169c-.012-.054-.167-.1-.168-.16,0-.031.137-.142.159-.168a1.17,1.17,0,0,1,.16-.168c.044.01.135.128.168.16l.168.16a1,1,0,0,0,.168.16" transform="translate(-191.865 -668.916)"/><path class="a" d="M252.606,669.861c.062.019.1.149.168.159-.045-.007-.113.167-.16.168-.03,0-.142-.137-.168-.159-.044-.038-.114-.142-.168-.16s-.118-.161-.168-.16-.1.167-.16.168-.114-.161-.168-.159-.12.177-.16.168c-.065-.016-.105-.137-.168-.16l.159-.167c.019-.02.136-.17.159-.168s.151.171.169.16a1.029,1.029,0,0,0,.159-.168l.16-.169c.017-.017.141-.171.16-.168a1.02,1.02,0,0,1,.168.16c0,.046-.169.125-.159.168.014.063.146.1.168.16l.16-.168c.019-.02.162-.144.159-.168-.007-.055-.167-.105-.168-.159s.161-.113.16-.168c0-.038-.178-.126-.168-.159.015-.049.161-.118.16-.168s-.176-.116-.168-.16a1.131,1.131,0,0,1,.16-.169c.035,0,.142.135.168.16l.168.159c-.049.059-.11.109-.159.168-.022.027-.161.136-.16.168s.145.135.168.16a1.528,1.528,0,0,1,.168.159c-.017.051-.122.129-.16.168l-.159.168Z" transform="translate(-196.941 -667.548)"/><path class="a" d="M314.018,675.812c-.054.012-.105.167-.159.168a.86.86,0,0,1-.168-.16c-.011-.015.16-.145.16-.168a.954.954,0,0,0-.168-.16c-.05-.015-.117-.161-.168-.159-.031,0-.135.145-.16.168a1.232,1.232,0,0,0-.16.168c-.009.013.167.138.169.159s-.138.142-.16.168c-.05.059-.109.11-.16.168l-.336-.319c.01-.054.161-.113.16-.168s-.175-.115-.168-.159.13-.123.159-.169a1.362,1.362,0,0,1,.16-.168l.159-.168c.055.009.114.161.168.159s.116-.176.16-.168.122.13.168.16a1.41,1.41,0,0,1,.168.159l.168.16-.159.168Z" transform="translate(-236.51 -671.936)"/></svg>