<svg xmlns="http://www.w3.org/2000/svg" width="398" height="398" viewBox="0 0 398 398"><defs><style>.a{fill:#76bf4e;}.b{fill:#fff;}</style></defs><g transform="translate(-209 -3550)"><circle class="a" cx="199" cy="199" r="199" transform="translate(209 3550)"/><g transform="translate(0.351 2421.608)"><path class="b" d="M399.334,1429.862c-6.523,0-13.045.032-19.568-.006-6.672-.039-10.421-2.821-12.661-9.17a171.731,171.731,0,0,1-9.082-46.857c-1.221-19.675.624-39.04,4.449-58.3a17.542,17.542,0,0,1,3.582-7.569c7.4-9.4,14.608-18.947,19.8-29.818,1.075-2.252,2.07-4.552,2.935-6.891a16,16,0,0,1,3.749-6.022,5.479,5.479,0,0,0-.078-8.249c-3.037-2.672-2.5-6.155-2.259-9.417.253-3.366-1.183-5.154-3.924-6.69-2.09-1.171-2.7-.669-3.346,1.418a53.117,53.117,0,0,1-14.276,23.024c-2.23,2.129-4.822,2.23-6.613.284-2-2.176-1.527-4.349.263-6.4.642-.737,1.362-1.4,2.024-2.124a46.115,46.115,0,0,0,10.493-18.2c1.26-4.225-1.055-7.606-5.459-8.042-9.887-.979-11.359-2.668-10.968-12.58.263-6.649,2.638-9.115,9.241-8.967,5.55.124,10.413-2.632,15.843-3.19,13.036-1.339,25.814-1.1,38.215,3.661a55.8,55.8,0,0,1,10.765,6.058c6.748,4.488,6.985,16.284.12,20.774-2.176,1.423-4.083,3.25-6.211,4.755a4.516,4.516,0,0,0-2.075,4.115c.055,4.308.253,8.462-2.653,12.419-1.468,2-1.34,5.645.318,8.092a18.914,18.914,0,0,1,3.2,10.07c.191,3.789.88,7.552,1.106,11.341.189,3.17-1.456,5.17-3.984,5.384s-4.341-1.536-4.712-4.727c-.5-4.314-.963-8.635-1.307-12.963-.2-2.508-1.284-3.77-3.888-3.722-3.695.067-7.393.076-11.087,0a3.906,3.906,0,0,0-4.163,2.9c-4.806,13.142-12.637,24.51-21.236,35.345a28.421,28.421,0,0,0-5.945,13.426,225.052,225.052,0,0,0-3.514,40.194c.182,18.224,2.557,36.161,8.586,53.5,1.107,3.184,2.75,4.467,6.14,4.427,12.174-.146,24.351-.042,36.526-.058,4.533-.006,5.06-.446,6.177-4.957q2.547-10.287,4.19-20.757a16.653,16.653,0,0,1,.72-3.172,4.125,4.125,0,0,1,5.142-2.9,3.887,3.887,0,0,1,3.28,4.573c-1.39,9.682-3.006,19.353-6.048,28.664-1.682,5.148-6.028,7.225-11.251,7.3C413.032,1429.93,406.183,1429.859,399.334,1429.862Z" transform="translate(0)"/><path class="b" d="M516.793,1468.5a115.862,115.862,0,0,0-10.211-20.736,46.1,46.1,0,0,1-7.291-19.458c-2.308-17.634-11.3-32.238-23.176-45.1-16.042-17.371-35.51-29.856-57.03-39.33-2.055-.9-4.056-1.718-6.039.145-2.038,1.915-1.538,4.065-.707,6.314,7.846,21.254,18.156,41.152,32.556,58.76,12.739,15.577,27.773,28.114,47.1,34.8a7.038,7.038,0,0,1,3.595,3.125,137.314,137.314,0,0,1,12.477,23.23c.924,2.243,2.266,3.97,4.935,4.111C516.212,1474.375,518.025,1471.674,516.793,1468.5ZM424.5,1357.353s50.312,55.584,60.7,72.624C485.2,1429.977,436.875,1383.915,424.5,1357.353Z" transform="translate(-18.759 -47.796)"/></g></g></svg>