<svg xmlns="http://www.w3.org/2000/svg" width="398" height="398" viewBox="0 0 398 398"><defs><style>.a{fill:#76bf4e;}.b{fill:#fff;}</style></defs><g transform="translate(-761 -3550)"><circle class="a" cx="199" cy="199" r="199" transform="translate(761 3550)"/><g transform="translate(-280.334 2403.613)"><path class="b" d="M1363.936,1320.881c-2.314,5.838-4.368,10.7-7.355,15.12a61.484,61.484,0,0,1-14.565,15.092,11.005,11.005,0,0,1-3.211,1.663c-1.866.578-3.829.955-5.4-.774s-.578-3.428.225-5.039c3.371-6.757,5.411-13.979,7.336-21.226a18.283,18.283,0,0,0,.339-5.773c-.146-2.259-1.342-3.655-3.8-4.131-5.268-1.018-7.564-3.767-7.61-8.613-.051-5.391,2.219-8.267,7.665-9.346a4.714,4.714,0,0,0,3.5-2.229c1.339-2.215,3.4-2.788,5.913-2.681,15.5.657,31.011.5,46.514.1,6.737-.175,11.275,3.179,14.469,8.625a29.975,29.975,0,0,1,4.379,12.977c.32,4.23-.85,6.114-4.966,6.226-2.876.079-3.82,1.094-4.377,3.923-.552,2.8-3.291,4.932-2.758,8.344.3,1.925.627,3.208,2.563,4.274,12.109,6.669,17.9,17.506,18.629,30.865,1.662,30.513.378,61.066.655,91.6.031,3.449.125,7.168-2.62,9.917a11.071,11.071,0,0,1-8.21,3.255c-17.7-.046-35.4.025-53.092-.035-8.021-.027-11.821-3.878-11.823-11.851-.008-25.213-.243-50.429.159-75.636.219-13.758,5.036-26.272,13.1-37.468a54.573,54.573,0,0,1,3.781-4.876c5.368-5.91,5.8-9.778,1.963-17.074C1364.682,1324.881,1364.576,1323.367,1363.936,1320.881Zm50.1,103.08c0-12.367.015-24.735-.028-37.1,0-.989.406-2.991-.681-2.8-2.974.529-6.036-1.175-8.45-.419-4.548,1.426-8.9-.364-13.417.38-3.255.536-3.913,1.292-4.135,4.169-1.3,16.825-4.062,33.372-10.236,49.183a119.079,119.079,0,0,1-12.071,22.339c-1.934,2.918-4.681,3.261-6.22,1.061-1.192-1.7-.493-3.253.544-4.686a97.956,97.956,0,0,0,10.123-17.206c7.6-16.925,9.554-35.13,11.707-53.273.079-.662.176-1.971-.67-1.7-2.976.954-6.281-1.376-8.269-.5-4.79,2.105-9.475.249-14.019.423-4.483.171-4.335,1.61-4.335,4.521q0,35.466,0,70.932c0,4.664.358,5.04,4.92,5.047,16.975.026,33.951-.055,50.924.072,3.349.024,4.413-1.122,4.371-4.431C1413.943,1447.97,1414.035,1435.965,1414.037,1423.961Zm-25.321-63.177h-.25q0,7.808-.006,15.617c0,.912-.5,2.344.993,2.164,2.6-.312,5.283,1.131,7.424.58,5.111-1.314,10.134.492,15.191-.423,1.622-.293,1.893-.492,2.007-1.931.359-4.541-.538-8.94-1.523-13.29-2.493-11.009-8.692-18.727-19.982-21.695-2.592-.681-3.919.115-3.876,2.988C1388.772,1350.123,1388.716,1355.454,1388.716,1360.783Zm-7.3-.186h.06c0-4.119.122-8.243-.051-12.355-.087-2.064,1.221-4.987-1-5.994-1.839-.836-4.049,1.042-5.842,2.261-11.582,7.875-15.666,20.142-19.1,32.77-.374,1.374.291,1.656,1.6,1.354,3.711-.86,7.462,1.688,11.245-.127a3.533,3.533,0,0,1,2.743.552,2.347,2.347,0,0,0,2.948.082,5.679,5.679,0,0,1,4.922-.5c2.165.66,2.51-.234,2.494-2.057C1381.382,1371.259,1381.412,1365.928,1381.412,1360.6Zm-5.81-48.269c8.236,0,16.472.028,24.708-.029,1.294-.009,3.168.531,3.052-1.925-.217-4.588-4.862-9-9.581-9q-19.439-.026-38.879-.007c-7.086,0-6.943,0-6.948,6.92,0,3.287,1.39,4.139,4.394,4.088C1360.1,1312.24,1367.85,1312.327,1375.6,1312.328Zm8.112,16.169v.049c-1.926,0-3.86-.115-5.776.03-2.161.163-2.255,1.827-2.129,3.48.137,1.8,1.393,2.183,2.836,1.876a28.416,28.416,0,0,1,10.371-.72,2.051,2.051,0,0,0,2.562-2.266,2.162,2.162,0,0,0-2.445-2.442C1387.326,1328.478,1385.519,1328.5,1383.713,1328.5Zm-38.284,8.905a33.074,33.074,0,0,0,9.153-12.79c.428-1.1,1.659-2.783-.243-3.343-1.792-.528-4.552-1.291-5.339,1.257C1347.5,1327.388,1346.586,1332.433,1345.429,1337.4Z" transform="translate(-67.935 -25.88)"/><path class="b" d="M1188.126,1514.461q-18.539,0-37.076-.006c-5.309-.011-6.748-1.252-7.1-6.513-.777-11.712-1.324-23.44-2.152-35.148-.512-7.251-.9-14.5-.9-21.766,0-3.1-.652-5.153-4.457-6.206-7.971-2.2-10.873-7.651-9.948-16.541.574-5.525,5.549-9.691,12.509-10.754,6.908-1.055,13.778.06,20.664.073q37.621.075,75.243.013c2.937,0,5.811.2,8.453,1.652,5.052,2.778,6.882,7.333,6.682,12.772-.207,5.629-2.38,10.364-8.163,12.041-4.047,1.173-5.767,3.084-5.9,7.446-.271,9.064-1.446,18.1-1.706,27.165-.285,9.927-1.942,19.757-1.692,29.723.1,4.038-2.519,6.018-7.026,6.032C1213.086,1514.487,1200.606,1514.459,1188.126,1514.461Zm.038-69.064c-11.877,0-23.755.079-35.631-.052-3.188-.035-4.476,1.092-4.111,4.244.293,2.524.512,5.059.677,7.6.957,14.733,2,29.462,2.747,44.206.18,3.546,1.494,4.465,4.832,4.445,20.118-.116,40.237-.057,60.354-.057,7.244,0,7.25,0,8.13-7.318.1-.84.134-1.691.158-2.539.133-4.722.032-9.464.422-14.164.891-10.739,1.66-21.478,1.977-32.253.1-3.246-1.218-4.185-4.289-4.155C1211.677,1445.466,1199.92,1445.4,1188.164,1445.4Zm-.154-8.727c16.241,0,32.482.035,48.722-.025,3.878-.014,5.413-1.68,5.364-5.281-.047-3.425-1.908-5.406-5.329-5.545-2.057-.084-4.12-.032-6.181-.032q-44.541,0-89.082.023c-1.894,0-3.946-.436-5.489,1.205-1.682,1.788-2.59,3.845-1.73,6.3.876,2.5,2.732,3.4,5.366,3.394C1155.771,1436.648,1171.891,1436.678,1188.01,1436.67Z" transform="translate(0 -67.311)"/><path class="b" d="M1186.521,1231.575c-3.028,8.571-6.529,16.259-9.838,24.03-2.9,6.8-5.447,13.715-6.425,21.112-1.4,10.563,1.884,19.353,10.028,26.216,4.217,3.554,9.408,4.251,14.689,4.29,2.6.019,3.938-1.239,3.768-4.1-.368-6.206-2.267-12.09-3.613-18.083-1.67-7.43-3.428-14.838-4.637-22.363-.147-.913-.712-2.062.5-2.564,1.247-.516,1.653.648,2.061,1.5,7.834,16.337,15.072,32.834,14.438,51.557a58.955,58.955,0,0,1-3.15,18.17c-.833,2.307-.083,2.709,1.854,3.493,2.962,1.2,5.931,1.035,8.943,1.018a40.868,40.868,0,0,1,24.56,7.6,12.726,12.726,0,0,1,2.46,2.13c1.223,1.476.721,2.646-1.129,2.662-3.586.031-7.193.69-10.71-1.017-4.777-2.319-9.955-2.844-15.234-2.694-2.522.071-5.115.414-7.539-.674a24.689,24.689,0,0,0-21.035-.029,12.848,12.848,0,0,1-5.719.728c-6.467-.155-12.754.3-18.762,3.244-2.835,1.39-6.237.7-9.342.388-2.475-.25-1.719-1.883-.579-3.056,3.387-3.484,7.835-5.192,12.21-6.94a29.355,29.355,0,0,1,11.725-2.185c5.4.172,10.537-1.064,15.787-1.716a3.986,3.986,0,0,0,3.135-2.169c2.75-4.73,3.708-9.927,3.994-15.3.109-2.051-1.245-2.171-2.65-1.889-19.536,3.925-34.118-17.117-34.3-31.7-.149-11.737,3.748-22.094,7.913-32.539,4.206-10.546,9.665-20.621,11.674-31.974a3.706,3.706,0,0,1,2.585-3.245c1.714-.427,2.882.823,3.5,2.069,8.393,16.844,22.837,29.475,31.877,45.843,5.082,9.2,8.785,18.747,4.689,29.425a24.511,24.511,0,0,1-9.465,12.1c-1.174.771-2.484,1.307-3.652.156-1.316-1.3-.77-2.766.254-3.9,9.917-11.035,8.176-22.416,1.1-33.988-6.584-10.773-14.543-20.554-22.106-30.62C1189.3,1235.11,1188.177,1233.7,1186.521,1231.575Z" transform="translate(-8.248)"/><path class="b" d="M1293.887,1310.2a5.537,5.537,0,0,1-4.924,5.333,5.747,5.747,0,0,1-5.557-5.188c-.012-2.443,2.688-5.363,5.011-5.418A5.707,5.707,0,0,1,1293.887,1310.2Z" transform="translate(-52.421 -29.882)"/><path class="b" d="M1288.377,1347.008a5.269,5.269,0,0,1-5.46,4.736,5.092,5.092,0,0,1-5.011-5.154,5.357,5.357,0,0,1,5.609-5A5.565,5.565,0,0,1,1288.377,1347.008Z" transform="translate(-50.585 -42.116)"/><path class="b" d="M1318.043,1293.5c.085,2.973-1.819,4.927-4.882,5.009-3.127.084-5.163-1.7-5.27-4.625a5.082,5.082,0,1,1,10.152-.384Z" transform="translate(-60.592 -24.383)"/><path class="b" d="M1306.945,1327.147a5.126,5.126,0,0,1,5-5.134,5.075,5.075,0,0,1,4.937,5.168c-.046,2.641-2.557,5.317-4.97,5.3S1306.975,1329.745,1306.945,1327.147Z" transform="translate(-60.277 -35.586)"/><path class="b" d="M1281.9,1277.4a4.866,4.866,0,0,1-4.793-5.273,4.659,4.659,0,0,1,4.768-4.85c2.993-.041,4.9,1.91,4.924,5.042A4.7,4.7,0,0,1,1281.9,1277.4Z" transform="translate(-50.318 -17.318)"/></g></g></svg>