<svg xmlns="http://www.w3.org/2000/svg" width="398" height="398" viewBox="0 0 398 398"><defs><style>.a{fill:#76bf4e;}.b{fill:#fff;}</style></defs><g transform="translate(-1313 -3550)"><circle class="a" cx="199" cy="199" r="199" transform="translate(1313 3550)"/><g transform="translate(763.365 2438.175)"><path class="b" d="M752.021,1328.359c-2.577,6.519-1.881,15.333,4.756,19.239.628.369.769.648.295,1.2-2.618,3.06-2.985,6.7-2.931,10.545a12.61,12.61,0,0,0,4.752,9.892c.951.8,1.045,1.292.186,2.088a6.693,6.693,0,0,0-.654.821c-2.784,3.555-2.423,7.727-2.2,11.817a11.8,11.8,0,0,0,6.979,10.38,4.653,4.653,0,0,1,2.391,2.564c2.825,6.59,7.725,10.046,15.075,10.01,16.23-.08,32.462-.183,48.689.038,8.968.122,16.384-7.926,16.126-16.2-.094-3-.015-6.016-.015-9.048a2.327,2.327,0,0,1,.574.066,8.051,8.051,0,0,1,.755.474c5.719,4,12.267,5.616,19.052,6.257a9.005,9.005,0,0,1,4.9,2.094l4.146,3.1a1.565,1.565,0,0,0,.421.442c8.427,5.9,16.711,12.007,25.054,18.029,3,2.164,2.995,2.127,5.119-.983.673-.985.765-1.54-.406-2.363-6.869-4.827-13.651-9.78-20.472-14.676-1.154-.829-2.318-1.643-3.477-2.464l.006-.01-9.458-6.8v0a7.882,7.882,0,0,0-5.47-1.722,12.8,12.8,0,0,1-3.174-.46c-4.69-.867-9.27-2.055-13.283-4.793-2.757-1.882-4.561-4.054-4.377-7.852.326-6.727.092-13.48.091-20.223,0-2.787-.845-3.842-3.606-4.016a47.652,47.652,0,0,1-11-2.191c-9.109-2.788-16.793-7.661-22.278-15.532a9.767,9.767,0,0,0-5.487-3.834c-11.142-3.557-22.288-7.1-33.407-10.727a10.541,10.541,0,0,1-6.822-13.156A10.429,10.429,0,0,1,775,1292.889c4.137.84,8.247,1.819,12.348,2.822,8.716,2.129,17.429,4.271,26.123,6.49,5.814,1.484,11.592,3.109,17.385,4.677,9.91,2.684,19.835,5.33,29.164,9.745,6.383,3.021,11.977,6.99,15.026,13.628,2.145,4.668,5.392,8.462,8.882,12.093a318.733,318.733,0,0,0,30.006,27.13c3.229,2.6,3.222,2.566,5.43-.321.826-1.079.8-1.706-.384-2.646a312.456,312.456,0,0,1-32.37-29.321,34.1,34.1,0,0,1-6.644-9.356,27.373,27.373,0,0,0-7.306-9.75c-7.321-6.2-16.121-9.4-25.117-12.119-1.5-.452-2.145-.916-2.119-2.589.1-6.562.011-13.126.058-19.69a12.967,12.967,0,0,0-1.719-6.474c-2.353-4.24-6.18-6.446-10.809-7.291-1.4-.256-1.683-.838-1.669-2.113q.084-7.7,0-15.394c-.06-5.173-3.106-8.463-8.041-8.575-3.942-.09-7.885-.083-11.829-.092v-.035H794.277v0c-2.51,0-5.022.174-7.53.133-4.672-.075-9.4,2.883-9.17,9.064.163,4.409.03,8.83.032,13.245,0,3.14,0,3.14-2.93,3.98-.4.115-.81.2-1.2.331-4.687,1.57-8.124,4.406-9.753,9.256-.981,2.923-.652,5.9-.755,8.863-.028.814.143,1.686-.545,2.353-3.483,3.381-4.826,8.421-8.838,11.4a3.05,3.05,0,0,0-.533.7c-2.339,3.194-2.3,6.889-2.313,10.6a12.538,12.538,0,0,0,3.887,9.589c.642.612.605.948-.024,1.542A10.123,10.123,0,0,0,752.021,1328.359Zm18.128-8.58c5.06,1.7,10.186,3.211,15.286,4.8q8.077,2.509,16.156,5.009a3.779,3.779,0,0,1,2.1,1.5c6.478,9.1,15.325,14.77,25.942,17.9a49.054,49.054,0,0,0,9.4,2.008c1.383.127,1.051,1.037,1.052,1.8q.023,13.421.01,26.841c0,3.638.025,7.277-.008,10.915a11.027,11.027,0,0,1-7.575,10.556,8.693,8.693,0,0,1-3,.38q-24.693.008-49.386,0c-5.057,0-8.5-2.977-10.425-7.673-1.381-3.36-1.363-6.67-1.367-10.084q-.022-14.314,0-28.63c0-11.272.016-22.546-.019-33.819C768.316,1319.872,768.369,1319.18,770.149,1319.78ZM782.99,1253.3c.028-3.053.955-3.979,3.96-3.984q17.8-.028,35.592,0c2.368,0,3.2.563,3.264,2.824.158,5.3.112,10.609.129,15.914,0,1.266-.937,1.134-1.784,1.133q-9.927-.007-19.855,0c-6.559,0-13.118-.027-19.676.025-1.226.01-1.683-.316-1.666-1.6C783.014,1262.843,782.947,1258.072,782.99,1253.3Zm-3.921,21.363c8.584-.06,17.17-.015,25.755-.015,8.347,0,16.7.191,25.038-.067a10.1,10.1,0,0,1,10.29,10.3c-.226,5.654-.087,11.326-.024,16.989.016,1.382-.363,1.563-1.636,1.209-11.674-3.24-23.388-6.328-35.182-9.11-6.822-1.609-13.6-3.431-20.431-4.986-4.377-1-8.724-2.606-13.353-1.448-1.084.271-1.13-.482-1.187-1.249A10.628,10.628,0,0,1,779.07,1274.665Zm-16.24,113.381c-1.737-1.977-1.766-11.514,0-13.619Zm.025-22.179c-4.727-2.785-4.2-12.817,0-15.183Zm.112-30.6h-.014c0,2.557-.035,5.116.016,7.672.022,1.109-.38,1.332-1.394,1.063a7.337,7.337,0,0,1-5.312-6.382c-.156-2.475-.444-4.966.86-7.309a8.224,8.224,0,0,1,4.352-3.7c1.122-.453,1.515-.2,1.5.984C762.946,1330.156,762.967,1332.714,762.967,1335.271Zm-6.631-26.666c.025-.318-.083-.782.466-.777.336,0,.474.249.581.564.939,2.753,2.858,4.891,4.683,7.033,1.345,1.579.819,3.258.816,4.921,0,.865-.772.536-1.238.409-3.066-.825-5.469-3.352-5.422-6.26.014-.891-.084-1.784-.11-2.287C756.2,1310.746,756.252,1309.675,756.335,1308.605Z" transform="translate(-43.042 -20.736)"/><path class="b" d="M794.277,1243.208h17.647v.036l1.136,0c3.344.006,6.8.012,10.2.089a8.5,8.5,0,0,1,6.2,2.548,9.5,9.5,0,0,1,2.327,6.521c.057,4.952.057,9.991,0,15.4-.012,1.088.144,1.412,1.259,1.615a17.543,17.543,0,0,1,6.44,2.445,14.209,14.209,0,0,1,4.716,5.1,13.535,13.535,0,0,1,1.782,6.72c-.02,2.746-.016,5.539-.011,8.241.006,3.753.012,7.635-.047,11.453-.021,1.358.378,1.684,1.763,2.1a108.669,108.669,0,0,1,13.248,4.777,50.439,50.439,0,0,1,12.048,7.439,27.941,27.941,0,0,1,7.439,9.925,33.1,33.1,0,0,0,6.551,9.218,310.933,310.933,0,0,0,32.319,29.273,2.547,2.547,0,0,1,1.129,1.6,2.45,2.45,0,0,1-.66,1.742l-.043.056c-1.2,1.572-1.806,2.362-2.754,2.362-.85,0-1.684-.672-3.345-2.011a318.932,318.932,0,0,1-30.053-27.172c-3.34-3.475-6.739-7.362-8.976-12.23a22.953,22.953,0,0,0-6.133-8,38.642,38.642,0,0,0-8.653-5.386c-9.088-4.3-18.925-6.964-28.438-9.54l-.643-.174c-1.651-.447-3.329-.906-4.951-1.35-4.068-1.113-8.274-2.265-12.427-3.325-8.208-2.1-16.377-4.11-26.118-6.489-4.558-1.114-8.4-2.02-12.329-2.818a10.281,10.281,0,0,0-2.039-.208,9.617,9.617,0,0,0-6.058,2.138,10.25,10.25,0,0,0-3.451,5.193,10.476,10.476,0,0,0,.716,7.7,9.924,9.924,0,0,0,5.78,4.848c9.549,3.115,19.279,6.219,28.688,9.221l4.716,1.5A10.2,10.2,0,0,1,809,1327.8a37.334,37.334,0,0,0,9.651,9.545,45.627,45.627,0,0,0,12.363,5.795,46.961,46.961,0,0,0,10.88,2.17,4.306,4.306,0,0,1,3.183,1.2,4.813,4.813,0,0,1,.892,3.318c0,1.976.021,3.988.041,5.933.048,4.693.1,9.547-.133,14.314-.153,3.147,1.052,5.295,4.159,7.415,4.051,2.764,8.686,3.9,13.092,4.714.278.052.559.113.83.173a9.249,9.249,0,0,0,1.941.29c.094,0,.186,0,.275-.01.211-.016.423-.024.63-.024a8.233,8.233,0,0,1,4.621,1.454l0-.008.31.221.11.079.127.091,9.842,7.081,0,.006.748.528c.769.542,1.564,1.1,2.342,1.662,2.107,1.513,4.246,3.056,6.314,4.548,4.626,3.338,9.409,6.79,14.154,10.125,1.473,1.035,1.3,1.936.531,3.054l-.04.058c-1.2,1.763-1.808,2.647-2.8,2.647-.773,0-1.56-.568-2.989-1.6-2.428-1.753-4.892-3.542-7.275-5.272-5.8-4.214-11.8-8.571-17.774-12.753a2.024,2.024,0,0,1-.5-.5l-4.1-3.063a8.529,8.529,0,0,0-4.629-1.983c-8.068-.762-14.2-2.778-19.292-6.345-.191-.134-.37-.25-.544-.352,0,.757-.009,1.516-.015,2.255-.017,2.029-.034,4.127.03,6.179a16.179,16.179,0,0,1-4.734,11.6,17.1,17.1,0,0,1-5.253,3.711,15.55,15.55,0,0,1-6.439,1.4h-.207c-6.571-.089-13.715-.133-21.84-.133-7.851,0-15.835.04-23.556.078l-3.284.016h-.116a16.48,16.48,0,0,1-9.44-2.633,17.19,17.19,0,0,1-5.98-7.68,4.169,4.169,0,0,0-2.156-2.315,13.4,13.4,0,0,1-5.17-4.358,12.443,12.443,0,0,1-2.084-6.442q-.014-.251-.028-.5c-.223-3.979-.454-8.093,2.333-11.651.061-.078.121-.161.184-.249a4.028,4.028,0,0,1,.524-.63c.359-.333.432-.513.43-.605s-.108-.322-.6-.733a13.965,13.965,0,0,1-3.62-4.532,13.4,13.4,0,0,1-1.31-5.736,24.015,24.015,0,0,1,.476-5.687,11.934,11.934,0,0,1,2.575-5.19,1.011,1.011,0,0,0,.152-.216,1.431,1.431,0,0,0-.32-.23,12.869,12.869,0,0,1-6.071-8.975,20.027,20.027,0,0,1,1.1-10.879,10.56,10.56,0,0,1,2.7-3.772c.322-.3.332-.406.332-.417s0-.107-.31-.4a12.717,12.717,0,0,1-3.093-4.539,14.486,14.486,0,0,1-.949-5.415v-.274c.016-3.627.032-7.377,2.409-10.624.043-.058.086-.127.132-.2a2.087,2.087,0,0,1,.507-.607c2.148-1.592,3.488-3.773,4.906-6.083a26.24,26.24,0,0,1,3.881-5.269c.385-.373.4-.823.392-1.524,0-.158,0-.322,0-.487.025-.725.024-1.468.023-2.186a20.834,20.834,0,0,1,.758-6.819c1.578-4.7,4.871-7.831,10.068-9.571.257-.086.516-.152.766-.216.159-.041.309-.079.458-.122,1.312-.376,2.035-.583,2.3-.943s.268-1.14.268-2.549v-.008c0-1.39.012-2.8.025-4.17.027-2.972.055-6.045-.056-9.057a8.983,8.983,0,0,1,2.37-6.754,9.874,9.874,0,0,1,7.125-2.83h.183c.245,0,.5.006.766.006,1.11,0,2.243-.035,3.338-.069.956-.03,1.94-.06,2.918-.068v0Zm16.647,1-16.694,0c-1.111,0-2.244.035-3.34.069s-2.244.07-3.369.07c-.268,0-.532,0-.782-.006h-.167a8.871,8.871,0,0,0-6.405,2.524,8.008,8.008,0,0,0-2.091,6.023c.112,3.035.084,6.12.057,9.1-.012,1.364-.025,2.774-.025,4.16v.008c0,1.674,0,2.514-.463,3.143s-1.257.86-2.829,1.31c-.164.047-.328.089-.488.129-.243.062-.473.12-.695.195-4.879,1.634-7.966,4.559-9.438,8.941a19.776,19.776,0,0,0-.706,6.5c0,.727,0,1.479-.023,2.222,0,.142,0,.287,0,.442a2.806,2.806,0,0,1-.7,2.253,25.49,25.49,0,0,0-3.725,5.075,21.248,21.248,0,0,1-5.164,6.363,1.383,1.383,0,0,0-.255.336c-.053.084-.108.171-.171.258-2.186,2.985-2.2,6.411-2.216,10.038v.275a12,12,0,0,0,3.733,9.225,1.615,1.615,0,0,1,.62,1.126,1.661,1.661,0,0,1-.646,1.141,9.593,9.593,0,0,0-2.459,3.412,19,19,0,0,0-1.052,10.32,11.994,11.994,0,0,0,5.6,8.3,1.449,1.449,0,0,1,.811.926,1.3,1.3,0,0,1-.39,1.032c-2.412,2.82-2.868,6.122-2.811,10.213a12.406,12.406,0,0,0,1.209,5.311,12.973,12.973,0,0,0,3.366,4.206,2.174,2.174,0,0,1,.954,1.474,1.9,1.9,0,0,1-.75,1.363,3.241,3.241,0,0,0-.392.481c-.066.092-.135.187-.208.281a10.264,10.264,0,0,0-2.1,5.219,31.463,31.463,0,0,0-.026,5.759q.014.252.028.5a11.276,11.276,0,0,0,6.7,9.96,5.134,5.134,0,0,1,2.626,2.814,16.213,16.213,0,0,0,5.623,7.247,15.549,15.549,0,0,0,8.99,2.46l3.284-.016c7.722-.039,15.707-.078,23.561-.078,8.129,0,15.278.043,21.853.133a14.527,14.527,0,0,0,6.221-1.314,16.106,16.106,0,0,0,4.946-3.5,15.176,15.176,0,0,0,4.453-10.874c-.065-2.072-.048-4.18-.031-6.218.008-.932.016-1.9.016-2.845v-.555l.552.057c.122.013.217.018.293.022a1.023,1.023,0,0,1,.468.1,8.49,8.49,0,0,1,.8.5c4.946,3.463,10.924,5.423,18.812,6.168a9.507,9.507,0,0,1,5.159,2.2l4.208,3.146.048.073a1.063,1.063,0,0,0,.29.307c5.979,4.187,11.982,8.547,17.788,12.763,2.382,1.73,4.845,3.519,7.272,5.271a6.746,6.746,0,0,0,2.4,1.41c.46,0,1-.785,1.97-2.211l.04-.058a1.64,1.64,0,0,0,.4-.907c-.022-.207-.246-.457-.685-.765-4.75-3.338-9.536-6.792-14.164-10.132-2.068-1.492-4.205-3.035-6.312-4.547-.775-.557-1.568-1.116-2.335-1.657l-1.139-.8-.389-.276.008-.012-8.528-6.135,0,.011-.549-.407a7.508,7.508,0,0,0-4.579-1.645c-.182,0-.369.007-.555.021-.113.008-.231.013-.35.013a10.127,10.127,0,0,1-2.156-.314c-.263-.058-.536-.118-.8-.166-4.513-.835-9.269-2-13.473-4.871-2.392-1.632-4.808-3.893-4.594-8.289.23-4.738.18-9.576.132-14.255-.02-1.948-.041-3.962-.041-5.943,0-2.575-.7-3.364-3.137-3.517a47.92,47.92,0,0,1-11.11-2.212,46.619,46.619,0,0,1-12.633-5.925,38.33,38.33,0,0,1-9.909-9.8,9.274,9.274,0,0,0-5.229-3.644l-4.716-1.5c-9.411-3-19.143-6.107-28.694-9.223a11.05,11.05,0,0,1-7.149-13.766,11.258,11.258,0,0,1,3.79-5.7,10.607,10.607,0,0,1,6.682-2.357,11.28,11.28,0,0,1,2.238.228c3.947.8,7.8,1.709,12.368,2.826,9.743,2.38,17.915,4.395,26.128,6.492,4.161,1.063,8.372,2.215,12.443,3.329,1.622.444,3.3.9,4.949,1.35l.643.174c9.556,2.587,19.437,5.263,28.6,9.6a39.614,39.614,0,0,1,8.874,5.529,23.933,23.933,0,0,1,6.392,8.342c2.175,4.734,5.509,8.543,8.788,11.955a317.962,317.962,0,0,0,29.959,27.087c1.337,1.078,2.22,1.789,2.717,1.789.453,0,.988-.7,1.959-1.969l.043-.056a1.589,1.589,0,0,0,.462-1.009c-.032-.256-.274-.555-.76-.942a311.912,311.912,0,0,1-32.422-29.368,34.041,34.041,0,0,1-6.737-9.495,26.951,26.951,0,0,0-7.174-9.573c-7.585-6.427-16.85-9.575-24.939-12.022-1.665-.5-2.5-1.117-2.474-3.075.059-3.81.053-7.687.047-11.436,0-2.7-.009-5.5.011-8.249a12.38,12.38,0,0,0-1.657-6.227,13.221,13.221,0,0,0-4.386-4.742,16.553,16.553,0,0,0-6.076-2.3c-1.752-.32-2.094-1.236-2.08-2.61.059-5.407.06-10.438,0-15.382a8.527,8.527,0,0,0-2.058-5.85,7.528,7.528,0,0,0-5.494-2.231c-3.391-.077-6.844-.083-10.183-.089l-1.636,0h-.5Zm-6.9,4.6c5.452,0,11.336,0,18.516.01a4.262,4.262,0,0,1,2.813.68,3.286,3.286,0,0,1,.95,2.63c.121,4.046.122,8.159.124,12.137,0,1.242,0,2.527.005,3.789a1.637,1.637,0,0,1-.414,1.207,1.9,1.9,0,0,1-1.422.432l-.235,0-.214,0c-2.8,0-5.776,0-9.656,0H804.125q-2.474,0-4.949,0t-4.947,0c-3.868,0-6.83.01-9.606.032h-.056a2.216,2.216,0,0,1-1.637-.5,2.107,2.107,0,0,1-.477-1.608c.033-2.562.028-5.17.024-7.692,0-2.168-.007-4.41.013-6.616.016-1.747.318-2.789,1.009-3.483s1.724-.993,3.45-1C792.29,1248.81,797.876,1248.806,804.027,1248.806Zm20.572,19.885a1.178,1.178,0,0,0,.714-.138.774.774,0,0,0,.122-.5c0-1.264,0-2.549-.005-3.792,0-3.971,0-8.077-.124-12.108-.057-1.9-.573-2.337-2.765-2.339-7.18-.007-13.063-.01-18.515-.01-6.151,0-11.736,0-17.076.012a3.807,3.807,0,0,0-2.743.7,3.943,3.943,0,0,0-.718,2.787c-.02,2.2-.016,4.44-.013,6.605,0,2.525.008,5.136-.024,7.706a1.339,1.339,0,0,0,.189.892,1.376,1.376,0,0,0,.925.2h.048c2.778-.022,5.743-.032,9.614-.032q2.474,0,4.948,0t4.948,0h10.369c3.881,0,6.859,0,9.657,0l.227,0Zm5.57,5.387a10.6,10.6,0,0,1,10.483,10.829c-.187,4.674-.123,9.444-.06,14.057q.02,1.453.037,2.906a2.166,2.166,0,0,1-.4,1.55,1.157,1.157,0,0,1-.858.322,3.83,3.83,0,0,1-1.007-.175c-13.1-3.636-24.6-6.614-35.163-9.105-3.03-.715-6.1-1.484-9.068-2.227-3.717-.931-7.561-1.894-11.358-2.758-.792-.18-1.594-.383-2.369-.579a31.033,31.033,0,0,0-7.5-1.259,13.229,13.229,0,0,0-3.251.387,2.157,2.157,0,0,1-.524.071,1.122,1.122,0,0,1-1.09-.7,3.276,3.276,0,0,1-.191-1.048v-.02a11.127,11.127,0,0,1,11.224-12.163c3.049-.021,6.326-.031,10.313-.031,2.575,0,5.192,0,7.724.008s5.148.008,7.722.008h.079c2.485,0,5.011.017,7.454.034s4.965.034,7.446.034c3.889,0,7.08-.043,10.043-.135C829.954,1274.08,830.062,1274.078,830.169,1274.078Zm9.2,28.664a.268.268,0,0,0,.147-.025c.021-.021.123-.159.116-.836q-.016-1.452-.037-2.9c-.062-4.626-.127-9.41.061-14.11a9.6,9.6,0,0,0-9.484-9.789c-.1,0-.195,0-.291,0-2.974.092-6.175.135-10.074.135-2.485,0-5.01-.017-7.453-.034s-4.966-.034-7.447-.034h-.079c-2.575,0-5.192,0-7.723-.008s-5.148-.008-7.722-.008c-3.985,0-7.26.01-10.306.031a10.128,10.128,0,0,0-10.234,11.09v.02c.061.822.135.822.284.822a1.2,1.2,0,0,0,.282-.042,14.219,14.219,0,0,1,3.493-.417,31.776,31.776,0,0,1,7.746,1.289c.77.195,1.565.4,2.346.574,3.807.866,7.657,1.831,11.379,2.763,2.965.743,6.031,1.511,9.055,2.224,10.574,2.494,22.089,5.476,35.2,9.115A3.055,3.055,0,0,0,839.365,1302.742Zm-82.573,4.586h.014a1.146,1.146,0,0,1,1.05.9,20.568,20.568,0,0,0,4.257,6.48l.333.39a5.254,5.254,0,0,1,.986,4.188c-.026.366-.05.711-.051,1.057a.954.954,0,0,1-.976,1.076,2.7,2.7,0,0,1-.748-.143l-.144-.042a8.526,8.526,0,0,1-4.121-2.5,6.2,6.2,0,0,1-1.671-4.251c.01-.621-.037-1.242-.074-1.741-.015-.2-.028-.366-.035-.512v-.028l0-.028c.026-.425.048-.817.069-1.185.051-.893.1-1.664.155-2.427,0-.036,0-.084,0-.135a1.4,1.4,0,0,1,.11-.629A.869.869,0,0,1,756.792,1307.328Zm5.586,13.094a.7.7,0,0,0,0-.077c0-.38.027-.759.053-1.126.09-1.283.168-2.391-.75-3.47l-.332-.389a21.324,21.324,0,0,1-4.443-6.807,1.338,1.338,0,0,0-.069-.171c0,.02,0,.039,0,.056,0,.066,0,.134-.006.205-.059.753-.1,1.52-.154,2.407-.021.361-.043.745-.068,1.16.007.128.019.283.032.46.037.492.088,1.166.077,1.833a5.214,5.214,0,0,0,1.417,3.57,7.515,7.515,0,0,0,3.635,2.2l.168.048A2.331,2.331,0,0,0,762.378,1320.422Zm6.747-1.359a3.8,3.8,0,0,1,1.184.243c3.642,1.226,7.382,2.37,11,3.477,1.4.429,2.851.872,4.275,1.314l3.3,1.025c4.213,1.309,8.568,2.663,12.855,3.984a4.258,4.258,0,0,1,2.363,1.69,44.445,44.445,0,0,0,11.292,11.064,51.626,51.626,0,0,0,14.384,6.651,48.627,48.627,0,0,0,9.307,1.99c1.644.151,1.565,1.321,1.523,1.95-.008.122-.016.238-.016.344.012,7.384.011,14.891.01,22.151v4.691c0,1.1,0,2.216,0,3.3.005,2.5.011,5.081-.012,7.623a11.713,11.713,0,0,1-2.158,6.794,11.98,11.98,0,0,1-5.749,4.228,9.135,9.135,0,0,1-3.163.409l-6.771,0c-7.168,0-14.581.005-21.871.005-7.728,0-14.513,0-20.744-.009a10.732,10.732,0,0,1-6.69-2.181,13.7,13.7,0,0,1-4.2-5.8c-1.4-3.4-1.4-6.657-1.4-10.109v-.165c-.01-6.826-.008-13.766-.006-20.477q0-4.077,0-8.154,0-3.826,0-7.651c0-8.576.006-17.444-.021-26.166a2.632,2.632,0,0,1,.419-1.889A1.2,1.2,0,0,1,769.125,1319.063ZM800.881,1401c7.29,0,14.7,0,21.871-.005l6.771,0a8.183,8.183,0,0,0,2.827-.351,10.984,10.984,0,0,0,5.274-3.871,10.718,10.718,0,0,0,1.969-6.218c.023-2.536.018-5.116.012-7.612,0-1.081,0-2.2,0-3.3v-4.691c0-7.259,0-14.766-.01-22.149,0-.141.009-.279.018-.413a1.582,1.582,0,0,0-.033-.66c-.074-.15-.358-.206-.583-.227a49.523,49.523,0,0,1-9.5-2.027,52.614,52.614,0,0,1-14.662-6.782,45.44,45.44,0,0,1-11.546-11.312,3.276,3.276,0,0,0-1.843-1.315c-4.288-1.322-8.645-2.675-12.858-3.985l-3.3-1.025c-1.422-.442-2.871-.885-4.271-1.313-3.624-1.109-7.371-2.255-11.026-3.486a2.989,2.989,0,0,0-.865-.191.3.3,0,0,0-.176.035,2.958,2.958,0,0,0-.128,1.179c.027,8.724.024,17.593.021,26.17q0,3.825,0,7.651,0,4.077,0,8.154c0,6.711,0,13.651.006,20.476v.165c0,3.351.009,6.516,1.33,9.73a12.72,12.72,0,0,0,3.881,5.389,9.755,9.755,0,0,0,6.082,1.974C786.369,1400.992,793.154,1401,800.881,1401ZM762.31,1325.9a1.049,1.049,0,0,1,.777.3,1.859,1.859,0,0,1,.388,1.4c-.021,1.808-.017,3.648-.013,5.427q0,1.12,0,2.239v.5h-.015c0,.576,0,1.153-.005,1.716-.007,1.786-.014,3.633.022,5.446a1.868,1.868,0,0,1-.381,1.348,1.164,1.164,0,0,1-.867.328,3.069,3.069,0,0,1-.775-.12,7.779,7.779,0,0,1-3.893-2.521,7.516,7.516,0,0,1-1.789-4.313q-.018-.283-.037-.566c-.156-2.323-.317-4.725.959-7.018a8.762,8.762,0,0,1,4.6-3.921A2.792,2.792,0,0,1,762.31,1325.9Zm.066,1.006a.31.31,0,0,0-.066-.006,1.894,1.894,0,0,0-.649.175,7.7,7.7,0,0,0-4.1,3.48c-1.132,2.034-.988,4.186-.835,6.464q.019.285.037.57a6.51,6.51,0,0,0,1.556,3.732,6.77,6.77,0,0,0,3.385,2.2,2.159,2.159,0,0,0,.518.087.27.27,0,0,0,.153-.028c.011-.011.105-.122.1-.628-.037-1.824-.029-3.678-.022-5.47,0-.725.006-1.475.006-2.212v-.5h.014q0-.868,0-1.737c0-1.783-.009-3.627.013-5.442.007-.577-.1-.683-.1-.684Zm.979,22.92v16.913l-.754-.444a6.856,6.856,0,0,1-2.768-3.392,12.038,12.038,0,0,1-.829-4.647c.036-3.653,1.451-6.8,3.606-8.01Zm-1,15.053v-13.215a6.422,6.422,0,0,0-1.5,2.252,11.761,11.761,0,0,0-.848,4.35,11.033,11.033,0,0,0,.754,4.257A6.4,6.4,0,0,0,762.355,1364.882Zm.975,8.171v16.32l-.876-1c-1.055-1.2-1.435-4.45-1.438-7.091s.371-5.916,1.43-7.18Zm-1,12.191v-7.975a25.518,25.518,0,0,0,0,7.975Z" transform="translate(-43.042 -20.736)"/><path class="b" d="M644.058,1402.8c6.511,5.425,13.032,10.842,19.446,16.381,2.309,1.995,4.883,3.624,7.037,5.864,2.523,2.622,5.569,4.74,8.386,7.08,2.21,1.836,4.318,1.253,5.163-1.528,1.158-3.806,2.217-7.642,3.315-11.467q4.713-16.431,9.445-32.856a2.858,2.858,0,0,0-.731-3.083,2.677,2.677,0,0,0-2.951-.643c-4.078,1.281-8.168,2.526-12.23,3.857-1.024.335-1.4.058-1.589-.928-.287-1.518-.683-3.015-.987-4.53-1.607-8-2.918-16.034-3.884-24.143-.975-8.181-1.539-16.383-1.873-24.6a252.483,252.483,0,0,1,.911-30.737c.537-6.6,1.358-13.158,2.419-19.679s2.395-12.984,3.986-19.4c.307-1.237.719-1.213,1.689-.826,3.465,1.387,6.954,2.717,10.439,4.057,2.73,1.051,4.586-.3,4.1-3.207-.7-4.22-1.631-8.4-2.5-12.593-.934-4.483-1.928-8.954-2.872-13.435-1.362-6.459-2.645-12.935-4.081-19.377-.618-2.777-2.586-3.357-4.921-1.673q-11.581,8.349-23.167,16.69c-4.839,3.5-9.672,7.009-14.456,10.584a2.581,2.581,0,0,0,.367,4.506,12.809,12.809,0,0,0,1.765.842c3.1,1.178,6.213,2.327,9.316,3.5.779.3,1.21.635.952,1.717-1.312,5.491-2.513,11.01-3.713,16.528-1.229,5.647-2.124,11.362-2.828,17.088-.865,7.035-1.486,14.1-2.009,21.175-.277,3.747-.334,7.5-.34,11.259h0l.005.483c0,2.645.019,5.29.016,7.933a1.9,1.9,0,0,0,.082.865l.083,7.424c-.016,1.979-.02,3.959.16,5.936.6,6.587,1.013,13.188,1.85,19.756.715,5.611,1.529,11.2,2.554,16.762.885,4.794,1.9,9.567,2.983,14.32.264,1.159-.137,1.419-1.066,1.7-3.071.924-6.1,1.991-9.189,2.846-1.325.367-2.357.921-2.683,2.263C642.095,1400.977,642.985,1401.9,644.058,1402.8Zm15.234-4.223c2.239-.716,2.9-1.916,2.26-4.189a209.429,209.429,0,0,1-5.037-24.269c-1.434-9.061-2.332-18.2-2.955-27.357-.271-3.983-.34-7.969-.471-11.953v-6.98a9.3,9.3,0,0,0,.024-1.054,233,233,0,0,1,1.625-29.266q1.268-11.72,3.61-23.282c1.246-6.121,2.558-12.216,4.3-18.217.7-2.4.185-3.511-2.2-4.493-2.837-1.169-5.717-2.233-8.742-3.4a20.2,20.2,0,0,1,4.149-3.3c8.358-6.1,16.781-12.11,25.143-18.2,1.165-.849,1.286-.092,1.458.693q1.455,6.623,2.862,13.256c1.007,4.771,2.06,9.533,2.939,14.327.469,2.558,1.367,5.045,1.475,7.929-2.291-.869-4.413-1.669-6.529-2.481-1.218-.467-2.424-.969-3.643-1.434a2.793,2.793,0,0,0-3.86,1.974,236.343,236.343,0,0,0-6.277,31.481,274.712,274.712,0,0,0-1.445,58c.8,9.45,1.962,18.838,3.534,28.174.887,5.274,2.128,10.491,3.328,15.707.568,2.465,2.1,3.09,4.581,2.3,3.438-1.1,6.906-2.1,10.764-3.266-1.377,4.935-2.6,9.454-3.9,13.951-2.048,7.072-4.168,14.124-6.206,21.2-.242.842-.343,1.207-1.206.53-9.532-7.472-18.391-15.741-27.741-23.429-.031-.025-.02-.1-.059-.321C653.792,1400.329,656.542,1399.454,659.292,1398.575Z" transform="translate(0 -9.081)"/><path class="b" d="M681.376,1433.68h0a4.454,4.454,0,0,1-2.768-1.173c-.855-.711-1.749-1.414-2.614-2.094a56.144,56.144,0,0,1-5.813-5.023,37.994,37.994,0,0,0-4.281-3.652c-.9-.7-1.837-1.416-2.723-2.18-5.932-5.123-12.057-10.226-17.981-15.161l-1.458-1.214c-1.084-.9-2.2-2.015-1.772-3.792.409-1.688,1.764-2.275,3.035-2.627,1.833-.507,3.68-1.1,5.466-1.675,1.214-.39,2.469-.793,3.713-1.168a1.667,1.667,0,0,0,.725-.341c.088-.118.088-.376,0-.768-1.2-5.277-2.18-9.968-2.987-14.34-.924-5.01-1.737-10.345-2.559-16.79-.585-4.591-.97-9.27-1.343-13.794-.161-1.961-.328-3.988-.509-5.98-.178-1.951-.178-3.863-.162-5.98l-.081-7.313a2.052,2.052,0,0,1-.087-.817c0-.056,0-.11,0-.161,0-1.416,0-2.856-.008-4.25,0-1.206-.008-2.452-.008-3.679l-.011-.986h.012c.009-3.261.063-7.043.34-10.8.614-8.292,1.253-15.028,2.011-21.2.779-6.342,1.707-11.946,2.835-17.134l0-.015c1.18-5.424,2.4-11.032,3.712-16.523.18-.752-.01-.893-.643-1.133-1.38-.521-2.786-1.047-4.146-1.555-1.7-.634-3.449-1.289-5.17-1.944a13.342,13.342,0,0,1-1.834-.874,3.293,3.293,0,0,1-1.774-2.633,3.139,3.139,0,0,1,1.354-2.708c4.949-3.7,10.06-7.406,14.462-10.589,4.78-3.457,9.649-6.96,14.358-10.348,2.888-2.078,5.875-4.227,8.81-6.343a4.728,4.728,0,0,1,2.707-1.037c1.478,0,2.569,1.1,2.995,3.007.947,4.249,1.842,8.582,2.707,12.772.448,2.167.91,4.408,1.375,6.61.426,2.019.869,4.07,1.3,6.054.522,2.418,1.062,4.918,1.576,7.382q.255,1.223.514,2.446c.7,3.322,1.425,6.758,1.994,10.167a3.829,3.829,0,0,1-.635,3.185,2.837,2.837,0,0,1-2.249.958,5.3,5.3,0,0,1-1.891-.387l-1.662-.639c-2.884-1.108-5.866-2.253-8.783-3.421a2.376,2.376,0,0,0-.678-.2.091.091,0,0,0-.1.047,1.763,1.763,0,0,0-.244.634c-1.6,6.437-2.935,12.95-3.978,19.359-1.084,6.661-1.9,13.269-2.414,19.639a250.522,250.522,0,0,0-.91,30.676c.368,9.053.979,17.086,1.87,24.56.932,7.827,2.237,15.937,3.877,24.1.138.687.3,1.386.453,2.061.185.807.377,1.642.534,2.474.124.652.265.656.4.656h0a1.853,1.853,0,0,0,.537-.111c2.852-.934,5.765-1.841,8.581-2.717,1.2-.373,2.437-.759,3.655-1.141a4.124,4.124,0,0,1,1.229-.2,3.037,3.037,0,0,1,2.229.974,3.348,3.348,0,0,1,.854,3.572c-2.407,8.292-4.825,16.732-7.163,24.895q-1.14,3.98-2.281,7.96c-.307,1.071-.617,2.161-.916,3.215-.77,2.712-1.566,5.516-2.4,8.26C684,1432.608,682.836,1433.68,681.376,1433.68ZM648.16,1319.593v.111c0,1.226,0,2.473.008,3.679,0,1.395.01,2.837.008,4.255,0,.062,0,.126,0,.193a1.5,1.5,0,0,0,.021.423l.065.113v.129l.083,7.428v0c-.017,2.092-.016,3.979.158,5.887.181,2,.348,4.026.51,5.989.372,4.514.756,9.181,1.338,13.75.819,6.426,1.629,11.744,2.55,16.735.8,4.359,1.779,9.036,2.979,14.3.368,1.61-.457,2-1.41,2.288-1.235.371-2.485.773-3.695,1.162-1.8.577-3.653,1.174-5.505,1.687-1.442.4-2.1.931-2.33,1.9-.269,1.11.3,1.837,1.441,2.788l1.458,1.214c5.927,4.938,12.056,10.044,17.995,15.172.864.747,1.787,1.458,2.679,2.145a38.748,38.748,0,0,1,4.392,3.751,55.371,55.371,0,0,0,5.711,4.931c.87.684,1.769,1.392,2.634,2.111a3.492,3.492,0,0,0,2.129.942c1,0,1.8-.792,2.236-2.231.832-2.735,1.627-5.535,2.4-8.242.3-1.055.609-2.145.917-3.217q1.142-3.979,2.281-7.96c2.338-8.163,4.756-16.6,7.164-24.9a2.376,2.376,0,0,0-.608-2.594,2.044,2.044,0,0,0-1.514-.674,3.132,3.132,0,0,0-.929.158c-1.219.383-2.458.769-3.657,1.142-2.813.875-5.721,1.781-8.567,2.713a2.763,2.763,0,0,1-.849.161c-1.108,0-1.311-1.068-1.387-1.47-.154-.813-.343-1.638-.527-2.437-.156-.682-.318-1.387-.459-2.088-1.646-8.193-2.955-16.329-3.89-24.182-.894-7.5-1.507-15.559-1.876-24.638a251.476,251.476,0,0,1,.913-30.8c.521-6.4,1.336-13.031,2.424-19.719,1.047-6.436,2.391-12.976,3.995-19.439.107-.431.357-1.441,1.31-1.441a2.9,2.9,0,0,1,1.05.271c2.911,1.166,5.89,2.31,8.771,3.416l1.662.639a4.314,4.314,0,0,0,1.532.32,1.87,1.87,0,0,0,1.486-.6,2.888,2.888,0,0,0,.411-2.374c-.565-3.388-1.288-6.813-1.986-10.125q-.258-1.224-.514-2.449c-.512-2.46-1.052-4.959-1.574-7.375-.429-1.985-.872-4.037-1.3-6.058-.465-2.2-.928-4.446-1.376-6.614-.865-4.187-1.759-8.516-2.7-12.757-.226-1.015-.759-2.224-2.019-2.224a3.831,3.831,0,0,0-2.122.848c-2.936,2.116-5.923,4.265-8.811,6.344-4.708,3.387-9.576,6.89-14.356,10.346-4.4,3.181-9.506,6.884-14.449,10.58a2.132,2.132,0,0,0-.954,1.845,2.315,2.315,0,0,0,1.269,1.826,12.338,12.338,0,0,0,1.7.809c1.719.653,3.471,1.308,5.165,1.942,1.361.509,2.767,1.035,4.15,1.557a1.712,1.712,0,0,1,1.261,2.3c-1.31,5.481-2.529,11.085-3.708,16.5l0,.015c-1.122,5.157-2.045,10.732-2.82,17.043-.756,6.154-1.394,12.875-2.007,21.15-.29,3.914-.334,7.869-.339,11.223ZM679.544,1425.8a1.659,1.659,0,0,1-.986-.459c-5.522-4.328-10.9-9-16.1-13.511-3.789-3.287-7.707-6.687-11.645-9.925a.622.622,0,0,1-.209-.446c-.005-.044-.011-.1-.025-.174l-.075-.43,2.385-.76q3.117-.993,6.256-2c1.992-.637,2.5-1.573,1.931-3.576a210.93,210.93,0,0,1-5.05-24.327c-1.294-8.179-2.262-17.142-2.96-27.4-.208-3.061-.3-6.17-.386-9.177-.027-.916-.054-1.863-.085-2.794v-.016l0-7.028a8.914,8.914,0,0,0,.022-1,229.892,229.892,0,0,1,1.628-29.329c.852-7.879,2.069-15.728,3.617-23.328,1.125-5.525,2.478-11.947,4.3-18.257.631-2.178.22-3.015-1.91-3.891-1.966-.81-3.926-1.559-6-2.352-.889-.34-1.808-.691-2.732-1.049l-.65-.252.447-.535a14.041,14.041,0,0,1,3.179-2.65c.369-.248.718-.482,1.059-.731,4.33-3.16,8.749-6.348,13.022-9.431,3.977-2.869,8.09-5.836,12.121-8.773a1.964,1.964,0,0,1,1.114-.47c.81,0,.991.834,1.111,1.386l.016.073c1.118,5.089,2.027,9.3,2.862,13.26q.317,1.5.639,3.006c.79,3.707,1.607,7.541,2.3,11.334.155.842.353,1.664.564,2.534a27.089,27.089,0,0,1,.919,5.466l.028.754-.705-.268-1.886-.715c-1.6-.608-3.12-1.181-4.645-1.767-.591-.227-1.187-.464-1.763-.695-.615-.245-1.251-.5-1.879-.739a2.771,2.771,0,0,0-.986-.191,2.28,2.28,0,0,0-2.212,1.827,237.009,237.009,0,0,0-6.264,31.415c-1.242,9.776-2,19.5-2.254,28.9a260.922,260.922,0,0,0,.811,28.993c.814,9.6,2,19.061,3.529,28.133.8,4.725,1.894,9.488,2.957,14.094q.183.792.365,1.584c.456,1.981,1.471,2.235,2.305,2.235a5.527,5.527,0,0,0,1.637-.3c2.389-.761,4.787-1.478,7.326-2.235q1.67-.5,3.446-1.033l.871-.263-.244.876c-.436,1.563-.859,3.094-1.268,4.576-.9,3.242-1.742,6.3-2.633,9.38-.965,3.335-1.963,6.72-2.928,9.994-1.082,3.67-2.2,7.465-3.278,11.2l0,.01C680.376,1425.172,680.2,1425.8,679.544,1425.8Zm-27.69-24.328c3.809,3.144,7.591,6.425,11.254,9.6,5.194,4.506,10.564,9.166,16.066,13.479a2.586,2.586,0,0,0,.272.191c.045-.121.1-.3.142-.456l0-.011c1.078-3.741,2.2-7.538,3.279-11.21.965-3.273,1.962-6.657,2.927-9.989.889-3.069,1.734-6.129,2.63-9.368.333-1.2.675-2.442,1.025-3.7q-1.319.4-2.579.772c-2.534.757-4.928,1.471-7.308,2.23a6.417,6.417,0,0,1-1.941.345c-1.716,0-2.82-1.013-3.28-3.011l-.365-1.584c-1.066-4.62-2.169-9.4-2.969-14.152-1.532-9.1-2.722-18.592-3.539-28.215a261.936,261.936,0,0,1-.814-29.1c.255-9.432,1.016-19.189,2.261-29a238.021,238.021,0,0,1,6.29-31.548,3.283,3.283,0,0,1,3.178-2.568,3.765,3.765,0,0,1,1.343.256c.635.242,1.275.5,1.894.744.573.229,1.166.466,1.751.69,1.523.585,3.038,1.158,4.641,1.765l1.162.44a30.017,30.017,0,0,0-.844-4.507c-.2-.845-.416-1.719-.575-2.589-.693-3.779-1.509-7.606-2.3-11.306q-.321-1.5-.639-3.008c-.835-3.955-1.744-8.167-2.861-13.252l-.016-.075a2.926,2.926,0,0,0-.169-.593,1.537,1.537,0,0,0-.49.272c-4.033,2.938-8.146,5.906-12.125,8.776-4.273,3.082-8.69,6.269-13.018,9.427-.357.26-.73.511-1.091.753a15.581,15.581,0,0,0-2.492,1.937c.692.267,1.378.529,2.047.785,2.081.8,4.046,1.547,6.024,2.361a4.383,4.383,0,0,1,2.515,1.958,4.287,4.287,0,0,1-.025,3.136c-1.816,6.274-3.164,12.673-4.286,18.178-1.541,7.57-2.753,15.388-3.6,23.236a228.928,228.928,0,0,0-1.622,29.2,9.956,9.956,0,0,1-.024,1.087v6.948c.03.93.058,1.875.085,2.789.087,3,.178,6.1.385,9.138.7,10.229,1.66,19.163,2.95,27.313a210.006,210.006,0,0,0,5.025,24.211c.712,2.52-.086,4-2.588,4.8q-3.134,1-6.257,2Z" transform="translate(0 -9.081)"/><g transform="translate(746.028 1191.551)"><path class="b" d="M836.157,1229.02H822.312a7.883,7.883,0,0,1-7.875-7.874v-21.72a7.883,7.883,0,0,1,7.875-7.875h13.845a7.883,7.883,0,0,1,7.874,7.875v21.72A7.883,7.883,0,0,1,836.157,1229.02Zm-13.845-32.9a3.306,3.306,0,0,0-3.3,3.3v21.72a3.306,3.306,0,0,0,3.3,3.3h13.845a3.306,3.306,0,0,0,3.3-3.3v-21.72a3.306,3.306,0,0,0-3.3-3.3Z" transform="translate(-814.437 -1191.551)"/><path class="b" d="M836.157,1229.52H822.312a8.384,8.384,0,0,1-8.375-8.374v-21.72a8.384,8.384,0,0,1,8.375-8.375h13.845a8.384,8.384,0,0,1,8.374,8.375v21.72A8.384,8.384,0,0,1,836.157,1229.52Zm-13.845-37.469a7.383,7.383,0,0,0-7.375,7.375v21.72a7.383,7.383,0,0,0,7.375,7.374h13.845a7.383,7.383,0,0,0,7.374-7.374v-21.72a7.383,7.383,0,0,0-7.374-7.375Zm13.845,32.9H822.312a3.807,3.807,0,0,1-3.8-3.8v-21.72a3.807,3.807,0,0,1,3.8-3.8h13.845a3.807,3.807,0,0,1,3.8,3.8v21.72A3.806,3.806,0,0,1,836.157,1224.948Zm-13.845-28.324a2.806,2.806,0,0,0-2.8,2.8v21.72a2.805,2.805,0,0,0,2.8,2.8h13.845a2.805,2.805,0,0,0,2.8-2.8v-21.72a2.805,2.805,0,0,0-2.8-2.8Z" transform="translate(-814.437 -1191.551)"/></g></g></g></svg>