<svg xmlns="http://www.w3.org/2000/svg" width="224.044" height="116.869" viewBox="0 0 224.044 116.869"><defs><style>.a{fill:#030404;}.a,.b,.c,.d{fill-rule:evenodd;}.b,.e{fill:#70b22f;}.c{fill:#040506;}.d,.h{fill:#1a1818;}.f{fill:#223042;}.g{fill:#fff;}</style></defs><g transform="translate(-108.814 -493.762)"><path class="a" d="M717.923,498.277l-2.2,1.8a18.486,18.486,0,0,0-3.777,4.518c-.646,1.035-1.158,2.485-1.375,2.82-.42-.213-.983-.727-1.556-1.074a17.161,17.161,0,0,0-1.8-.959,18.145,18.145,0,0,0-4.092-1.277,20.274,20.274,0,0,0-9,.371l-.534.2c1.292,2.119,1.49.087,5.095,8.209a35.533,35.533,0,0,0,2.187,4.469,14.135,14.135,0,0,0,2.258,2.741,4.923,4.923,0,0,1,.955.84l-26.723,0-2.808,8.121,7.773.026-5.368,15.969,8.777.012c.291-.147.081.113.278-.336l.507-1.521c1.11-3.207,2.289-7.021,3.409-10.076.481-1.31.886-2.857,1.4-4.053l5.5-.04,5.137-7.1-7.824,23.117c6.919-.082,13.867.008,20.763.008,1.583,0,3.519.279,4.8-.435,2.878-1.6,2.882-3.289,4.068-6.787.977-2.883.955-2.177.654-4.458,1.384-1.306,1.383-1.694,2.18-3.964.525-1.5,1.126-3.116,1.573-4.612.3-1-.518-3.455-2.085-3.832a56.914,56.914,0,0,0-5.947-.043l1.514-.845a13.966,13.966,0,0,0,4.857-4.5c3.62-5.625,3.48-11.8,6.132-17.686a6.1,6.1,0,0,1,.816-1.485,9.477,9.477,0,0,1,.815-1.413,7.826,7.826,0,0,0,.722-1.239,30.943,30.943,0,0,0-9.636,1.076,27.348,27.348,0,0,0-5.724,2.428,12.768,12.768,0,0,1-1.717,1.011m-2.1,18.438c-.245-.27.169.2-.069-.173l-.41-.054c.2-.72.115-.3-.443-.867l-.378.936c-.382-2.979-.623-4.224-2.258-6.575-.77-1.108-1.014-.716-.6-1.854,3.1-8.551,13.17-13.244,21.053-13.05-.192.505-.7,1.244-.985,1.831-2.1,4.321-2.83,10.381-4.54,14.65a14.019,14.019,0,0,1-12.1,9.306C715.095,519.6,715.858,517.588,715.82,516.714Zm-3.719,3.242c-.151.351-.536.231-.089,1.337l.094.211c-.643-.185-1.459.166-2.124-.037-.251-.076-.127-.025-.282-.15a9.658,9.658,0,0,1-5.325-1.845c-4.213-3.328-4.088-8.546-8.339-13.971.08-.057-.005-.024.19-.1a1.23,1.23,0,0,1,.223-.06c.155-.033.357-.056.517-.079,6.348-.9,14.415,1.583,16.435,8.758a12.255,12.255,0,0,1,.35,4.283,14.692,14.692,0,0,1-.8,3.774Zm-33.94,2.3,21.926-.013a8.722,8.722,0,0,1-.971,1.44l-2.869,4.047-19.945.011Zm25.023.011c.766-.044,22.191-.092,22.653.012.762.171,1.343,1.642,1.032,2.562-.3.9-.669,2.147-1.023,2.906H701.323Zm.726,15.954,11.174.012a13.5,13.5,0,0,0,1-2.806l-10.052,0a15.678,15.678,0,0,1,1.886-2.72l1.064-1.233c.619-.66.335-.92,1.489-.909l6.651.009c.819-.015.87-.439,1.245-1.11l6.915-.053a10.205,10.205,0,0,1-.36,1.19,4.978,4.978,0,0,1-2.067,2.323c.595,1.988.914,1.11-.068,3.958-.425,1.234-.815,2.5-1.242,3.724a3.954,3.954,0,0,1-2.2,2.716c-.889.538-.947.428-2.041.426H705.464c-3.127,0-6.446.114-9.548-.008l4.807-14.287,6.134-.041Zm-18.952,5.516-6.229,0c.2-.705,4.507-13.822,4.881-14.317l6.234-.014a36.413,36.413,0,0,1-1.212,3.677C688.279,534.091,685.294,543.3,684.959,543.735Z" transform="translate(-491.277 0)"/><path class="b" d="M847.867,764.6l-6.134.041-4.807,14.287c3.1.122,6.421.008,9.548.008h11.841c1.094,0,1.152.112,2.041-.426a3.953,3.953,0,0,0,2.2-2.716c.427-1.223.816-2.49,1.242-3.724.982-2.848.663-1.97.068-3.958a4.978,4.978,0,0,0,2.067-2.323,10.212,10.212,0,0,0,.36-1.19l-6.915.053c-.375.671-.427,1.095-1.245,1.11l-6.651-.009c-1.155-.011-.87.248-1.49.909l-1.064,1.233a15.677,15.677,0,0,0-1.886,2.72l10.052,0a13.5,13.5,0,0,1-1,2.806l-11.174-.013Z" transform="translate(-632.286 -235.191)"/><path class="b" d="M958.479,524.256a28.667,28.667,0,0,1,2.169-5.315,30.356,30.356,0,0,1,2.814-4.519,24.078,24.078,0,0,1,3.489-3.8,19.853,19.853,0,0,1,4.264-3.017c-.171.244-2.165,1.959-2.76,2.668-.289.344-.613.625-.929.966A30.806,30.806,0,0,0,965,514.212a31.735,31.735,0,0,0-4.636,8.354,25.824,25.824,0,0,1-.963,2.785c.037.874-.725,2.885-.728,4.15a14.019,14.019,0,0,0,12.1-9.306c1.71-4.27,2.442-10.33,4.54-14.65.285-.587.793-1.326.985-1.831-7.883-.194-17.955,4.5-21.053,13.05-.413,1.139-.168.746.6,1.854,1.635,2.351,1.877,3.6,2.258,6.575Z" transform="translate(-734.858 -8.636)"/><path class="b" d="M1054.236,778.241c.878.394.726.673,1.918.661,2.926-.029,16.954.116,18.2-.03l2.957-5.519-15.448-.01c.048-.818,2.653-7.535,2.895-8.786l-6.384.01c-.3.584-2.873,8.506-3.381,9.951a7.6,7.6,0,0,0-.752,3.723" transform="translate(-820.981 -235.157)"/><path class="b" d="M851.5,596.054l1.753.013a20.289,20.289,0,0,0-1.884-4.537,22.337,22.337,0,0,0-4.131-5.276,27,27,0,0,0-3.412-2.743,12.515,12.515,0,0,1-1.85-1.233,14.585,14.585,0,0,1,4.036,1.988,20.07,20.07,0,0,1,4.637,4.524,23.816,23.816,0,0,1,3.252,5.9l.849,2.127a14.694,14.694,0,0,0,.8-3.774,12.256,12.256,0,0,0-.35-4.283c-2.02-7.176-10.087-9.662-16.435-8.758-.16.023-.362.046-.517.079a1.223,1.223,0,0,0-.223.06c-.2.072-.11.039-.19.1,4.251,5.425,4.127,10.643,8.34,13.971a9.656,9.656,0,0,0,5.325,1.845" transform="translate(-633.078 -74.737)"/><path class="b" d="M878.006,715.48h24.525c.354-.759.719-2.007,1.023-2.906.311-.92-.27-2.391-1.032-2.563-.462-.1-21.887-.056-22.653-.012Z" transform="translate(-667.96 -187.736)"/><path class="a" d="M1044.807,723.093c2.355,1.557,2.129,1.228,4.6,1.228h11.649c1.814,0,4.107.132,5.863-.021.676-1.484,4.033-7.44,4.276-8.172l-15.8,0c.213-1.073.927-2.79,1.305-3.931.644-1.943,4.01-11.434,4.033-12.01l-8.969,0c-.512,1.186-3.2,9.289-3.8,11.106l-2.814,8.341a8.29,8.29,0,0,0-.346,3.453m5.987-16.069c.023-.573,1.529-4.685,1.814-5.511h.846l5.006,0,.565.03-1.874,5.479Zm-4.746,15.322a7.593,7.593,0,0,1,.752-3.723c.508-1.444,3.084-9.367,3.381-9.95l6.384-.01c-.242,1.251-2.847,7.968-2.895,8.786l15.448.01-2.957,5.518c-1.242.146-15.27,0-18.2.03C1046.774,723.018,1046.926,722.739,1046.048,722.346Z" transform="translate(-812.793 -179.262)"/><path class="b" d="M687.9,715.648l19.945-.011,2.869-4.047a8.728,8.728,0,0,0,.971-1.439l-21.926.013Z" transform="translate(-502.871 -187.911)"/><path class="b" d="M712.568,778.936c.335-.436,3.32-9.643,3.675-10.65a36.419,36.419,0,0,0,1.211-3.677l-6.234.014c-.374.495-4.681,13.612-4.881,14.317Z" transform="translate(-518.886 -235.202)"/><path class="b" d="M1090.422,715.727l6.357,0,1.874-5.479-.565-.03-5.006,0h-.846c-.285.825-1.791,4.938-1.814,5.51" transform="translate(-852.421 -187.965)"/><path class="c" d="M981.158,550c.558.569.641.147.443.867l.41.054c.238.377-.176-.1.069.173a25.8,25.8,0,0,0,.963-2.785,31.746,31.746,0,0,1,4.635-8.354,30.9,30.9,0,0,1,2.526-2.969c.317-.341.641-.623.93-.966.6-.709,2.589-2.424,2.76-2.668a19.865,19.865,0,0,0-4.265,3.017,24.093,24.093,0,0,0-3.489,3.8,30.366,30.366,0,0,0-2.814,4.519A28.678,28.678,0,0,0,981.158,550" transform="translate(-757.537 -34.381)"/><path class="c" d="M878.819,612.232c.155.125.03.074.281.15.665.2,1.481-.148,2.124.037l-.094-.212c-.448-1.106-.063-.986.089-1.337a23.814,23.814,0,0,0-3.252-5.9,20.066,20.066,0,0,0-4.637-4.524,14.585,14.585,0,0,0-4.036-1.988,12.5,12.5,0,0,0,1.85,1.233,27.025,27.025,0,0,1,3.412,2.743,22.345,22.345,0,0,1,4.131,5.276,20.289,20.289,0,0,1,1.884,4.537Z" transform="translate(-660.395 -90.916)"/><path class="d" d="M381.256,963.873H386.6l-2.512-8.27Zm-27.719-4.783H354.8c1.491,0,3.736-.152,4.958-1.123a4.48,4.48,0,0,0,1.322-3.623,5.648,5.648,0,0,0-1.175-3.857,4.485,4.485,0,0,0-3.432-1.245,5.126,5.126,0,0,0-2.485.455c-.4.385-.45,1.783-.45,2.291Zm-61.574,1.281h1.382c1.631,0,3.826-.2,5.126-1.309a5.3,5.3,0,0,0,1.472-4.163,6.647,6.647,0,0,0-1.212-4.337,4.819,4.819,0,0,0-3.715-1.32,4.75,4.75,0,0,0-2.539.515c-.463.459-.516,2.025-.516,2.622Zm-48.141-1.281h1.263c1.491,0,3.736-.152,4.958-1.123a4.479,4.479,0,0,0,1.322-3.623,5.649,5.649,0,0,0-1.175-3.857,4.483,4.483,0,0,0-3.432-1.245,5.126,5.126,0,0,0-2.485.455c-.4.385-.451,1.783-.451,2.291ZM363.7,961.4a9.7,9.7,0,0,1,1.818,1.165,7.5,7.5,0,0,1,2.566,4.057,28.238,28.238,0,0,1,.668,4.484c.04.477.083.958.145,1.413a4.3,4.3,0,0,0,.285,1.124.318.318,0,0,0,.1.008c.277,0,.422-.272.523-.5a6.98,6.98,0,0,0,.395-2.635v-.938l3.626.041.094.812c.017.146.025.293.032.44.011.221.014.442.014.664q0,.289-.013.581c.229-.485.422-.989.568-1.4l9.046-25.344h5.983l8.808,25.855a6.471,6.471,0,0,0,1.229,2.34,3.41,3.41,0,0,0,1.8.775l.775.129v3.891H386.2V974.4l.865-.059a6.734,6.734,0,0,0,2.216-.42.539.539,0,0,0,.264-.548,5.477,5.477,0,0,0-.23-1.054c-.022-.072-.043-.141-.058-.211l-1.231-4.2h-8.1l-.98,3.193-.05.176a8.014,8.014,0,0,0-.441,1.889.7.7,0,0,0,.247.626,6.045,6.045,0,0,0,2.027.556l.8.112v3.912H370.755v-.109a7.233,7.233,0,0,1-3.646.877,8.218,8.218,0,0,1-3.275-.61,5.639,5.639,0,0,1-2.371-1.856c-1.147-1.571-1.43-4.467-1.537-6.351-.01-.175-.02-.351-.04-.562-.087-1.5-.367-4.426-1.514-5.548a3.613,3.613,0,0,0-1.478-.831,8.855,8.855,0,0,0-2.54-.3h-.818v8.611c0,.42.042,1.717.382,2.033a7.027,7.027,0,0,0,2.636.616l.844.076v3.953H341.05v-3.946l.836-.083a5.327,5.327,0,0,0,2.222-.58,4.46,4.46,0,0,0,.366-2.07V952.073a4.5,4.5,0,0,0-.366-2.085,5.228,5.228,0,0,0-2.218-.58l-.84-.079v-3.95h15.54c3.215,0,7.332.312,10.158,2a7.194,7.194,0,0,1,3.591,6.584,6.718,6.718,0,0,1-2.662,5.566A11.557,11.557,0,0,1,363.7,961.4Zm-51.4-9.33c0-.386-.041-1.862-.342-2.153a5.917,5.917,0,0,0-2.266-.51l-.856-.066V945.38h15.632v3.972l-.865.058a4.172,4.172,0,0,0-1.9.465,5.286,5.286,0,0,0-.344,2.2v13.759c0,2.01.2,4.892,1.418,6.584a5.017,5.017,0,0,0,4.344,1.835,5.086,5.086,0,0,0,4.395-1.89c1.255-1.718,1.487-4.475,1.487-6.529V952.073a5.313,5.313,0,0,0-.341-2.193,4.157,4.157,0,0,0-1.9-.469l-.864-.059V945.38h10.854v3.964l-.855.066a5.871,5.871,0,0,0-2.26.509c-.305.3-.349,1.762-.349,2.154v13.119c0,3.555-.552,7.734-3.017,10.49-2.4,2.681-6.051,3.413-9.5,3.413s-7.081-.744-9.473-3.428c-2.454-2.755-3-6.929-3-10.476Zm-20.331,12.373v7.238c0,.438.045,1.71.408,2.035a7.508,7.508,0,0,0,2.8.621l.852.069v3.96H279.477v-3.946l.836-.083a5.325,5.325,0,0,0,2.222-.58,4.49,4.49,0,0,0,.366-2.077V952.066a4.489,4.489,0,0,0-.366-2.077,5.194,5.194,0,0,0-2.218-.58l-.84-.079v-3.95h16.609c3.219,0,7.136.388,9.876,2.238a8.006,8.006,0,0,1,3.482,7.054c0,3.036-.966,5.76-3.548,7.5-2.864,1.933-7.252,2.273-10.607,2.273Zm-79.548-15.025a4.6,4.6,0,0,0-3.725,1.915c-1.295,1.783-1.764,4.705-1.964,6.845l-.078.841h-3.821l.453-13.642h27.313l.515,13.642h-3.888l-.075-.845c-.192-2.137-.649-5.06-1.944-6.841a4.6,4.6,0,0,0-3.725-1.915v22.262c0,.456.045,1.675.414,2.018a7.324,7.324,0,0,0,2.76.638l.848.073v3.956H208.394v-3.957l.848-.073A7.287,7.287,0,0,0,212,973.7c.369-.343.414-1.563.414-2.018Zm51.5,24.9a4.719,4.719,0,0,0,2.013-.557,4.484,4.484,0,0,0,.366-2.085v-19.6a4.514,4.514,0,0,0-.366-2.085,5.2,5.2,0,0,0-2.218-.58l-.841-.079v-3.95h15.871v3.953l-.844.076a5.151,5.151,0,0,0-2.18.556,4.673,4.673,0,0,0-.361,2.108v19.6a4.675,4.675,0,0,0,.361,2.108,5.145,5.145,0,0,0,2.18.556l.844.077v3.953H262.872v-1.777a6.134,6.134,0,0,1-.4.506,6.5,6.5,0,0,1-5.072,2.039,8.22,8.22,0,0,1-3.275-.61,5.64,5.64,0,0,1-2.372-1.856c-1.147-1.571-1.43-4.467-1.537-6.351-.01-.174-.02-.351-.039-.562-.087-1.5-.368-4.426-1.515-5.548a3.614,3.614,0,0,0-1.478-.831,8.854,8.854,0,0,0-2.539-.3h-.818v8.611c0,.42.042,1.717.382,2.033a7.033,7.033,0,0,0,2.636.616l.845.076v3.953H231.336v-3.946l.836-.083a5.327,5.327,0,0,0,2.223-.58,4.472,4.472,0,0,0,.365-2.07V952.073a4.505,4.505,0,0,0-.365-2.085,5.229,5.229,0,0,0-2.218-.58l-.841-.079v-3.95h15.541c3.215,0,7.331.312,10.157,2a7.2,7.2,0,0,1,3.592,6.584,6.717,6.717,0,0,1-2.663,5.566,11.551,11.551,0,0,1-3.981,1.877,9.676,9.676,0,0,1,1.819,1.165,7.5,7.5,0,0,1,2.567,4.057,28.322,28.322,0,0,1,.668,4.484c.039.477.083.958.145,1.413a4.3,4.3,0,0,0,.285,1.124.316.316,0,0,0,.1.008c.277,0,.422-.272.523-.5a6.974,6.974,0,0,0,.394-2.634v-.938l3.623.041.1.808c.018.147.025.3.032.443.011.221.014.442.014.664A10.857,10.857,0,0,1,263.918,974.318Z" transform="translate(-81.64 -392.182)"/><g transform="translate(122.159 554.129)"><path class="e" d="M219.773,954.622h-.564a5.612,5.612,0,0,0-4.841,2.3q-1.672,2.3-2.138,7.308h-2.022l.389-11.781h25.524l.447,11.781h-2.08q-.447-5-2.119-7.308a5.613,5.613,0,0,0-4.841-2.3h-.564V977.83a3.729,3.729,0,0,0,.709,2.7,6.235,6.235,0,0,0,3.314.886v2.169h-15.24v-2.169a6.236,6.236,0,0,0,3.314-.886,3.73,3.73,0,0,0,.71-2.7Z" transform="translate(-210.209 -952.454)"/><path class="e" d="M437.215,977.83a3.836,3.836,0,0,0,.68,2.721,5.989,5.989,0,0,0,3.188.865v2.169H426.6v-2.169a4.778,4.778,0,0,0,2.789-.855,4.1,4.1,0,0,0,.632-2.731V958.209a4.1,4.1,0,0,0-.632-2.731,4.782,4.782,0,0,0-2.789-.855v-2.168h14.6q6.551,0,9.691,1.866a6.261,6.261,0,0,1,3.139,5.786,5.781,5.781,0,0,1-2.3,4.827,14.146,14.146,0,0,1-6.95,2.346,11.8,11.8,0,0,1,4.763,2.147,6.5,6.5,0,0,1,2.255,3.566,26.606,26.606,0,0,1,.641,4.337q.1,1.043.156,1.48a3.845,3.845,0,0,0,.457,1.532.978.978,0,0,0,.845.386,1.5,1.5,0,0,0,1.371-1.042,7.534,7.534,0,0,0,.476-3.023l1.866.021q.019.167.029.375t.01.625a7.178,7.178,0,0,1-1.545,4.942,5.572,5.572,0,0,1-4.384,1.73,7.3,7.3,0,0,1-2.906-.532,4.78,4.78,0,0,1-1.992-1.553q-1.108-1.522-1.361-5.859-.02-.354-.039-.563-.272-4.649-1.788-6.151a4.576,4.576,0,0,0-1.856-1.053,9.711,9.711,0,0,0-2.809-.344h-1.75Zm0-19.7v8.028h2.2q3.868,0,5.54-1.324t1.672-4.347A6.4,6.4,0,0,0,445.2,956a5.321,5.321,0,0,0-4.121-1.543q-2.391,0-3.13.709T437.215,958.126Z" transform="translate(-398.122 -952.454)"/><path class="e" d="M669.6,958.209a4.1,4.1,0,0,0-.632-2.731,4.782,4.782,0,0,0-2.789-.855v-2.168h14v2.168a4.691,4.691,0,0,0-2.751.824,4.139,4.139,0,0,0-.632,2.763V977.83a4.14,4.14,0,0,0,.632,2.763,4.687,4.687,0,0,0,2.751.823v2.169h-14v-2.169a4.778,4.778,0,0,0,2.789-.855,4.1,4.1,0,0,0,.632-2.731Z" transform="translate(-606.174 -952.454)"/><path class="e" d="M795.746,958.209a4.1,4.1,0,0,0-.632-2.731,4.783,4.783,0,0,0-2.79-.855v-2.168h15.668q6.279,0,9.35,2.075a7.073,7.073,0,0,1,3.072,6.286q0,4.608-3.14,6.725T807.2,969.656h-4.257v8.174a3.729,3.729,0,0,0,.719,2.731,6.348,6.348,0,0,0,3.344.855v2.169H792.325v-2.169a4.779,4.779,0,0,0,2.79-.855,4.1,4.1,0,0,0,.632-2.731Zm7.193.313v8.924h2.313q3.926,0,5.725-1.533t1.8-4.869a7.288,7.288,0,0,0-1.448-4.963,5.6,5.6,0,0,0-4.4-1.626q-2.411,0-3.2.782T802.939,958.522Z" transform="translate(-715.714 -952.454)"/><path class="e" d="M1018.676,958.209q0-2.21-.622-2.815a4.961,4.961,0,0,0-2.838-.772v-2.168H1029v2.168a3.952,3.952,0,0,0-2.508.751,4.425,4.425,0,0,0-.6,2.836v13.762q0,4.9,1.594,7.121t5.093,2.221a5.946,5.946,0,0,0,5.142-2.273q1.662-2.273,1.662-7.069V958.209a4.427,4.427,0,0,0-.6-2.836,3.917,3.917,0,0,0-2.488-.751v-2.168h8.981v2.168a4.973,4.973,0,0,0-2.828.772q-.632.6-.632,2.815v13.115q0,6.777-2.78,9.884t-8.806,3.107q-6.007,0-8.777-3.117t-2.77-9.873Z" transform="translate(-909.271 -952.454)"/><path class="e" d="M1270.729,977.83a3.835,3.835,0,0,0,.68,2.721,5.988,5.988,0,0,0,3.188.865v2.169h-14.482v-2.169a4.779,4.779,0,0,0,2.79-.855,4.1,4.1,0,0,0,.632-2.731V958.209a4.1,4.1,0,0,0-.632-2.731,4.783,4.783,0,0,0-2.79-.855v-2.168h14.6q6.551,0,9.691,1.866a6.261,6.261,0,0,1,3.139,5.786,5.781,5.781,0,0,1-2.3,4.827,14.145,14.145,0,0,1-6.949,2.346,11.8,11.8,0,0,1,4.763,2.147,6.493,6.493,0,0,1,2.255,3.566,26.609,26.609,0,0,1,.642,4.337q.1,1.043.155,1.48a3.846,3.846,0,0,0,.457,1.532.977.977,0,0,0,.845.386,1.5,1.5,0,0,0,1.371-1.042,7.537,7.537,0,0,0,.476-3.023l1.866.021q.019.167.029.375t.01.625a7.178,7.178,0,0,1-1.545,4.942,5.573,5.573,0,0,1-4.384,1.73,7.3,7.3,0,0,1-2.906-.532,4.781,4.781,0,0,1-1.993-1.553q-1.108-1.522-1.361-5.859-.02-.354-.039-.563-.272-4.649-1.788-6.151a4.575,4.575,0,0,0-1.856-1.053,9.711,9.711,0,0,0-2.809-.344h-1.75Zm0-19.7v8.028h2.2q3.868,0,5.54-1.324t1.672-4.347a6.4,6.4,0,0,0-1.419-4.483,5.322,5.322,0,0,0-4.121-1.543q-2.391,0-3.13.709T1270.729,958.126Z" transform="translate(-1121.94 -952.454)"/><path class="e" d="M1485.665,983.585v-2.169a3.959,3.959,0,0,0,2.109-1.168,9.514,9.514,0,0,0,1.6-3.065l8.826-24.729h4.665l8.592,25.23a6.859,6.859,0,0,0,1.467,2.711,4.242,4.242,0,0,0,2.284,1.022v2.169H1501.12v-2.169a6.631,6.631,0,0,0,2.615-.542,1.442,1.442,0,0,0,.729-1.355,5.884,5.884,0,0,0-.272-1.334.892.892,0,0,1-.039-.146l-1.439-4.921h-9.487L1492.041,977l-.039.146a8.359,8.359,0,0,0-.486,2.168,1.585,1.585,0,0,0,.661,1.4,6.051,6.051,0,0,0,2.411.709v2.169Zm8.281-12.636h7.893l-3.713-12.219Z" transform="translate(-1317.806 -952.454)"/></g><rect class="f" width="224.044" height="16.627" transform="translate(108.814 594.004)"/><g transform="translate(126.507 597.551)"><path class="g" d="M249.954,1286.708a4.005,4.005,0,0,1-3.819,4.141h-2.885v-1.167h.811v-5.947h-.811v-1.179h2.885A4.029,4.029,0,0,1,249.954,1286.708Zm-1.1,0a2.88,2.88,0,0,0-2.772-2.973h-.924v5.947h.924A2.88,2.88,0,0,0,248.855,1286.708Z" transform="translate(-243.249 -1282.534)"/><path class="g" d="M307.882,1283.573v2.555h2.783v1.1h-2.783v2.423h3.553v1.112l-5.38-.011v-1.1h.77v-6.079h-.739v-1.1h5.36v1.1Z" transform="translate(-297.788 -1282.461)"/><path class="g" d="M365.234,1288.56a2.361,2.361,0,0,1-2.32,2.445h-.308a2.8,2.8,0,0,1-2.31-1.178h-.021v-1.09h1.088v.782a1.972,1.972,0,0,0,1.253.484h.3a1.4,1.4,0,0,0,1.386-1.443c0-.826-.585-1.156-1.386-1.288-.175-.033-.339-.044-.513-.077a2.284,2.284,0,0,1-2.1-2.17,2.229,2.229,0,0,1,2.1-2.3h.154a2.589,2.589,0,0,1,2.023.958v1.354H363.5v-.914a1.807,1.807,0,0,0-.945-.309H362.4a1.186,1.186,0,0,0-1.088,1.212c0,.649.4.98,1.088,1.068a3.218,3.218,0,0,0,.523.066A2.4,2.4,0,0,1,365.234,1288.56Z" transform="translate(-344.874 -1282.679)"/><path class="g" d="M416.124,1282.974v2.071h-1.047v-.991h-1.52v6.024h.729v1.134h-2.475v-1.134h.688v-6.024h-1.478v.991h-1.047v-2.071Z" transform="translate(-388.032 -1282.897)"/><path class="g" d="M471.246,1284.108v5.947h.729v1.134H469.5v-1.134h.719v-5.947H469.5v-1.134h2.475v1.134Z" transform="translate(-439.724 -1282.897)"/><path class="g" d="M507.77,1283.639v5.936h.77v1.178h-2.023l-3.368-6.288v5.143h.708v1.156h-2.526v-1.156h.76v-5.969h-.76v-1.167l2.084.022,3.3,6.288v-5.143h-.7v-1.167h2.526v1.167Z" transform="translate(-467.367 -1282.461)"/><path class="g" d="M577.367,1289.6v1.09h-2.372v-1.09h.6l-.452-1.09h-3.245l-.452,1.09h.6v1.09h-2.362v-1.09h.6l2.464-6.134h-.729v-1.079h3.019v1.079h-.719l2.464,6.134Zm-2.67-2.18-1.17-2.864-1.191,2.864Z" transform="translate(-526.716 -1282.389)"/><path class="g" d="M647.213,1282.974v2.071h-1.047v-.991h-1.52v6.024h.729v1.134H642.9v-1.134h.688v-6.024H642.11v.991h-1.047v-2.071Z" transform="translate(-588.708 -1282.897)"/><path class="g" d="M702.336,1284.108v5.947h.729v1.134H700.59v-1.134h.719v-5.947h-.719v-1.134h2.475v1.134Z" transform="translate(-640.401 -1282.897)"/><path class="g" d="M740.507,1286.915a3.712,3.712,0,1,1-3.738-4.108A3.916,3.916,0,0,1,740.507,1286.915Zm-1.057,0a2.656,2.656,0,1,0-2.68,3A2.79,2.79,0,0,0,739.449,1286.915Z" transform="translate(-668.653 -1282.752)"/><path class="g" d="M809.076,1283.639v5.936h.77v1.178h-2.023l-3.368-6.288v5.143h.708v1.156h-2.526v-1.156h.76v-5.969h-.76v-1.167l2.084.022,3.3,6.288v-5.143h-.7v-1.167h2.526v1.167Z" transform="translate(-729.018 -1282.461)"/><path class="g" d="M904.678,1282.807v2.06h-1v-.958h-2.464v2.544h2.464v1.1h-2.464v2.412h.708v1.1H899.39v-1.1h.77v-6.057h-.78v-1.1Z" transform="translate(-813.028 -1282.752)"/><path class="g" d="M960.751,1286.915a3.713,3.713,0,1,1-3.738-4.108A3.916,3.916,0,0,1,960.751,1286.915Zm-1.058,0a2.656,2.656,0,1,0-2.68,3A2.79,2.79,0,0,0,959.693,1286.915Z" transform="translate(-859.911 -1282.752)"/><path class="g" d="M1029.691,1289.765v1.123l-1.335.011-.01-.022-1.3-2.709a2.549,2.549,0,0,1-.308.022l-.021.011h-1.15v1.586h.709v1.123h-2.454v-1.123h.7v-6.024h-.7v-1.123h2.916a2.71,2.71,0,0,1,2.526,2.775,2.815,2.815,0,0,1-1.16,2.313l.893,2.037Zm-1.468-4.35a1.605,1.605,0,0,0-1.55-1.652h-1.109v3.315h1.109A1.608,1.608,0,0,0,1028.223,1285.415Z" transform="translate(-921.09 -1282.607)"/><path class="g" d="M1119.435,1289.6v1.09h-2.372v-1.09h.6l-.452-1.09h-3.245l-.452,1.09h.6v1.09h-2.362v-1.09h.6l2.464-6.134h-.729v-1.079h3.019v1.079h-.719l2.464,6.134Zm-2.67-2.18-1.17-2.864-1.191,2.864Z" transform="translate(-997.444 -1282.389)"/><path class="g" d="M1188.87,1288.56a2.361,2.361,0,0,1-2.321,2.445h-.308a2.8,2.8,0,0,1-2.31-1.178h-.02v-1.09H1185v.782a1.972,1.972,0,0,0,1.253.484h.3a1.4,1.4,0,0,0,1.386-1.443c0-.826-.585-1.156-1.386-1.288-.175-.033-.339-.044-.513-.077a2.285,2.285,0,0,1-2.105-2.17,2.229,2.229,0,0,1,2.105-2.3h.154a2.59,2.59,0,0,1,2.023.958v1.354h-1.078v-.914a1.807,1.807,0,0,0-.945-.309h-.154a1.186,1.186,0,0,0-1.089,1.212c0,.649.4.98,1.089,1.068a3.215,3.215,0,0,0,.523.066A2.406,2.406,0,0,1,1188.87,1288.56Z" transform="translate(-1060.113 -1282.679)"/><path class="g" d="M1240.213,1285.569a2.956,2.956,0,0,1-1.232,2.456,2.589,2.589,0,0,1-1.078.451,2.007,2.007,0,0,1-.37.033h-1.263v1.267h.7v1.123h-2.423v-1.123h.657v-6.013h-.657v-1.123h2.988A2.849,2.849,0,0,1,1240.213,1285.569Zm-1.058,0a1.738,1.738,0,0,0-1.674-1.8h-1.211v3.6h1.211A1.734,1.734,0,0,0,1239.155,1285.569Z" transform="translate(-1104.083 -1282.607)"/><path class="g" d="M1292.309,1284.108v5.947h.729v1.134h-2.474v-1.134h.719v-5.947h-.719v-1.134h2.474v1.134Z" transform="translate(-1152.729 -1282.897)"/><path class="g" d="M1329.2,1289.765v1.123l-1.335.011-.011-.022-1.3-2.709a2.554,2.554,0,0,1-.308.022l-.021.011h-1.15v1.586h.709v1.123h-2.454v-1.123h.7v-6.024h-.7v-1.123h2.916a2.709,2.709,0,0,1,2.526,2.775,2.815,2.815,0,0,1-1.16,2.313l.893,2.037Zm-1.468-4.35a1.605,1.605,0,0,0-1.55-1.652h-1.109v3.315h1.109A1.608,1.608,0,0,0,1327.735,1285.415Z" transform="translate(-1181.184 -1282.607)"/><path class="g" d="M1389.222,1289.6v1.09h-2.372v-1.09h.6l-.452-1.09h-3.245l-.452,1.09h.6v1.09h-2.362v-1.09h.6l2.464-6.134h-.729v-1.079h3.019v1.079h-.719l2.464,6.134Zm-2.67-2.18-1.171-2.864-1.191,2.864Z" transform="translate(-1231.725 -1282.389)"/><path class="g" d="M1459.069,1282.974v2.071h-1.048v-.991h-1.52v6.024h.729v1.134h-2.475v-1.134h.688v-6.024h-1.478v.991h-1.047v-2.071Z" transform="translate(-1293.717 -1282.897)"/><path class="g" d="M1514.191,1284.108v5.947h.729v1.134h-2.475v-1.134h.719v-5.947h-.719v-1.134h2.475v1.134Z" transform="translate(-1345.41 -1282.897)"/><path class="g" d="M1552.362,1286.915a3.712,3.712,0,1,1-3.737-4.108A3.916,3.916,0,0,1,1552.362,1286.915Zm-1.057,0a2.656,2.656,0,1,0-2.68,3A2.79,2.79,0,0,0,1551.3,1286.915Z" transform="translate(-1373.662 -1282.752)"/><path class="g" d="M1620.93,1283.639v5.936h.77v1.178h-2.022l-3.368-6.288v5.143h.708v1.156h-2.526v-1.156h.76v-5.969h-.76v-1.167l2.084.022,3.3,6.288v-5.143h-.7v-1.167h2.526v1.167Z" transform="translate(-1434.027 -1282.461)"/></g><g transform="translate(248.164 515.734)"><path class="h" d="M1169.184,665.907v-4.316h-1.542v-.879h4.128v.879h-1.538v4.316Z" transform="translate(-1167.642 -660.712)"/><path class="h" d="M1204.047,665.907v-5.2h1.57l.943,3.544.932-3.544h1.574v5.2h-.974v-4.09l-1.031,4.09h-1.01l-1.028-4.09v4.09Z" transform="translate(-1199.256 -660.712)"/></g></g></svg>