<svg xmlns="http://www.w3.org/2000/svg" width="15.625" height="15.625" viewBox="0 0 15.625 15.625"><defs><style>.a{fill:#4e5a62;}</style></defs><g transform="translate(0 0)"><path class="a" d="M1754.551,535.155a3.633,3.633,0,0,0-3.107,5.526l.095.154-.364,1.357,1.365-.365.154.091a3.637,3.637,0,1,0,1.858-6.763Zm2.138,5.013a1.088,1.088,0,0,1-.813.6,1.715,1.715,0,0,1-.9-.142,3.766,3.766,0,0,1-.77-.366,4.4,4.4,0,0,1-1.235-1.147,4.963,4.963,0,0,1-.285-.433,2.347,2.347,0,0,1-.272-.629,1.324,1.324,0,0,1-.036-.284,1.13,1.13,0,0,1,.392-.9.512.512,0,0,1,.557-.083,1.206,1.206,0,0,1,.375.564.942.942,0,0,1,.117.507.981.981,0,0,1-.264.428.178.178,0,0,0-.022.243,2.907,2.907,0,0,0,1.452,1.244.16.16,0,0,0,.207-.045c.108-.133.214-.395.381-.462a.752.752,0,0,1,.643.144c.172.1.46.229.506.442A.527.527,0,0,1,1756.688,540.168Z" transform="translate(-1746.383 -531.159)"/><path class="a" d="M1752.975,530.081a7.813,7.813,0,1,0,7.813,7.813A7.813,7.813,0,0,0,1752.975,530.081Zm.355,12.122a4.477,4.477,0,0,1-2.133-.543l-2.443.655.651-2.431a4.485,4.485,0,1,1,3.925,2.32Z" transform="translate(-1745.162 -530.081)"/></g></svg>