<svg xmlns="http://www.w3.org/2000/svg" width="46.616" height="46.617" viewBox="0 0 46.616 46.617"><defs><style>.a{fill:#76bf4e;}</style></defs><g transform="translate(0 0)"><g transform="translate(0)"><path class="a" d="M1761.771,535.155a10.837,10.837,0,0,0-9.27,16.487l.282.461-1.086,4.049,4.073-1.09.458.273a10.852,10.852,0,1,0,5.544-20.178Zm6.377,14.957a3.245,3.245,0,0,1-2.425,1.8,5.118,5.118,0,0,1-2.677-.423,11.229,11.229,0,0,1-2.3-1.093,13.117,13.117,0,0,1-3.685-3.421,14.913,14.913,0,0,1-.851-1.292,7,7,0,0,1-.813-1.875,3.938,3.938,0,0,1-.106-.848,3.37,3.37,0,0,1,1.17-2.672,1.527,1.527,0,0,1,1.662-.247,3.6,3.6,0,0,1,1.119,1.683,2.81,2.81,0,0,1,.35,1.513,2.929,2.929,0,0,1-.787,1.278.531.531,0,0,0-.065.726,8.671,8.671,0,0,0,4.333,3.711.477.477,0,0,0,.618-.134c.322-.4.639-1.177,1.137-1.379a2.243,2.243,0,0,1,1.918.43c.514.308,1.372.684,1.51,1.318A1.575,1.575,0,0,1,1768.148,550.112Z" transform="translate(-1737.401 -523.231)"/><path class="a" d="M1768.471,530.081a23.308,23.308,0,1,0,23.308,23.308A23.308,23.308,0,0,0,1768.471,530.081Zm1.06,36.167a13.358,13.358,0,0,1-6.364-1.621l-7.289,1.953,1.944-7.252a13.379,13.379,0,1,1,11.71,6.92Z" transform="translate(-1745.163 -530.081)"/></g></g></svg>